<?xml version="1.0" standalone="no"?>
<!DOCTYPE svg PUBLIC "-//W3C//DTD SVG 1.1//EN" "http://www.w3.org/Graphics/SVG/1.1/DTD/svg11.dtd" >
<svg xmlns="http://www.w3.org/2000/svg">
<metadata>
Created by FontPrep 20130207 at Mon Oct 26 23:46:00 2015
 By Jens Wittmann
Copyright (c) 2011 by vernon adams (vern@newtypography.co.uk), with Reserved Font Names "Amatic" "Amatic SC"
</metadata>
<defs>
<font id="9af3c996af706f139dcbbe62435a567b" horiz-adv-x='1024' >
  <font-face 
    font-family="AmaticSC-Regular"
    font-weight="400"
    font-stretch="condensed"
    units-per-em="2048"
    panose-1="0 0 0 0 0 0 0 0 0 0"
    ascent="1638"
    descent="-410"
    x-height="1356"
    cap-height="1552"
    bbox="-103.059 -500 1693.4 2081"
    underline-thickness="102"
    underline-position="-102"
    unicode-range="U+0020-2212"
  />
<missing-glyph horiz-adv-x="748" 
d="M136 68h408v1229h-408v-1229zM68 0v1365h544v-1365h-544z" />
    <glyph glyph-name="e_e.liga" unicode="ee" horiz-adv-x="905" 
d="M722 633q-40 0 -48 -2l-68 10h-8l-10 -10v-6q4 -33 4 -101l-4 -248q0 -204 28 -226q18 -15 66 -15l76 4q59 0 59 -27q0 -37 -88 -37h-170q-31 0 -35 52t-4 204t-2 199l14 617l-8 245q0 58 60 58q22 0 32 -13q7 -2 60 -8q126 -14 129 -51q0 -16 -39 -39q-113 37 -166 39
l-10 -12q2 -29 2 -88l-8 -420q0 -58 28 -58l70 5q78 0 80 -37q0 -35 -40 -35zM354 1278h-166l-10 -12q2 -29 2 -88l-8 -318q0 -57 8 -57h131q37 0 37 -33q0 -25 -40 -25t-48 -2h-78q-8 -1 -6 -35t2 -143l-4 -291q0 -80 6 -163q0 -78 8 -78l158 4q60 0 60 -27q0 -37 -89 -37
l-161 -6q-38 0 -41 43l-2 420h-4l8 617l-8 245q0 50 68 46q192 -9 206 -13q8 -3 10 -15t-8 -22t-31 -10z" />
    <glyph glyph-name="l_l.liga" unicode="ll" horiz-adv-x="913" 
d="M829 -2q0 -17 -38 -23q-59 2 -189 2l-4 -4q-23 2 -50 2q-42 0 -48 48q-2 18 -2 61l8 870q0 173 4 220l4 145q0 12 14 12t45 -12q0 -93 5 -162l-7 -622l4 -175l-6 -16l2 2l-2 -16q0 -17 6 -29l-6 -260l207 -2q26 3 40 -11t13 -30zM424 10q0 -26 -35 -26q-123 -13 -182 -13
l-4 -4h-64q-29 0 -35 47q5 23 5 62l8 882q0 172 2 202t3 65t2 65l1 31q-1 9 11 15t27 2q14 -4 17 -23l-4 -776v-291q-2 -68 -2 -215q53 0 207 10q13 3 28 -5t15 -28z" />
    <glyph glyph-name="m_m.liga" unicode="mm" horiz-adv-x="1804" 
d="M1614 41q0 398 -17 577l-2 166q0 183 -4 273q0 108 -8 145q-9 -50 -95 -446t-91 -426q-6 -32 -10 -54t-8 -37q-11 -44 -41 -44q-30 -1 -38 19t-10 32q-4 12 -8 37t-20 79t-93 386q-78 331 -100 438v-1100q0 -55 2 -82q-9 -27 -43 -27q-7 0 -21 11t-14 18l15 1256
q0 45 27 56q29 10 47 -22t26 -63q6 -30 40 -142t44 -171l145 -635q7 43 87 461q87 452 97 493t24 63t54 21q50 1 50 -111l30 -988q0 -84 8 -140t6 -75q-5 -32 -40 -32l-2 -4q-37 0 -37 68zM784 -25v2q-36 0 -36 68q0 399 -17 578l-2 165q0 170 -4 254q0 109 -8 146
l-191 -963q0 -1 -6 -35q-14 -73 -49 -73q-43 0 -43 90q-18 122 -110 507t-117 455q-1 -94 -11 -452t-10 -529t2 -198q-9 -27 -43 -27q-7 0 -21 11t-14 18q0 216 18 646t17 646l-12 39q0 31 55 31q47 0 53 -67q3 -34 35 -168t43 -199l23 -80q36 -125 45 -176l33 -142
q17 -77 38 -178l21 -96q53 298 115 629t68 371q7 40 21 70q15 30 54 30q49 0 49 -145l31 -983q0 -88 8 -141q8 -52 5 -72q-5 -32 -40 -32z" />
    <glyph glyph-name=".notdef" horiz-adv-x="748" 
d="M136 68h408v1229h-408v-1229zM68 0v1365h544v-1365h-544z" />
    <glyph glyph-name=".null" horiz-adv-x="0" 
 />
    <glyph glyph-name="glyph2" horiz-adv-x="682" 
 />
    <glyph glyph-name="space" unicode=" " horiz-adv-x="290" 
 />
    <glyph glyph-name="exclam" unicode="!" horiz-adv-x="329" 
d="M202 1548q24 0 23 -26q1 -164 -21 -490t-22 -489l2 -90q0 -82 -16 -121l6 -10h-27l-2 8v491l5 350l-15 322q-1 21 21 38t46 17zM155 102q25 0 41 -22t15 -53q0 -51 -51 -54q-3 9 -13 11q-34 5 -59 55q0 19 21 41t46 22z" />
    <glyph glyph-name="quotedbl" unicode="&#x22;" horiz-adv-x="636" 
d="M459 1575q26 0 26 -65t-12 -160q-11 -95 -19 -95t-10 2q-26 40 -26 152v46q0 120 41 120zM211 1384v17q-1 174 21 174q22 1 36 -23t13 -67q1 -43 -23 -135t-43 -93q-3 0 -8 5q4 29 4 122z" />
    <glyph glyph-name="numbersign" unicode="#" horiz-adv-x="790" 
d="M376 662q69 0 130 8q37 197 37 293q0 20 -158 20q-46 0 -68 -12q-11 -25 -23 -139t-13 -158l2 -8q24 -4 93 -4zM674 637q0 -14 -33 -27h-80q-5 -56 -31 -286t-26 -355l-23 -26q-37 0 -37 20q0 43 14 128t13 139t19 180t20 192q-55 6 -135 6t-103 -8q-10 -71 -26 -252
q-36 -405 -62 -405q-10 -1 -22 5t-12 15q0 79 25 300t50 337l-88 -8q-61 0 -61 43q0 20 69 20h43q31 0 41 2q5 13 21 149t16 165l-69 -4q-78 0 -80 37l16 18q118 0 137 6q5 44 26 182t21 246l-2 41q0 45 31 45l14 -29q0 -79 -18 -237t-18 -238q29 -8 107 -8t116 14
q63 305 76 482q13 16 30 16t25 -20q-2 -78 -38 -232t-36 -235l4 -11h76l27 -28q-13 -33 -27 -33l-86 4q-31 -122 -31 -309l11 -4l38 2q58 0 58 -39z" />
    <glyph glyph-name="dollar" unicode="$" horiz-adv-x="538" 
d="M135 1288q0 -128 78 -299q0 -5 6 -8q-2 89 -18 255t-19 237q-20 -3 -34 -75t-13 -110zM414 392q0 48 -47 188t-86 196q0 -90 17 -268t17 -268l2 -4q41 19 69 63t28 93zM293 -18q-9 0 -14 15t-5 26l9 6v135l-7 6q-69 0 -102 -4q-72 50 -72 102q0 21 19 21h4q21 -13 27 -35
t18 -36t48 -13q36 0 61 8q0 165 -54 668q-1 9 -23 57t-47 102q-67 147 -67 260q0 55 15 112q29 110 83 110l-8 88q0 53 29 53l16 -18q-2 -14 -2 -46q0 -75 33 -75q39 0 78 -45q51 -51 51 -63q-1 -12 -9 -22q-8 -11 -18 -1t-27 37t-36 40t-55 17l-7 -17l7 -161q0 -61 16 -234
t28 -201t58 -121q109 -221 119 -350q1 -85 -29 -121t-50 -53q-20 -16 -61 -45l9 -116q0 -86 -35 -86z" />
    <glyph glyph-name="percent" unicode="%" horiz-adv-x="1120" 
d="M735 1532q31 0 31 -27q0 -17 -20 -99t-33 -142t-219 -965l-41 -178q-2 -7 -7 -35q-17 -89 -53 -92q-20 13 -20 47t10 89q11 56 33 144t93 402t131 544t64 241q16 71 31 71zM983 477q1 21 -1 49t-10 74t-21 78t-39 56t-60 24t-58 -36t-38 -111q-14 -74 -15 -136l-4 -108
l8 -54q1 -4 7 -47q6 -42 14 -76t26 -65t49 -31t58 16t42 44t25 64t12 74t5 77q2 39 1 63t-1 45zM831 27q-77 0 -122 170q-23 87 -23 153v8q0 457 172 457q48 0 83 -27q95 -73 95 -309l-4 -94l4 -6q0 -118 -28 -199q-51 -153 -177 -153zM258 776q90 0 120 142q16 74 15 153
l-16 256l-4 19q1 61 -37 106t-94 45q-42 0 -60 -73q-18 -74 -24 -130t-8 -63l-9 -53l4 -113q0 -62 15 -138q28 -151 98 -151zM262 723q-172 0 -172 457v8q0 71 24 171q45 193 122 193q104 0 141 -75q63 -108 63 -318l-4 -6l4 -94q0 -236 -95 -309q-35 -27 -83 -27z" />
    <glyph glyph-name="ampersand" unicode="&#x26;" horiz-adv-x="942" 
d="M309 1284q0 -20 3 -49t3 -45q35 32 78 158t43 182q0 123 -76 123q-14 1 -34 -29t-19 -45l2 -254l4 -10q-4 -11 -4 -31zM764 629q2 0 2 -2zM367 258q41 0 107 24t69 58q-9 15 -41 47q-64 66 -116 202t-66 209q-14 72 -22 134q-7 62 -17 94q-70 -90 -107 -212t-37 -241
q1 -119 55 -217t175 -98zM776 221q-86 0 -192 82q-66 -46 -114 -65t-119 -19t-133 50q-62 49 -94 121t-32 128t2 94q2 36 8 74q8 38 12 62t18 64t18 55t28 61q22 46 27 56t34 66t35 68l-14 287v170q0 61 22 95t44 34q47 0 101 -31t54 -74l-6 -122q0 -17 2 -25
q-15 -42 -47 -138t-70 -147t-38 -97t40 -206t100 -314q60 -153 107 -167q78 157 78 397q0 35 -19 32t-30 13l2 4l-4 13l6 10q36 0 118 8t103 17q35 -5 35 -31q0 -15 -34 -24t-68 -9l-49 2h-13q0 -158 -18 -261t-70 -206q71 -82 158 -82l76 6l22 -18q0 -33 -86 -33z" />
    <glyph glyph-name="quotesingle" unicode="'" horiz-adv-x="636" 
d="M211 1384v17q-1 174 21 174q22 1 36 -23t13 -67q1 -43 -23 -135t-43 -93q-3 0 -8 5q4 29 4 122z" />
    <glyph glyph-name="parenleft" unicode="(" horiz-adv-x="460" 
d="M94 879q0 68 26 239q26 170 74 338q49 168 99 170l20 -16q-2 -49 -32 -108q-131 -251 -131 -623q0 -649 155 -1018q7 -19 41 -79t43 -97q-15 -25 -29 -25q-26 0 -38 22q-28 48 -29 60q-95 210 -147 529t-52 608z" />
    <glyph glyph-name="parenright" unicode=")" horiz-adv-x="477" 
d="M387 817q0 -233 -63 -498q-138 -598 -222 -598q-10 0 -20 7t-10 18t52 108q88 164 148 462t60 501q0 445 -132 687q-32 58 -32 106l20 16q84 -2 160 -448q39 -229 39 -361z" />
    <glyph glyph-name="asterisk" unicode="*" horiz-adv-x="905" 
d="M471 1120q-2 0 -2 -2h2v2zM631 760q0 -34 -33 -35q-34 1 -46 69q-6 34 -7 37q-55 131 -111 234q-9 -12 -24 -53l-80 -189q-4 -10 -16 -45t-27 -59l-27 -4l-29 30q0 23 77 175t85 198q-12 4 -22 4h-232l-33 -2q-22 0 -22 33q0 9 6 17t16 8l277 -2l4 4q-21 40 -85 175
t-64 148q0 23 32 23q14 0 44 -72t62 -150q32 -79 52 -92q9 16 38 104q74 228 109 228q11 0 22 -10t11 -22t-26 -54q-24 -48 -56 -144t-49 -136q11 -11 125 -11l176 11q15 0 27 -12t12 -27q0 -29 -47 -29l-233 10q-55 0 -64 -6q1 -26 79 -182q78 -154 79 -172z" />
    <glyph glyph-name="plus" unicode="+" horiz-adv-x="727" 
d="M401 389q0 -33 -43 -33q-12 0 -28 9t-15 20v64l4 106q0 60 -29 65q-14 3 -40 3l-90 -11q-60 0 -60 43q0 29 23 29l108 -6q84 0 84 16l-10 205q1 25 9 35t32 10q37 0 37 -35l-8 -20l8 -162q-1 -29 13 -39t44 -10l123 6q64 0 64 -35t-35 -35l-125 7q-65 0 -71 -11
q-13 -22 -13 -58t9 -86t9 -77z" />
    <glyph glyph-name="comma" unicode="," horiz-adv-x="407" 
d="M152 97q0 27 24 45t53 18q46 0 68 -60l-4 -6q4 -8 4 -33t-25 -83t-65 -106t-74 -50l-33 16l4 19q107 89 107 149q-25 14 -42 39t-17 52z" />
    <glyph glyph-name="hyphen" unicode="-" horiz-adv-x="620" 
d="M508 739q0 -21 -134 -40t-183 -19q-50 0 -64 10t-14 25q0 21 135 40q136 19 198 19t62 -35z" />
    <glyph glyph-name="period" unicode="." horiz-adv-x="327" 
d="M113 42q1 18 17 36t35 18t35 -18t15 -35q0 -51 -57 -51q-18 0 -32 16t-13 34z" />
    <glyph glyph-name="slash" unicode="/" horiz-adv-x="559" 
d="M479 1505q0 -17 -20 -99t-33 -142t-219 -965l-41 -178q-2 -7 -7 -35q-17 -89 -53 -92q-20 13 -20 47t10 90t34 142q22 86 93 401q71 316 131 546t64 241q16 71 31 71q30 0 30 -27z" />
    <glyph glyph-name="zero" unicode="0" horiz-adv-x="606" 
d="M340 33q58 -1 87 107t35 220t7 203q0 91 -16 261t-47 247v88q-22 56 -25 138t-32 135t-132 65q-48 -39 -59 -69t-11 -99l9 -383l20 -180q0 -733 164 -733zM518 524q0 -538 -196 -538q-19 0 -66 26q-97 60 -150 762l9 8l-2 146q-13 17 -13 108l2 328q12 20 22 68t22 69
q23 41 102 41q20 0 56 -20t56 -40q20 -18 32 -44q14 -26 23 -43q9 -19 15 -53t12 -65q4 -31 8 -65t12 -95q8 -60 10 -72q2 -13 8 -67q8 -54 10 -72t6 -66q22 -190 22 -316z" />
    <glyph glyph-name="one" unicode="1" horiz-adv-x="606" 
d="M313 111q0 258 -14 484t-45 689l2 70q0 60 -19 94t-75 35l-47 -4q-35 0 -35 22q0 29 180 29q14 0 24 -10t9 -23h4q-6 -31 -6 -79q-1 -48 15 -177t16 -219t17 -318t17 -292q0 -62 -4 -78q13 -52 13 -232l-3 -30l9 -6l92 6q63 0 63 -29t-45 -29l-252 -8q-14 0 -23 9t-9 22
l10 20l55 -2q29 0 40 13t11 43z" />
    <glyph glyph-name="two" unicode="2" horiz-adv-x="571" 
d="M422 1249q0 295 -127 295q-29 -12 -45 -42t-20 -60q-8 -76 -35 -76t-27 37t11 77t37 72q26 33 60 33q86 0 139 -65t56 -154l-4 -4l6 -150q0 -167 -46 -408t-110 -384q-5 -12 -83 -173t-80 -206l16 -2q71 13 246 22l30 -32l-18 -27l-299 -18q-19 0 -35 11t-16 30
q35 43 69 139t41 110q118 256 176 488t58 487z" />
    <glyph glyph-name="three" unicode="3" horiz-adv-x="589" 
d="M225 1540q82 0 119 -49l6 -2q82 -119 82 -387q0 -50 -37 -115q-9 -6 -33 -47t-34 -51q80 -33 107 -111t40 -161t24 -131t11 -102t-1 -80q-7 -186 -74 -261q-40 -45 -97 -45t-100 20t-43 56l16 10q25 -2 52 -22t36 -25q156 0 156 260q0 233 -33 351t-107 196l-20 -2
q-23 0 -39 8v8l-10 10q2 7 22 31q20 23 44 53t45 79q20 49 20 91t-2 78q-1 36 -9 92t-21 97t-39 71t-60 31q-34 -1 -56 -19t-31 -40q-22 -58 -48 -58q-12 0 -23 8t-12 21q67 137 149 137z" />
    <glyph glyph-name="four" unicode="4" horiz-adv-x="526" 
d="M455 567q0 -30 -57 -25q-22 2 -40 -8t-18 -51t6 -178t12 -153q-2 -8 -2 -38t9 -46l-7 -25l7 -14v-29l-33 -25l-31 13v73l-2 5q8 33 8 73l-14 209l4 92q0 80 -21 90l-120 -12q-27 0 -39 10t-17 13v6q0 10 11 65l-19 41l19 101l20 401v326l-8 51q1 27 31 27t30 -29l-8 -164
q0 -36 6 -70l-4 -6q4 -36 4 -57l-24 -516l14 -60l-14 -55q0 -39 20 -39t54 6q36 6 49 13q0 74 -8 270q-7 196 -15 252q-8 55 -8 76q0 32 39 32l18 -22l12 -289q0 -60 6 -185t15 -134l76 8q39 0 39 -23z" />
    <glyph glyph-name="five" unicode="5" horiz-adv-x="569" 
d="M152 1337q-2 0 -2 -2zM485 462q0 -172 -14 -253q-30 -169 -141 -229h-11q-106 0 -106 32q0 23 39 23l53 -17q65 0 107 160q22 84 22 148t-4 147q-4 81 -18 201t-46 199t-81 79h-47l-9 -6l-6 2l-45 -18q-38 0 -46 32q-2 12 -3 34t-2 30q10 58 10 119q1 61 -23 206t-26 214
l21 20l157 2q62 0 62 -28l-23 -19h-43l-6 -4l-82 10l-14 -4l-8 2q0 -57 41 -538l-3 -2q0 -2 76 -10t108 -32q33 -24 72 -176t39 -324z" />
    <glyph glyph-name="six" unicode="6" horiz-adv-x="516" 
d="M383 174q0 234 -18 350t-35 188t-47 114t-68 42q-61 -40 -61 -110q-3 -289 51 -592q1 -8 3 -28q4 -31 11 -60q16 -66 90 -66t74 162zM289 -29q-38 1 -67 23t-51 71t-29 166q-8 116 -11 138q-31 225 -31 429t8 284t18 177q11 96 54 203t117 107q7 0 16 -6t9 -16
q0 -9 -13 -19t-32 -18t-25 -13q-32 -27 -62 -193t-36 -407q24 16 52 16t56 -16q29 -17 50 -47t39 -66t30 -86t21 -94q8 -44 14 -102q6 -56 10 -98t4 -94q2 -52 2 -79v-61t-2 -60t-12 -52q-8 -28 -23 -46t-41 -30t-65 -11z" />
    <glyph glyph-name="seven" unicode="7" horiz-adv-x="450" 
d="M160 60q0 -20 -13 -52q-13 -34 -36 -35l-25 23q0 34 16 82t38 135q43 183 86 589q44 406 63 521q18 116 18 193q0 12 -71 12l-121 -6l-31 20l18 19l217 6q13 1 27 -11t19 -26q-13 -34 -13 -78t-8 -122q-6 -78 -86 -646t-100 -598q2 -6 2 -26z" />
    <glyph glyph-name="eight" unicode="8" horiz-adv-x="524" 
d="M139 1452q0 -78 39 -272t68 -211q61 196 61 333t-22 200t-52 63l-22 -2q-16 0 -25 6q-47 -39 -47 -117zM272 -39q65 0 94 45t29 113q0 194 -78 479q-5 22 -21 90t-34 100q-42 -58 -62 -266t-20 -354q0 -42 27 -109l-2 -6q2 -32 20 -62t47 -30zM285 -78q-91 0 -123 102
q-29 86 -29 162q0 312 66 570q3 12 17 48t13 60q0 25 -33 120q-108 326 -108 449t62 162q24 15 57 15h37q6 -3 33 -15t38 -36q39 -88 39 -211t-41 -340q-30 -135 -30 -141t5 -20t12 -30t9 -22q135 -407 135 -691l-6 -49q0 -6 2 -10q-32 -63 -68 -93t-87 -30z" />
    <glyph glyph-name="nine" unicode="9" horiz-adv-x="509" 
d="M356 1440q0 123 -88 123q-83 -1 -107 -113t-24 -187t17 -92q6 -73 30 -95t38 -30t44 -23q30 -14 51 -26l29 4q10 181 10 439zM84 1243q0 157 49 265q19 38 51 66t69 28t81 -16t58 -38q14 -23 14 -325l-3 -242l-14 -82l-6 -690l-14 -152l2 -47q0 -57 -35 -57l-17 20
q19 54 19 183l10 571q0 37 -2 111t-2 110l-14 -4q-110 25 -178 107t-68 192z" />
    <glyph glyph-name="colon" unicode=":" horiz-adv-x="344" 
d="M133 1025q1 19 17 37t35 17q19 1 35 -17t16 -36q0 -51 -58 -51q-18 -1 -32 15t-13 35zM113 251q1 19 17 37t35 17q19 1 35 -17t15 -36q0 -51 -57 -51q-18 -1 -32 15t-13 35z" />
    <glyph glyph-name="semicolon" unicode=";" horiz-adv-x="391" 
d="M145 272q1 28 25 46t54 18t48 -24q19 -24 19 -58t-23 -94t-63 -110t-78 -52l-33 16l4 19q107 89 107 149q-60 36 -60 90zM180 1025q0 19 16 37t36 17q19 1 35 -17t16 -36q0 -51 -58 -51q-17 -1 -31 15t-14 35z" />
    <glyph glyph-name="less" unicode="&#x3c;" horiz-adv-x="569" 
d="M84 696q0 28 48 141t106 243q63 142 89 239q27 97 58 102l27 -20q-18 -119 -137 -357t-119 -344q0 -16 141 -304t174 -343l18 -14q-3 -11 -11 -25t-17 -14l-27 4h-4q-32 47 -69 131t-48 107l-102 213q-5 11 -21 43t-24 51q-6 19 -44 69t-38 78z" />
    <glyph glyph-name="equal" unicode="=" horiz-adv-x="620" 
d="M565 614q0 -10 -12 -10q0 4 -395 4q-9 0 -17 11t-8 19t8 9l404 -2q7 0 13 -10q6 -11 7 -21zM569 727q0 -6 -215 -6h-198q-17 -1 -30 9t-13 26q0 6 180 6h231q15 0 30 -10t15 -25z" />
    <glyph glyph-name="greater" unicode="&#x3e;" horiz-adv-x="569" 
d="M414 700q0 106 -119 344t-137 357l26 20q28 -6 50 -75q6 -24 16 -58t17 -56t113 -258t105 -271q1 -34 -37 -85q-38 -52 -45 -70t-24 -50t-21 -43l-176 -365q-37 -77 -43 -86l-30 -4q-9 0 -18 14t-11 25l18 14q36 65 176 347t140 300z" />
    <glyph glyph-name="question" unicode="?" horiz-adv-x="464" 
d="M168 42q0 18 16 36t36 18q18 0 34 -18t16 -35q0 -51 -57 -51q-17 0 -31 16t-14 34zM94 1400q0 178 130 178q76 0 98 -44q45 -90 45 -206q1 -116 -15 -208q-16 -90 -37 -170t-41 -174q-47 -222 -36 -534q-2 2 -8 -2t-17 -4q-18 0 -23 24q0 307 39 559q9 51 47 208t37 270
q1 113 -21 175t-52 61h-23q-72 0 -72 -127q0 -28 15 -123l-25 -8q-23 -2 -26 8q-15 77 -15 117z" />
    <glyph glyph-name="at" unicode="@" horiz-adv-x="1036" 
d="M489 1409q-123 0 -123 -315v-263q0 -141 14 -185t30 -69q29 -51 92 -51q35 0 70 40q36 40 56 92q20 51 20 87v154q0 33 -3 65t-4 47t-5 39t-7 50t-12 60t-17 84t-10 62t-8 32q-19 71 -93 71zM487 467q-203 0 -203 487v25q0 199 12 253q27 128 70 180q44 52 125 52
t134 -59q32 -38 93 -612q10 -94 11 -107l23 -10q26 -51 43 -51q79 -1 79 311t-114 614q-30 80 -66 128q-75 96 -223 96t-205 -84t-70 -223q-4 -41 -7 -93t-4 -60t-5 -50t-20 -78q4 -54 4 -90t-8 -56q4 -8 4 -38t3 -80t5 -76t10 -96q8 -68 11 -95q5 -42 11 -145t29 -178
q23 -74 83 -160t127 -86q112 0 197 38t167 124l19 19q18 18 26 20l18 -19q-14 -51 -65 -96t-115 -73q-137 -60 -240 -60q-149 0 -259 240q-2 25 -13 48t-14 33q-22 62 -45 310t-23 354q0 411 82 626q70 183 282 183q187 -1 274 -103q65 -76 97 -161q32 -86 56 -211
q25 -124 29 -158t10 -78q22 -140 22 -219q0 -338 -152 -338q-28 -1 -58 23t-45 28q-36 -88 -119 -129q-41 -20 -83 -20z" />
    <glyph glyph-name="A" unicode="A" 
d="M438 397q25 0 37 4l10 -4q19 0 19 19q0 428 -80 923q0 6 -4 22t-4 25q-25 -71 -27 -90l6 -12q-23 -23 -60 -277q-37 -255 -49 -311t-34 -130t-21 -128v-12q86 -29 207 -29zM590 44q0 -44 -41 -44q-19 0 -31 10t-12 25q6 12 6 24l-6 41v203q0 27 -108 47t-160 19
q-20 -1 -36 -75t-31 -163t-30 -111q-48 0 -63 25q32 46 62 224q30 179 47 259q19 80 65 349t67 364q65 295 103 295q32 0 42 -14t19 -75q8 -60 28 -278q19 -219 23 -287t19 -98q-4 -62 -4 -106t18 -78l23 -534v-22z" />
    <glyph glyph-name="B" unicode="B" horiz-adv-x="616" 
d="M395 1268q0 70 -51 134t-119 64q-53 0 -53 -88l8 -491l6 -2q72 1 114 75t64 143q23 69 31 87v78zM457 371q0 367 -176 440q-20 -1 -54 -11t-47 -12q10 -300 10 -718l13 -2q63 0 147 64t96 114q12 49 11 125zM193 -12q-80 0 -80 28l10 519l-14 854q0 147 53 147
q140 0 214 -90t73 -242q0 -152 -132 -330q29 -43 67 -93l56 -76q54 -71 64 -125t10 -107l-6 -88q0 -5 6 -23q-19 -144 -53 -202q-35 -58 -77 -90t-110 -62q-14 0 -40 -10t-41 -10z" />
    <glyph glyph-name="C" unicode="C" 
d="M396 47q108 0 157 59q19 0 47 7l10 -11q0 -98 -156 -128q-38 -7 -84 -7t-109 46t-89 102t-51 348t-25 514t13 262q-7 35 -7 66q0 123 88 191t216 69q34 0 76 -22t42 -54q0 -23 -32 -23q-9 0 -25 12q-17 12 -27 13q-10 0 -22 -4q-24 8 -49 8q-25 -1 -61 -11
q-120 -35 -137 -186q-7 -61 -7 -145l6 -145l-18 -148q0 -121 27 -404t55 -326q54 -83 162 -83z" />
    <glyph glyph-name="D" unicode="D" horiz-adv-x="702" 
d="M211 368q0 -92 -4 -202l4 -8v-58h10q77 42 136 118q100 129 139 316q39 188 39 340q0 599 -330 599q-41 0 -43 -23l18 -340q0 -132 16 -392q16 -258 15 -350zM82 1497q0 49 154 49h10q78 0 168 -86t118 -155t36 -165t12 -177q4 -80 14 -101l-4 -55l6 -10l-6 -17l6 -10
q-12 -19 -12 -57t-4 -70t-8 -50q-4 -17 -14 -53t-28 -114q-56 -220 -186 -325t-154 -105t-48 10t-27 31q29 37 32 82l9 180l2 82q0 120 -14 279t-17 198q-9 18 -10 256t-5 264t-16 62q-14 36 -14 57z" />
    <glyph glyph-name="E" unicode="E" horiz-adv-x="497" 
d="M224 -12q-92 0 -106 14t-14 31l19 76v4q-8 41 -8 90l10 209l-12 438l10 407q0 37 -13 109t-14 107l37 57l143 18l7 -6q47 0 55 -12t8 -27q0 -39 -74 -39l-55 4q-45 0 -45 -24l16 -348l-10 -256l-4 -4l12 -7l113 21q11 0 24 -12t13 -23q0 -41 -31 -41l-47 2q-78 0 -78 -39
l15 -172l-7 -12v-416q11 -13 11 -57v-19l123 7q96 0 96 -33q-27 -47 -146 -47h-48z" />
    <glyph glyph-name="F" unicode="F" horiz-adv-x="438" 
d="M156 1436q0 -100 15 -296t15 -296q24 0 69 12t63 12t28 -14t10 -27q0 -25 -42 -31t-86 -10q-42 -4 -42 -24q0 -116 20 -346t19 -344l-6 -11q6 -15 6 -30q0 -35 -45 -35q-35 0 -35 139l2 66q0 103 -13 309t-13 309q0 594 -39 643v13q0 73 203 73q34 0 34 -47
q0 -20 -38 -20l-50 2q-75 0 -75 -47z" />
    <glyph glyph-name="G" unicode="G" horiz-adv-x="774" 
d="M571 463q64 0 64 -86q1 -61 21 -183t20 -182q0 -32 -27 -32q-49 0 -49 45q0 1 1 5t1 5q-20 -6 -52 -29t-48 -28t-48 -7t-47 -11q-133 30 -193 87t-82 179q-38 203 -38 651q0 176 10 250q21 158 57 246q79 198 259 198q61 0 61 -35q0 -25 -30 -25l-58 11q-157 0 -203 -287
q-26 -156 -26 -408q-6 -163 -6 -225t1 -96t5 -87q5 -73 29 -169q24 -97 81 -161q58 -64 159 -64t167 102q0 153 -18 209t-35 55l-82 -8q-47 0 -47 35q0 19 60 32t93 13zM410 -41q-3 1 -4 0h4z" />
    <glyph glyph-name="H" unicode="H" horiz-adv-x="602" 
d="M453 1232q0 -214 15 -662t15 -521q9 -19 9 -31t-12 -32t-25 -19q-29 0 -29 45l2 47q0 315 -20 703l-13 -2l-78 10q-102 0 -145 -25q0 -119 18 -354t17 -354q0 -31 -21 -31q-26 0 -34 24t-11 140q-3 118 -5 254t-5 174q-37 500 -37 934l33 16l27 -22q-9 -76 -9 -152
l17 -416l-2 -81q0 -41 8 -72l240 16l2 4l-19 695q0 8 4 28q39 0 49 -50t9 -266z" />
    <glyph glyph-name="I" unicode="I" horiz-adv-x="477" 
d="M185 10q-94 0 -109 35q0 23 47 23l45 -2q41 0 42 59q0 59 -6 144t-8 169t-11 327q-10 243 -13 349l2 240q0 99 -6 119l-70 -15q-22 0 -22 28t90 48q90 18 133 18t43 -34t-25 -33l-49 2q-35 0 -42 -33q-7 -27 -7 -159q-1 -132 25 -523t26 -588l-2 -106l74 6q53 0 53 -51
l-35 -25l-65 10q-23 0 -47 -24q-46 0 -58 16h-5z" />
    <glyph glyph-name="J" unicode="J" horiz-adv-x="468" 
d="M209 -25q2 0 2 -2zM266 221q0 106 -10 303t-18 521t-29 444l-109 -19q-12 0 -20 10t-8 21q0 51 282 51q14 0 24 -10t9 -22q0 -31 -95 -31h-22l-2 -39q0 -54 12 -162t13 -204t19 -369q18 -272 18 -410l-11 -168q0 -23 7 -37l-15 -32q-4 -73 -55 -148t-111 -119
q-43 0 -43 39q2 18 35 40t39 28q90 90 90 313z" />
    <glyph glyph-name="K" unicode="K" horiz-adv-x="690" 
d="M139 -6q-37 0 -37 94t14 284t13 285l-8 736l-4 8l-15 96q0 43 35 43q17 0 25 -4t16 -34t8 -199l-8 -439h2q42 88 110 258t77 191q111 284 145 284t35 -30q-5 -37 -26 -71t-26 -45t-34 -73q-152 -322 -158 -385l10 -18l-8 -6q69 -176 161 -508t140 -469q-3 -39 -41 -39
l-28 8q-40 237 -122 529t-149 419l-6 -4q-6 -24 -43 -87q-37 -64 -41 -100t-4 -143l10 -452q0 -129 -43 -129z" />
    <glyph glyph-name="L" unicode="L" horiz-adv-x="475" 
d="M197 104q-1 -29 9 -39t41 -10t42 13h76q28 -14 28 -32q0 -40 -28 -40q-7 0 -31 8q-10 -4 -41 -4l-64 2q-11 0 -28 -12t-31 -13q-14 0 -28 13t-15 30l12 93l-20 581l-21 856q0 21 27 21q39 0 39 -37q0 -474 10 -600t10 -156t-4 -80l6 -8q-4 -54 -4 -110l23 -435
q-8 -12 -8 -41z" />
    <glyph glyph-name="M" unicode="M" horiz-adv-x="856" 
d="M682 1587q7 0 16 -10t9 -18q-7 -137 -7 -263t16 -435t17 -415q0 -106 -2 -132t5 -90q7 -65 7 -164t-30 -113v6l-8 -8l-39 16v6q0 13 6 25l-8 18q4 122 4 187l-15 673l4 230q1 35 -3 98t-5 84q-4 -4 -4 -14q-6 -133 -58 -404q-46 -292 -101 -423q-13 -31 -13 -54l6 -10
q-2 -7 -9 -53q-16 -101 -56 -101q-45 0 -48 159q0 26 -6 68t-90 446q-86 404 -98 421q-8 -185 -8 -414l6 -651l10 -195q0 -37 -16 -53q-58 0 -58 107l11 342l-8 415l6 486q0 117 -2 176l39 22q48 -6 180 -655q27 -136 47 -221q45 -197 45 -250q12 31 39 169l29 144
q12 59 56 295t64 335q22 99 25 175l-4 10q6 33 49 33z" />
    <glyph glyph-name="N" unicode="N" horiz-adv-x="772" 
d="M219 1501q0 -51 26 -111q25 -60 35 -92t18 -104t19 -127t36 -148t57 -206t42 -149q8 -36 32 -120t26 -131q14 -21 22 -81t33 -82q13 29 13 98l8 713l-6 317l6 78q0 22 -6 26l6 17q0 126 -8 168q8 28 51 28q33 0 33 -67q-13 -26 -13 -68l2 -69q0 -44 -8 -62l-6 -647
q0 -19 4 -55l-4 -9v-258l4 -77q0 -122 -20 -168v-4l6 -74q0 -60 -52 -60q-36 0 -49 77q-7 36 -8 40q-200 631 -252 922q-2 9 -4 39t-18 47l4 10q-14 76 -20 106t-17 80q-11 51 -33 103q-6 -42 -6 -64t4 -34q-14 -48 -14 -142v-561q0 -98 14 -292t14 -292l-14 -16h-47l-6 16
q4 16 4 82l-23 713v268l15 387l-2 43q0 43 51 43t51 -51z" />
    <glyph glyph-name="O" unicode="O" 
d="M303 1518q-151 0 -151 -607v-80q0 -141 22 -305t44 -266q24 -102 66 -174t95 -72q70 0 102 142q45 200 45 452v49v65t-2 86q-1 60 -4 108q-3 47 -8 114q-6 86 -30 210q-54 278 -179 278zM555 222q0 -56 -22 -114q-21 -58 -65 -104t-94 -47q-50 0 -93 38
q-134 118 -172 537q-15 164 -15 266t9 234q9 131 10 169t2 67q7 189 70 260q39 43 115 43t124 -41q6 -11 36 -49q30 -39 44 -73t33 -169q49 -350 49 -621l-19 -264l4 -8q-16 -69 -16 -124z" />
    <glyph glyph-name="P" unicode="P" horiz-adv-x="540" 
d="M383 1182q0 70 -6 112q-7 42 -35 80q-54 73 -149 131h-37l24 -700l4 -4q25 2 44 23q18 20 22 24q133 133 133 334zM158 -12q-26 0 -27 71l8 367l-16 332q1 228 -5 376t-9 241q-3 94 -19 161q19 29 53 29q73 0 131 -34t94 -89q72 -115 72 -235q0 -121 -48 -261t-133 -175
q-27 -11 -41 -26t-34 -20l17 -674q-1 -31 -9 -47t-34 -16z" />
    <glyph glyph-name="Q" unicode="Q" horiz-adv-x="727" 
d="M154 676v-86q0 -214 61 -370q23 -58 64 -99t94 -41l14 10q4 14 24 15t27 6q65 57 69 191q1 31 1 74t2 62t8 53t6 52v278q-8 20 -8 71q0 50 -4 98t-12 120t-10 95t-5 55q-2 32 -4 48q-2 18 -6 46q-5 38 -25 84q-36 82 -157 82q-139 0 -139 -844zM307 1577q73 0 143 -58
t82 -128q56 -316 56 -797q0 -277 -39 -393q-15 -43 -88 -148q1 -15 9 -38t12 -33q3 -10 7 -52q5 -40 9 -69t23 -53t52 -25q72 0 72 -27q0 -39 -78 -39q-9 0 -33 13t-28 14q-38 17 -58 63t-32 122t-19 98h-94q-152 108 -188 301q-19 103 -19 245l10 342l-2 125q0 537 203 537
z" />
    <glyph glyph-name="R" unicode="R" horiz-adv-x="591" 
d="M178 913q16 0 54 42t52 67t24 83q9 59 9 97q1 38 -5 80t-18 91t-38 81t-61 33v6l-17 -2l-10 -447q0 -88 6 -131h4zM158 1556q84 0 128 -47t60 -101q14 -54 26 -98t13 -79q0 -103 -47 -221t-47 -129q0 -99 80 -403t131 -431q0 -67 -27 -67q-21 0 -35 18t-16 22
q-6 80 -52 222t-58 190q-10 48 -37 194t-48 224l-16 12l-39 -16v-768l4 -51q0 -41 -37 -41q-15 0 -25 10t-10 24l7 11l8 1243v227l-4 37q0 18 41 18z" />
    <glyph glyph-name="S" unicode="S" horiz-adv-x="569" 
d="M471 338q1 -66 -15 -129t-46 -121t-80 -96q-52 -38 -100 -37q-48 0 -67 2q-59 6 -83 49q0 25 22 25q22 1 58 -15t69 -16t71 38t67 123q30 85 30 185t-30 202q-29 103 -73 188t-87 170q-103 202 -103 366t90 254q49 47 115 47q21 -1 54 -17t40 -34l-12 -23q-46 0 -67 21
q-49 0 -84 -37q-66 -67 -66 -163t13 -150t20 -81q7 -28 25 -71t26 -64t34 -69q24 -48 32 -62q8 -13 36 -67q30 -54 35 -64l-2 -8q0 -1 47 -158q31 -122 31 -188z" />
    <glyph glyph-name="T" unicode="T" horiz-adv-x="542" 
d="M317 -12q-21 0 -32 28t-11 54l17 336q-1 108 -15 326t-14 329l2 192q0 211 -35 211l-116 -12q-15 0 -29 10t-14 25q0 21 136 40t216 19q15 0 29 -10t14 -25q0 -30 -39 -30l-76 6q-35 0 -43 -21q15 -129 15 -266l-3 -248q0 -242 29 -348q-6 -30 -6 -59l10 -477
q0 -80 -35 -80z" />
    <glyph glyph-name="U" unicode="U" horiz-adv-x="743" 
d="M119 1532q51 0 51 -150l18 -692q8 -10 14 -100t15 -131q-4 -24 -4 -52q-1 -28 19 -94t52 -130t78 -110q47 -46 84 -46t55 8q18 7 28 17q11 10 17 32t8 34t4 40q2 30 2 36t-1 19l6 68v233l-14 123l-12 367v26l-9 12q9 58 9 117l-19 348q0 17 14 25t31 8l35 -33l-6 -16
l6 -16l-14 -123l20 -369l10 -356l7 -2q-2 -14 -2 -43l6 -144l6 -6l-6 -6l2 -129q0 -173 -45 -255q-45 -81 -148 -81q-57 1 -105 31q-113 72 -149 306q-21 134 -43 175q-1 163 -21 487t-20 488l-14 43q0 13 10 27t25 14z" />
    <glyph glyph-name="V" unicode="V" horiz-adv-x="669" 
d="M362 236l-4 -5h7zM375 -18q-7 0 -31 8q-37 149 -106 606q-68 457 -104 671t-60 259q6 22 40 22t44 -74q24 -119 87 -562q64 -443 117 -670q10 60 16 117t65 564t59 593v8q30 30 51 30l12 -8h-4l21 -16q0 -43 -14 -127t-15 -127q-21 -38 -79 -584t-60 -665
q-17 -45 -39 -45z" />
    <glyph glyph-name="W" unicode="W" horiz-adv-x="950" 
d="M655 236q-4 0 -4 -3zM348 6q0 -7 -12 -20t-26 -13t-26 16q-13 16 -18 65q-4 49 -5 94q-2 73 -21 179q-20 105 -82 627q-61 523 -84 559q16 27 40 27t39 -38t23 -98q8 -61 11 -117q5 -56 7 -113t10 -136t46 -350q40 -271 53 -379h4q-1 97 15 223t19 157q3 33 13 79t11 72
q3 26 9 152q6 125 10 163q4 37 10 83t7 71l-2 37q0 26 29 40q61 0 61 -36l-10 -27q0 -228 85 -544t85 -533l6 -4q5 24 11 123t32 306t32 292q4 85 26 264t22 276l-2 39q0 49 53 49q13 1 26 -9t13 -27t-22 -35q2 -4 2 -15t-8 -43q-14 -120 -40 -452t-68 -570
q-40 -238 -40 -387v-30q0 -24 -7 -37t-30 -13q-48 0 -74 315q-7 95 -63 364t-72 397l-6 4l-2 -4q-7 -35 -8 -103t-18 -148q-16 -80 -40 -380q-24 -301 -24 -412z" />
    <glyph glyph-name="X" unicode="X" horiz-adv-x="565" 
d="M287 635h-4q0 -2 4 -2v2zM430 27q-37 0 -37 26q1 26 -3 58q-4 33 -8 55t-30 168t-63 295q-9 -15 -66 -281t-63 -307t-20 -47t-24 -6t-22 8t-12 23t32 110q32 94 67 271t43 213t12 55t11 61q7 43 7 103t-12 134t-37 180q-25 104 -31 134t-29 102t-24 113q15 27 33 27
t28 -10t10 -21q2 -11 3 -30t7 -55t40 -180t47 -222q39 104 61 226t24 138q4 16 9 57q5 40 16 83q12 44 44 44t32 -20q-1 -20 -13 -50t-26 -79t-44 -200q-45 -232 -56 -296q-12 -65 -12 -116l108 -553l-4 -11q0 -29 18 -83t17 -74t-11 -32q-10 -11 -22 -11z" />
    <glyph glyph-name="Y" unicode="Y" horiz-adv-x="505" 
d="M289 -25q-29 0 -29 50l10 395l-14 166q0 33 -12 96t-13 87q0 37 -17 105t-50 240q-34 172 -62 268t-28 122q0 42 41 42l24 -16q5 -83 53 -323t76 -277q32 94 44 236t20 214q18 160 57 160q31 0 31 -22q0 -16 -8 -44t-12 -51q-4 -22 -22 -131q-20 -109 -38 -218t-18 -245
l6 -67l-13 -31v-16l15 -246q0 -277 -4 -414l6 -6l2 -14q0 -23 -12 -41t-33 -19z" />
    <glyph glyph-name="Z" unicode="Z" horiz-adv-x="471" 
d="M352 -10l-243 -8q-21 0 -31 26q44 77 65 177t34 222t26 181q65 490 92 672t29 239l-138 -10q-92 0 -92 41l15 16q16 -4 49 -4l192 21q33 0 33 -37q-21 -49 -29 -155t-16 -162t-57 -434t-82 -580q-3 -22 -25 -74t-22 -82l133 10q86 0 86 -41z" />
    <glyph glyph-name="bracketleft" unicode="[" horiz-adv-x="514" 
d="M231 1458q1 -295 -25 -675t-34 -537t-20 -195v-49l-9 -16q7 -1 67 -4q144 -7 144 -50q0 -20 -46 -20t-132 14q-88 14 -88 39q0 85 22 253t21 295q1 127 27 463t26 505q0 11 -9 25t-11 22l41 24q235 0 235 -41q0 -10 -10 -16t-22 -6l-115 12q-62 0 -62 -43z" />
    <glyph glyph-name="backslash" unicode="\" horiz-adv-x="559" 
d="M82 1505q0 27 31 27q13 0 23 -41t70 -271t132 -548q72 -317 104 -443t33 -198q0 -24 -20 -37q-25 2 -34 26t-13 38q-4 12 -7 34q-4 22 -6 29l-41 178q-19 83 -59 249t-84 354q-45 188 -67 304t-42 200q-20 82 -20 99z" />
    <glyph glyph-name="bracketright" unicode="]" horiz-adv-x="516" 
d="M78 1511q0 41 235 41l41 -24q-2 -8 -11 -22t-9 -25q0 -161 28 -485t27 -450q1 -126 21 -308t20 -273q0 -25 -88 -39t-132 -14q-46 0 -46 20q0 43 144 50q60 3 67 4l-8 16v49q-16 35 -39 489q-22 454 -26 576q-4 124 -10 210t-5 120q0 34 -7 44t-28 9l-115 -8
q-59 0 -59 20z" />
    <glyph glyph-name="asciicircum" unicode="^" horiz-adv-x="319" 
d="M117 1575q0 57 39 57q22 0 36 -14t15 -35q0 -45 -41 -45q-49 0 -49 37z" />
    <glyph glyph-name="underscore" unicode="_" horiz-adv-x="565" 
d="M322 1645q22 0 40 -12q18 -13 17 -35q0 -22 -19 -38t-43 -16l-32 17l-15 26q0 58 52 58zM145 920q0 -267 25 -457q0 -219 56 -307q28 -42 71 -72q65 0 94 50q43 76 43 196t-20 250t-33 290q-13 158 -17 190t-6 66q-6 58 -16 108t-40 95q-29 45 -85 45q-72 0 -72 -368v-86
zM100 1090q0 284 99 323q37 0 87 -16t50 -35q45 -55 75 -267t35 -352l5 -6q0 -44 13 -130t13 -130v-178q-13 -28 -21 -96t-20 -99q-24 -65 -119 -65q-165 0 -180 299q-1 33 -19 288q-18 254 -18 464z" />
    <glyph glyph-name="grave" unicode="`" horiz-adv-x="550" 
d="M174 1618q-70 0 -70 41q0 36 13 45q74 0 92 -23q3 -1 25 -9q204 -68 204 -107q0 -7 -8 -12t-14 -5t-103 34t-106 40q-20 -4 -33 -4z" />
    <glyph glyph-name="a" unicode="a" horiz-adv-x="667" 
d="M223 406q0 -20 62 -38t153 -18h21q-13 40 -13 92v47q0 127 -32 370t-33 362q-107 -529 -133 -653t-25 -162zM249 315q-35 0 -38 -2t-4 -7t-2 -7l-4 -41q-4 -52 -19 -125q-28 -143 -59 -143q-13 0 -27 11t-14 24q26 77 54 233t35 194t26 156q19 117 25 154t35 173t44 274
q15 137 25 155l28 -2q25 0 37 12q13 0 25 -8t12 -23q0 -98 25 -379q25 -282 39 -364t34 -162q19 -80 19 -121l-10 -28q0 -45 17 -135t17 -126t-16 -46q-41 0 -51 12t-10 38t-4 66q-4 38 -6 61q-4 23 -12 73t-11 63q-39 10 -92 10l-54 -2q-29 12 -64 12z" />
    <glyph glyph-name="b" unicode="b" horiz-adv-x="530" 
d="M205 739q135 0 135 273q0 37 -6 127l-4 4q-13 170 -103 170q-45 0 -45 -269l2 -110l-2 -143v-25l8 -27h15zM358 279v3q1 18 1 35q0 189 -59 287q-38 64 -112 64q-10 -152 -10 -270t6 -150q-12 -22 -12 -98l2 -93q76 -1 130 71t54 151zM121 1329q0 53 43 53q28 0 106 -24
t78 -43q-2 -4 -2 -6q38 -61 51 -121t13 -182t-33 -211h2q-7 -19 -31 -53t-29 -44q39 -30 63 -88t30 -103t8 -108l2 -53v-29q0 -196 -122 -290q-65 -50 -157 -50q-38 0 -40 44q-1 19 -1 63l21 432l-4 182l12 490q0 78 -2 119l-8 10v12z" />
    <glyph glyph-name="c" unicode="c" horiz-adv-x="550" 
d="M374 35q40 0 60 18q31 0 31 -22q1 -15 -27 -35t-51 -29h-68q-13 7 -48 18t-65 33q-110 81 -110 428v234q0 273 20 374q40 205 109 259q17 15 55 29t52 22h82q2 0 6 -1t5 -1q28 -7 28 -29l-27 -30h-86q-42 1 -73 -39q-53 -67 -71 -197q-18 -129 -18 -229l-4 -11l-8 -413
q0 -305 130 -362q38 -17 78 -17z" />
    <glyph glyph-name="d" unicode="d" horiz-adv-x="653" 
d="M201 1262q-23 0 -23 -410t23 -733l-2 -39l8 -4l6 -27h63q12 17 30 31t26 20q145 131 145 492l-2 74l-10 206q-4 116 -71 246q-30 62 -82 103t-111 41zM141 -10q-18 0 -18 55q-8 159 -8 356l4 484q0 213 -8 385q-17 14 -17 35t17 36t31 15t32 -16t26 -22q9 -4 43 -10
q35 -6 57 -16q22 -12 73 -60t69 -61l-2 -4q2 -13 30 -53t36 -57q33 -89 33 -244l-2 -96q0 -81 10 -99q-13 -67 -27 -220t-63 -246q-49 -94 -174 -162h-142z" />
    <glyph glyph-name="e" unicode="e" horiz-adv-x="491" 
d="M304 717q-27 0 -40 16l-67 10h-9l-10 -10v-6q4 -53 4 -162l-4 -291q0 -204 28 -226q18 -15 66 -15l76 4q60 0 60 -27q0 -37 -89 -37h-169q-38 0 -41 43l2 52l-7 8q15 41 15 84l-10 270l14 617l-8 245q0 58 59 58q23 0 33 -13q7 -2 59 -8q126 -14 129 -51q0 -16 -39 -39
q-113 37 -166 39l-10 -12q2 -29 2 -88l-8 -318q0 -57 29 -57l69 4q78 0 80 -37q0 -53 -48 -53z" />
    <glyph glyph-name="f" unicode="f" horiz-adv-x="526" 
d="M111 1014v-2q-1 -2 -3 -2t-2 2t3 2h2zM145 1325q0 39 75 39q38 0 132 -15t94 -44q0 -35 -73 -35q-37 20 -84 20t-54 -2t-9 -5t-5 -15t-8 -21l-20 -432v-72q0 -7 35 -7q102 2 102 -31q0 -17 -16 -28t-33 -11l-68 12q-37 0 -37 -100v-232l12 -293q0 -82 -49 -82l-41 31
q19 197 19 416q0 218 14 494t14 413z" />
    <glyph glyph-name="g" unicode="g" horiz-adv-x="688" 
d="M168 610q0 -82 6 -131q16 -25 21 -81t9 -114q4 -57 16 -113t53 -91t112 -35q123 0 123 327v150q-21 21 -72 21l-39 -2q-49 0 -49 24q0 35 49 35q189 0 189 -41l-23 -153l8 -314q-106 -106 -209 -106q-136 0 -178 56t-68 260q-24 204 -24 290t10 191t16 199t21 158
q49 216 232 216q63 0 63 -29q0 -15 -14 -23t-27 -8l-39 4q-186 0 -186 -690z" />
    <glyph glyph-name="h" unicode="h" horiz-adv-x="606" 
d="M352 735v4l4 -4h-4zM412 1374q7 0 43 -12q0 -160 13 -478t13 -514q0 -194 13 -370l-13 -23q-2 21 -63 21q-10 455 -10 549l-5 8l7 18q0 32 -7 76l-32 8q-18 -6 -41 -6l-131 21l-21 -8l-6 -258l6 -9l12 -342q0 -53 -34 -53q-45 0 -45 123l4 375q0 186 -6 200q10 20 10 136
l-15 479q0 15 10 27t25 12q41 0 41 -119l-8 -500q0 -24 164 -24q38 1 56 15t18 80t-14 254t-13 283q0 13 11 22t18 9z" />
    <glyph glyph-name="i" unicode="i" horiz-adv-x="550" 
d="M266 0q-30 0 -39 20l-34 -2q-44 0 -56 21q-1 13 11 21t16 14h59l8 8l7 43l-15 448l10 478q0 139 -10 237q-20 6 -61 6l-49 -4q-39 0 -39 35q0 9 18 17t31 8q285 0 285 -62q0 -6 -5 -16l-47 -4q-16 12 -59 12l-10 -6q6 -18 6 -109l-6 -487l14 -449l-2 -63q0 -48 6 -57
l-2 -5q0 -20 45 -20l60 2q61 0 61 -29q0 -17 -13 -29t-32 -12l-68 7q-16 1 -38 -11t-52 -12z" />
    <glyph glyph-name="j" unicode="j" horiz-adv-x="573" 
d="M111 1335q0 9 17 17t50 8q34 0 176 -29t142 -57t-33 -27l-111 21q-18 0 -18 -41l20 -850v-225q-12 -27 -12 -77q0 -49 -13 -101t-37 -104t-66 -87t-93 -35h-14l-47 47l-2 8q0 9 74 57t81 56q33 37 49 113t17 143l-19 1088l-12 22q-9 4 -50 10q-99 13 -99 43z" />
    <glyph glyph-name="k" unicode="k" horiz-adv-x="677" 
d="M150 -33q-30 1 -38 9q-10 8 -10 34v385l19 258l20 396v284q11 23 33 23t33 -12q12 -12 12 -27q-18 -33 -18 -101t-4 -213t-4 -217q19 8 159 282t154 275q52 0 55 -34q-128 -188 -219 -379l-4 -131q0 -93 78 -366t126 -339q50 -66 50 -90q0 -41 -35 -41q-47 0 -115 184
q-68 185 -114 381t-49 267l-5 8q-6 -15 -32 -67t-46 -98t-20 -120l-10 -147v-262l14 -117q0 -25 -30 -25z" />
    <glyph glyph-name="l" unicode="l" horiz-adv-x="497" 
d="M387 41q11 1 21 -11t10 -24q0 -23 -33 -26q-53 2 -170 2l4 -2l-76 -7q-29 0 -34 47q4 20 4 68l12 1092l10 135q0 14 15 14l34 -8l-2 -162l2 -446q-6 -168 -6 -172l4 -174l-6 -17l2 2l-2 -16q0 -17 6 -29l-6 -196v-13q0 -32 2 -42t10 -9l193 -6h6z" />
    <glyph glyph-name="m" unicode="m" horiz-adv-x="1054" 
d="M836 1149h-2l-3 -2l5 -2v4zM950 -46q0 -14 -12 -37t-33 -23q-41 0 -41 131q0 427 -6 521t-14 151q-8 58 -8 89l8 254q0 72 -8 97q-40 -32 -246 -863q-2 -7 -6 -42t-15 -76t-43 -41q-58 -1 -59 75q0 76 -106 500t-142 459q-5 -110 -25 -460t-20 -512t2 -189
q-9 -27 -43 -27q-7 0 -21 11t-14 18q0 216 32 646t32 646l-12 39q0 31 43 31t51 -28t10 -56q2 -26 7 -60q7 -34 53 -138t56 -141t34 -123t36 -144l27 -54q5 -34 31 -136t28 -185q24 35 129 423t115 439t14 83q5 32 19 74t49 42q13 0 32 -12t19 -25q0 -858 27 -903l-4 -215
q0 -143 12 -184t12 -55z" />
    <glyph glyph-name="n" unicode="n" horiz-adv-x="862" 
d="M707 1341q21 0 33 -19t12 -40v-137l-11 -17q0 -160 -22 -620t-43 -502q-5 -1 -19 -5t-16 -4v-1l-1 1q-19 -5 -29 -5q-9 0 -17 14t-12 35q-4 22 -9 29l2 6q-13 84 -53 194t-53 148q-7 9 -55 153q-184 571 -232 617q-16 -63 -16 -144l4 -161l-4 -99q0 -23 8 -143h-6
q0 -341 14 -377v-184q8 -14 8 -36q0 -48 -38 -48q-43 0 -43 110l8 134l-13 589l13 363v36q-1 27 1 36t5 36t31 50l6 -7l20 5q23 -8 28 -32l5 -22q35 -146 147 -407t136 -335t54 -208t81 -219l4 6q47 447 47 1116l-4 51q0 43 29 43z" />
    <glyph glyph-name="o" unicode="o" horiz-adv-x="673" 
d="M326 20q81 0 119 114q55 163 55 429l-23 484l-8 16l4 10q0 89 -50 155t-122 66h-86q-17 0 -30 -182t-17 -203l-10 -192l4 -162q0 -195 44 -371q16 -66 48 -115t72 -49zM334 -39q-240 0 -240 754q0 291 40 505q30 156 91 156q15 0 27 -11t34 -19t58 -14q38 -7 54 -10
q41 -7 79 -79q86 -146 86 -442l-4 -10l4 -244q0 -461 -148 -561q-36 -25 -81 -25z" />
    <glyph glyph-name="p" unicode="p" horiz-adv-x="522" 
d="M350 1079q0 33 -4 77t-31 80q-28 36 -92 36q-27 0 -36 -13t-9 -42l10 -295l-8 -193l13 -20q150 0 157 315v55zM123 887q0 365 -12 397q20 51 30 51h90q25 -1 67 -23t67 -44q51 -47 51 -231q0 -185 -15 -221q-33 -80 -83 -115q-49 -35 -138 -62v-244l17 -399
q0 -37 -39 -37l-29 16q-23 123 -23 295l9 381q-13 30 -13 47q21 35 21 189z" />
    <glyph glyph-name="q" unicode="q" horiz-adv-x="688" 
d="M154 575q0 -589 159 -589l60 12q41 0 76 116t51 232t16 168v358q0 443 -225 443q-65 0 -97 -138q-47 -206 -47 -475l7 -38v-89zM520 -434q-106 0 -135 33q1 91 -21 201t-26 132q-106 21 -157 79q-87 99 -87 722t203 635q14 -6 44 -14t59 -20q29 -14 63 -48t65 -107
q50 -116 50 -362v-96q0 -151 -23 -341q-45 -371 -121 -419q-3 -2 -21 -10t-18 -21q1 -77 23 -176t26 -119q15 -15 59 -13t44 -28q0 -28 -27 -28z" />
    <glyph glyph-name="r" unicode="r" horiz-adv-x="550" 
d="M184 1313q-12 0 -18 -19t-6 -34l8 -496l4 -4q80 0 126 170q24 89 24 172t-21 139q-27 72 -117 72zM102 1288q0 78 45 78q100 0 165 -50t65 -149v-149q0 -79 -80 -226q-27 -50 -27 -54t78 -324t81 -329q4 -10 20 -42t16 -55t-23 -23l-30 10q-48 54 -104 394t-95 340h-8
q-45 0 -45 -29q0 -112 13 -372t22 -292l-15 -34h-30l-15 16q-33 887 -33 1290z" />
    <glyph glyph-name="s" unicode="s" horiz-adv-x="489" 
d="M317 1313v-2h2q0 2 -2 2zM143 1112q0 -42 2 -60q1 -18 7 -42t8 -34t12 -42t10 -35l15 -37q20 -36 52 -90t65 -113q33 -58 54 -140q21 -81 21 -157t-6 -120q-14 -103 -66 -183q-52 -79 -151 -79l-10 -5q-60 11 -66 50l10 16l74 -14q94 0 138 153q24 80 24 168t-26 168
q-26 78 -61 143l-72 130q-87 157 -87 309q0 78 28 149q51 131 134 131q22 0 50 -18t28 -39q0 -16 -27 -16l-43 12q-62 0 -98 -107q-18 -56 -19 -98z" />
    <glyph glyph-name="t" unicode="t" horiz-adv-x="544" 
d="M297 1161q0 -109 34 -509t34 -601q0 -15 -12 -27t-27 -12l-23 17l-4 149l4 72q0 28 -8 49q-1 174 -25 507t-26 492q-161 0 -172 39q9 23 39 23l278 -19l37 2q37 0 37 -26q0 -13 -15 -23t-30 -10l-111 14l-10 -12l4 -8q-4 -8 -4 -117z" />
    <glyph glyph-name="u" unicode="u" horiz-adv-x="651" 
d="M338 25q95 0 120 429q2 29 10 277t7 598l-4 37q-1 23 29 23q30 1 36 -13t5 -122q0 -108 -13 -158q2 -4 2 -13l-10 -163l2 -41q-4 -52 -6 -140t-4 -244q-8 -396 -114 -494q-66 -61 -156 -10q-40 22 -66 55q-26 32 -42 212t-22 578t-16 483l13 29q47 -6 47 -113l6 -543
l22 -434q0 -233 154 -233z" />
    <glyph glyph-name="v" unicode="v" horiz-adv-x="714" 
d="M301 1106v-4h-2q0 4 2 4zM358 141l-2 -4l2 -4v8zM625 1369q0 -19 -5 -49t-14 -68q-10 -38 -14 -60t-34 -156t-42 -207q-11 -71 -24 -205t-19 -178q-5 -44 -25 -120q-27 -103 -31 -164q-4 -62 -17 -117q-16 -70 -64 -70l-23 19q0 334 -182 1136q-3 14 -29 107t-26 102
t9 18t20 9t23 -18t20 -46t14 -55t11 -55t13 -56t19 -82t21 -98t22 -106t18 -96q7 -36 18 -105t16 -97q4 -28 16 -104t14 -96t16 -106q12 -86 14 -99q42 139 70 393t82 522t63 322l27 11q23 -7 23 -26z" />
    <glyph glyph-name="w" unicode="w" horiz-adv-x="847" 
d="M596 178v-2h2q0 2 -2 2zM592 -68q-35 0 -35 91q-4 54 -22 154t-22 131t-20 225q-40 485 -75 520q-21 -231 -21 -283q-1 -52 -9 -138t-29 -222q-25 -160 -31 -221q-23 -232 -64 -232q-32 -1 -48 91t-26 262t-14 204t-22 156t-22 172t-6 125q-4 76 -10 166t-38 178
q10 16 28 16t30 -16t14 -63q2 -46 4 -90t46 -393q42 -348 46 -534q6 -15 10 -55t12 -55h2q22 150 28 196t26 190t26 320t18 255t11 106l37 16q13 0 24 -8t11 -17q0 -10 -5 -20q94 -318 114 -737q7 -160 36 -236q27 76 43 358t16 393q-1 111 13 217t14 144t-8 50q0 32 41 32
q17 0 23 -4t5 -38q0 -34 -10 -70l4 -13q-18 -81 -18 -145t4 -70l-12 -41l6 -14q-6 -11 -6 -19t6 -44l-6 -9q-1 -75 -17 -323t-21 -286t-15 -81t-11 -67q0 -224 -55 -224z" />
    <glyph glyph-name="x" unicode="x" horiz-adv-x="518" 
d="M178 45q0 -51 -31 -51q-38 0 -38 24q0 100 57 319t57 297q-1 78 -55 334t-74 279l2 15q0 13 -9 29t-9 24t14 14t26 6q12 -1 26 -25t16 -98q26 -68 52 -204t42 -191q13 27 33 165t29 251t22 117q4 1 16 3t17 3l18 -25q-33 -49 -33 -180l2 -25l-2 -2q-6 -60 -40 -224
t-35 -255q0 -33 53 -273t62 -262q8 -22 20 -42q12 -19 12 -35q0 -29 -31 -29q-14 0 -26 6q-92 375 -115 498q-23 -34 -45 -214t-37 -224q4 -8 4 -25z" />
    <glyph glyph-name="y" unicode="y" horiz-adv-x="561" 
d="M309 -31q-7 0 -17 8t-13 15q20 50 20 358q1 60 -7 171t-9 145l-13 26l6 25q-26 60 -112 302t-88 288l28 22q20 -3 60 -131t78 -255q38 -128 55 -132l8 37l-4 10q15 18 39 146t53 242q28 114 54 114t26 -22q0 -29 -48 -189t-68 -250q-21 -89 -21 -176q10 -25 10 -35
l-12 -59l16 -187l2 -325q0 -148 -43 -148z" />
    <glyph glyph-name="z" unicode="z" horiz-adv-x="538" 
d="M115 -4q-31 0 -31 33t42 183t65 267q24 117 38 173t59 196q99 311 99 455l-192 -13q-13 0 -21 10t-8 23q0 33 227 33q51 0 51 -33q0 -71 -50 -225t-50 -183q-11 -56 -62 -227q-128 -426 -130 -625q20 -4 59 -4l86 7q59 0 59 -27t-47 -27l-121 6q-22 0 -44 -11t-29 -11z
" />
    <glyph glyph-name="braceleft" unicode="{" 
d="M37 758q0 16 16 18q51 0 51 96l-14 433q0 115 36 177t95 62q22 0 50 -11t28 -24q0 -22 -33 -22l-41 8q-73 0 -73 -199v-252l6 -157q0 -49 -10 -80t-44 -49q34 -18 44 -48t10 -79l-6 -211v-223q0 -199 73 -199q59 0 67 -8t7 -19q-1 -22 -69 -22t-104 62t-36 177l6 215
l8 242q0 89 -59 94q-8 3 -8 19z" />
    <glyph glyph-name="bar" unicode="|" horiz-adv-x="514" 
d="M160 -88q-26 0 -30 3t-3 53t13 232q12 180 12 310t16 466q16 338 16 430v98q4 48 41 48q13 0 13 -22q0 -190 -20 -578t-19 -598q0 -210 -6 -303v-49l-7 -70q0 -20 -26 -20z" />
    <glyph glyph-name="braceright" unicode="}" 
d="M299 736q0 -16 -16 -19q-52 0 -52 -96l15 -433q0 -115 -36 -177t-95 -62q-25 0 -51 8t-27 20q0 23 33 23l41 -2q73 0 73 199v252l-6 157q0 50 10 80t43 49q-33 17 -43 47t-10 80l6 211v223q0 199 -73 199h-31q-43 0 -43 21q1 12 27 20t51 8q59 0 95 -62t36 -177l-6 -215
l-9 -242q0 -89 60 -94q8 -2 8 -18z" />
    <glyph glyph-name="asciitilde" unicode="~" horiz-adv-x="653" 
d="M500 1200q20 0 32 -22t11 -56q0 -34 -33 -68q-33 -32 -73 -32t-77 22t-56 40q-19 20 -52 59l-14 6h-37q-3 -12 -21 -25q-18 -14 -18 -26t10 -47l-22 -31q-13 0 -26 11t-13 24q0 63 32 104t93 41q66 -34 81 -45q15 -30 40 -55t44 -25t25 2l14 -4q5 15 26 27t21 49l-12 39
q5 12 25 12z" />
    <glyph glyph-name="exclamdown" unicode="&#xa1;" horiz-adv-x="329" 
d="M225 0q1 -27 -23 -27q-24 -1 -46 17t-21 39l15 321l-5 350v492l2 8h27l-6 -10q16 -39 16 -121l-2 -90q0 -163 22 -489t21 -490zM211 1495q1 -32 -15 -54t-41 -22t-46 22t-21 42q26 52 59 55q10 1 13 10q51 -3 51 -53z" />
    <glyph glyph-name="cent" unicode="&#xa2;" horiz-adv-x="651" 
d="M145 788q0 -391 162 -391l8 4q0 149 -32 469q-13 215 -33 291q-40 -7 -66 -87t-22 -97q-17 -140 -17 -189zM330 203v127q-116 47 -144 73q-56 52 -65 109q-27 120 -27 330q0 312 164 401l-10 127q0 66 26 66l13 -9q-2 -17 -2 -65t10 -123q8 -3 43 -14t63 -21t52 -28
q24 -20 24 -44t-18 -24q-19 0 -35 24t-22 31q-6 5 -30 13t-32 18h-37l-2 4q1 -131 31 -384t30 -384l-2 -29q0 -18 17 -32q78 0 127 57q20 23 47 63q22 -1 22 -39q1 -38 -71 -81t-117 -43h-18l-2 -105l6 -194q-1 -12 -9 -15t-16 2t-8 11l-4 -2q-4 114 -4 180z" />
    <glyph glyph-name="sterling" unicode="&#xa3;" horiz-adv-x="757" 
d="M82 50q0 18 22 34t56 31t41 20q37 27 54 103t17 147q0 72 -18 156t-50 190t-44 158l-10 -2q-11 -1 -20 7t-9 21q0 29 26 29l-24 291q0 84 17 181q34 190 104 190h65q44 0 94 -80t50 -127l-19 -21q-26 0 -36 22t-11 25v37q-3 4 -13 36t-28 32q-31 31 -63 31l-17 -7
l-16 -14q-32 0 -54 -108t-22 -164v-84q10 -28 12 -88t4 -103t17 -43q35 0 107 14t104 13q32 0 33 -27q0 -32 -25 -32q-121 0 -219 -19q7 -15 11 -41t5 -31t9 -26t8 -29q0 -55 41 -188t41 -192t-7 -93t-25 -86t-24 -70q50 -1 148 -23t149 -22q50 0 90 17l29 -21
q0 -45 -96 -45l-94 6l-7 -4q-38 23 -145 35l-35 4q-55 0 -93 -14t-99 -49q-31 6 -31 23z" />
    <glyph glyph-name="currency" unicode="&#xa4;" horiz-adv-x="868" 
d="M211 715q0 -32 4 -56q-6 -25 -6 -79q0 -120 53 -168q0 -66 52 -98t112 -31q113 0 169 94t73 203q18 110 18 188t-21 192t-53 134q-18 0 -28 14t-11 33q-21 29 -63 46t-76 17t-85 -42t-54 -68l18 -19q0 -45 -29 -43q-13 0 -18 -8q-18 -26 -36 -152t-19 -157zM383 1264
q113 0 221 -74q13 2 34 36t46 69q25 34 49 34l29 -31q-2 -16 -48 -74t-46 -74t45 -154t45 -238q0 -98 -34 -214t-34 -146t20 -61q20 -30 38 -53q20 -23 20 -36q0 -29 -27 -29q-55 0 -55 39q-39 70 -43 76q-93 -103 -244 -103q-49 -1 -97 27t-83 68q-12 0 -23 -25
q-35 -74 -65 -74q-25 0 -33 13t-8 39q0 4 42 50t48 66q-35 57 -35 161t5 191q5 88 23 193t46 135q0 21 -49 73t-49 64q-1 23 23 23t42 -16q18 -17 37 -43q18 -26 29 -35q8 7 63 65t68 58z" />
    <glyph glyph-name="yen" unicode="&#xa5;" horiz-adv-x="942" 
d="M465 16q-41 0 -41 25q6 13 16 125t11 141l16 467q0 11 -4 23q-98 0 -256 -11q-19 11 -35 39l8 27q162 0 293 8q4 31 4 94q0 27 -22 27l-148 -8q-114 0 -114 37l14 22l160 -2q98 0 110 14v39q-24 13 -100 151q-77 138 -165 290t-138 192v31q24 8 32 8q8 1 30 -21t48 -58
t48 -68t45 -68t28 -43q1 -18 41 -77q40 -60 60 -97q80 -149 102 -152q22 44 38 99q16 54 36 116q18 62 36 120t50 159t50 123q16 22 33 22q37 0 37 -30q-40 -94 -93 -277t-81 -258q0 -38 -32 -103t-33 -95q26 -13 51 -13l221 10q11 0 37 -43q-2 -26 -151 -26h-158l-4 -111
h227l39 2q43 0 43 -45q0 -11 -13 -21t-24 -9h-8l4 2q-30 8 -37 8h-227l-8 -4q1 -109 -15 -327t-16 -327l2 -53q0 -74 -47 -74z" />
    <glyph glyph-name="brokenbar" unicode="&#xa6;" horiz-adv-x="514" 
d="M164 -47q-12 0 -16 3t-3 13l11 400l4 192q0 49 14 57t23 9q10 1 13 -1t3 -22l-10 -336q0 -128 -6 -176v-49l-7 -70q0 -18 -6 -19q-8 -1 -20 -1zM196 858q-18 0 -22 3t-4 13l14 613q0 37 10 51t31 14q13 0 13 -22l-11 -316q0 -157 -6 -217v-49l-6 -69q-1 -21 -19 -21z" />
    <glyph glyph-name="section" unicode="&#xa7;" horiz-adv-x="489" 
d="M336 514q0 60 -20 114t-44 91q-24 36 -62 91q-39 55 -58 87q-25 -61 -25 -125q-1 -64 19 -119t42 -89t62 -88t59 -85q27 63 27 123zM143 1082q0 -72 38 -141q38 -70 143 -211q65 -86 65 -192t-47 -184q31 -68 31 -118q1 -50 -9 -95t-28 -91t-51 -76t-65 -31t-60 17
t-27 40q0 16 27 16l43 -12q82 0 110 133q6 29 6 81t-37 124q-37 73 -144 230q-64 94 -64 206t45 183q-29 66 -29 120t10 99t27 91q18 47 51 77t65 30q31 0 59 -18t28 -39q0 -16 -27 -16l-43 12q-62 0 -98 -107q-18 -56 -19 -128z" />
    <glyph glyph-name="dieresis" unicode="&#xa8;" horiz-adv-x="776" 
d="M201 1006q-1 -17 -17 -26t-34 -9t-28 17q-11 16 -11 34q-1 18 15 34t34 17q41 0 41 -67zM571 1026q-1 18 15 33q16 16 34 16q18 -1 32 -17t14 -32q0 -47 -54 -47q-16 1 -28 15t-13 32z" />
    <glyph glyph-name="copyright" unicode="&#xa9;" horiz-adv-x="1157" 
d="M788 1275q0 -28 -26 -28q-36 0 -73 82q-15 31 -43 57t-69 25q-41 0 -74 -29t-51 -70q-18 -42 -30 -102t-18 -108q-4 -48 -8 -106t-7 -78l4 -9q-8 -27 -8 -59v-44q1 -232 23 -304t47 -105v-6q24 -27 37 -39q12 -12 42 -28q30 -15 66 -15t69 17q33 16 64 54t45 38
q31 0 31 -46q1 -46 -75 -84t-115 -38t-65 6t-40 12q-16 6 -44 22q-28 15 -42 21q-81 102 -99 218t-18 213v122q-1 139 15 243q16 105 28 145q35 113 87 169q51 56 130 56q43 0 73 -10t87 -87t57 -105zM997 893q-1 45 -19 133t-20 98q-64 400 -286 553q-10 10 -20 15t-20 12
q-47 33 -91 33q-240 0 -329 -383q-42 -185 -42 -414q0 -82 8 -195t11 -167t6 -92q22 -284 137 -366q86 -63 196 -63q209 1 307 109q97 108 142 299q-2 4 -2 10l22 113v305zM522 1788q154 0 266 -114q110 -114 170 -286q107 -304 107 -632q0 -754 -500 -754q-265 0 -365 171
q-62 106 -82 354t-20 355t4 174q21 411 176 614q90 118 244 118z" />
    <glyph glyph-name="ordfeminine" unicode="&#xaa;" horiz-adv-x="692" 
d="M558 393q0 -7 -133 -13t-184 -5q-51 -1 -65 9t-14 26q0 6 134 12t198 6t64 -35zM263 892l74 -16q85 -8 99 -14h21l-98 420q-56 -250 -96 -390zM567 540q0 -36 -16 -46q-41 0 -51 12t-10 38t-4 66q-4 38 -6 61q-4 23 -12 73t-11 63q-39 10 -92 10l-54 -2q-14 6 -64 12
l-52 -175q-36 -134 -46 -144q-9 -10 -27 4t-18 27q41 67 185 672q15 137 25 155l28 -2q25 0 37 12q13 0 25 -8t12 -23l134 -679q17 -90 17 -126z" />
    <glyph glyph-name="guillemotleft" unicode="&#xab;" horiz-adv-x="741" 
d="M256 696q0 28 48 141t106 243q63 142 89 239q27 97 58 102l27 -20q-18 -119 -137 -357t-119 -344q0 -16 141 -304t174 -343l19 -14q-2 -11 -11 -25t-18 -14l-27 4h-4q-32 47 -69 131t-48 107l-102 213q-5 11 -21 43t-24 51q-6 19 -44 69t-38 78zM464 -35q-9 -1 -21 13
t-26 38t-24 42t-22 43t-36 70t-139 272q-114 227 -114 247t58 164t124 310q67 165 78 194v2q40 106 57 106q38 0 41 -28q-30 -46 -58 -118t-53 -139q-27 -67 -99 -269t-85 -220q5 -74 271 -536q88 -154 88 -166t-16 -18q-16 -7 -24 -7z" />
    <glyph glyph-name="logicalnot" unicode="&#xac;" horiz-adv-x="497" 
d="M416 498q-11 0 -23 10t-12 20l-6 199q0 8 -9 10t-42 2h-33l-127 -6h-162q0 1 -4 13t-4 24t14 12l135 9l191 6q47 0 67 4q48 -6 48 -35l-9 -66q0 -118 1 -160t-25 -42z" />
    <glyph glyph-name="uni00AD" unicode="&#xad;" horiz-adv-x="620" 
d="M508 739q0 -7 -132 -13t-184 -5q-51 -1 -65 9t-14 26q0 6 134 12t216 6q15 0 30 -10t15 -25z" />
    <glyph glyph-name="registered" unicode="&#xae;" horiz-adv-x="1161" 
d="M438 1415q0 -440 34 -440q34 -1 112 63t93 109t15 99v71q-4 143 -52 198q-28 33 -94 33t-86 -26q-22 -26 -22 -107zM459 766q1 -68 23 -262t22 -254t-6 -72q-6 -10 -27 -10t-35 11t-14 30q0 176 -5 233q-5 56 -17 126t-13 108v399q-1 63 -13 187t-12 184q0 109 45 137
q45 29 120 29t111 -14t71 -57q35 -42 47 -115t12 -149q0 -77 -14 -127t-36 -76q-20 -26 -41 -42q-21 -18 -35 -32t-15 -32q0 -17 90 -347t98 -330v-2l31 -90q0 -15 -39 -31q-60 0 -127 316q-10 49 -20 78q-10 30 -50 204q-42 174 -58 174t-42 -14t-45 -13q-6 -79 -6 -147z
M997 707q0 588 -123 944l15 16q-20 50 -58 64q-37 39 -61 61q-73 63 -151 63q-79 0 -145 -30q-120 -54 -188 -190q-114 -229 -114 -593l14 -426q0 -551 202 -662q45 -25 58 -38q35 -14 68 -14l18 -8q260 0 376 230q89 177 89 583zM606 1915q81 0 162 -53t133 -127
q32 -9 40 -47t28 -56q0 -44 48 -314t48 -398v-66q0 -320 -15 -426t-31 -190q-33 -170 -109 -248t-143 -118q-67 -38 -151 -38t-149 19t-113 51t-88 80q-74 94 -109 217q-55 194 -55 514l2 270q0 930 502 930z" />
    <glyph glyph-name="macron" unicode="&#xaf;" horiz-adv-x="620" 
d="M403 702h-149q-91 0 -116 8t-25 25q2 17 131 17h116q118 0 133 -10t14 -26q-1 -14 -104 -14z" />
    <glyph glyph-name="degree" unicode="&#xb0;" horiz-adv-x="868" 
d="M256 1134q0 50 15 104t52 97t105 43t126 -55t58 -133q0 -225 -190 -225q-66 0 -116 59t-50 110zM301 1126q0 -42 36 -82q37 -40 85 -40q92 0 122 58t29 118q1 60 -41 106t-114 45q-36 1 -64 -35t-40 -82t-13 -88z" />
    <glyph glyph-name="plusminus" unicode="&#xb1;" horiz-adv-x="620" 
d="M401 389q0 -33 -43 -33q-12 0 -28 9t-15 20v64l4 106q0 60 -29 65q-14 3 -40 3l-90 -11q-60 0 -60 43q0 29 23 29l108 -6q84 0 84 16l-10 205q1 25 9 35t32 10q37 0 37 -35l-8 -20l8 -162q-1 -29 13 -39t44 -10l123 6q64 0 64 -35t-35 -35l-125 7q-65 0 -71 -11
q-13 -22 -13 -58t9 -86t9 -77zM541 236q0 -7 -134 -13t-184 -6q-50 -1 -64 9t-14 26q1 6 135 12t198 6t63 -34z" />
    <glyph glyph-name="uni00B2" unicode="&#xb2;" horiz-adv-x="571" 
d="M422 1249q0 295 -127 295q-29 -12 -45 -42t-20 -60q-8 -76 -35 -76t-27 37t11 77t37 72q26 33 60 33q86 0 139 -65t56 -154l-4 -4l6 -150q0 -167 -46 -408t-110 -384q-5 -12 -83 -173t-80 -206l16 -2q71 13 246 22l30 -32l-18 -27l-299 -18q-19 0 -35 11t-16 30
q35 43 69 139t41 110q118 256 176 488t58 487z" />
    <glyph glyph-name="uni00B3" unicode="&#xb3;" horiz-adv-x="589" 
d="M225 1540q82 0 119 -49l6 -2q82 -119 82 -387q0 -50 -37 -115q-9 -6 -33 -47t-34 -51q80 -33 107 -111t40 -161t24 -131t11 -102t-1 -80q-7 -186 -74 -261q-40 -45 -97 -45t-100 20t-43 56l16 10q25 -2 52 -22t36 -25q156 0 156 260q0 233 -33 351t-107 196l-20 -2
q-23 0 -39 8v8l-10 10q2 7 22 31q20 23 44 53t45 79q20 49 20 91t-2 78q-1 36 -9 92t-21 97t-39 71t-60 31q-34 -1 -56 -19t-31 -40q-22 -58 -48 -58q-12 0 -23 8t-12 21q67 137 149 137z" />
    <glyph glyph-name="acute" unicode="&#xb4;" horiz-adv-x="497" 
d="M98 1339q0 11 122 105t132 104q45 0 45 -32q0 -1 -6 -31q-103 -46 -256 -176q-37 0 -37 30z" />
    <glyph glyph-name="uni00B5" unicode="&#xb5;" horiz-adv-x="743" 
d="M192 -248q-14 0 -24 11t-10 24l-2 31l-2 123l-4 204l-11 357q-1 153 -21 469t-20 477l-14 43q0 13 10 27t25 14q51 0 51 -150l18 -692q8 -10 14 -100t15 -131q-4 -24 -4 -52q-1 -28 19 -94t52 -130t78 -110q47 -46 84 -46t55 8q18 7 28 17q11 10 17 32t8 34t4 40
q2 30 2 36t-1 19l6 68v233l-14 123l-12 367v26l-9 12q9 58 9 117l-19 348q0 17 14 25t31 8l35 -33l-6 -16l6 -16l-14 -123l20 -369l10 -356l7 -2q-2 -14 -2 -43l6 -144l6 -6l-6 -6l2 -129q0 -173 -45 -255q-45 -81 -140 -81q-160 0 -229 197v-113q4 -10 4 -31l-2 -45
l19 -184q0 -17 -15 -25t-29 -8z" />
    <glyph glyph-name="uni00B5" unicode="&#x3bc;" horiz-adv-x="743" 
d="M192 -248q-14 0 -24 11t-10 24l-2 31l-2 123l-4 204l-11 357q-1 153 -21 469t-20 477l-14 43q0 13 10 27t25 14q51 0 51 -150l18 -692q8 -10 14 -100t15 -131q-4 -24 -4 -52q-1 -28 19 -94t52 -130t78 -110q47 -46 84 -46t55 8q18 7 28 17q11 10 17 32t8 34t4 40
q2 30 2 36t-1 19l6 68v233l-14 123l-12 367v26l-9 12q9 58 9 117l-19 348q0 17 14 25t31 8l35 -33l-6 -16l6 -16l-14 -123l20 -369l10 -356l7 -2q-2 -14 -2 -43l6 -144l6 -6l-6 -6l2 -129q0 -173 -45 -255q-45 -81 -140 -81q-160 0 -229 197v-113q4 -10 4 -31l-2 -45
l19 -184q0 -17 -15 -25t-29 -8z" />
    <glyph glyph-name="paragraph" unicode="&#xb6;" horiz-adv-x="937" 
d="M416 1772q-102 0 -184 -100t-82 -201q0 -182 92 -241t252 -59q38 1 48 9t11 32l-18 484l2 57q-19 19 -121 19zM762 2q-51 0 -51 100l18 1074l-14 446l2 66q0 50 -19 77t-75 27q-23 0 -23 -111t14 -347t13 -333q1 -335 -17 -597q-18 -263 -22 -347q4 -8 4 -16
q0 -7 -14 -17t-25 -10q-39 0 -39 41q0 151 22 454t21 454l-4 157h-172q-29 12 -94 31t-115 49t-74 125q-2 7 -4 30t-8 34q0 157 62 271q37 66 92 97q27 15 80 29q54 14 74 24q20 8 50 12t68 5t57 4q11 20 49 20l80 -16q31 0 47 4q11 -13 41 -17t53 -10t23 -22q0 -29 -41 -29
q-15 0 -39 4l15 -624l-13 -877l13 -229q-1 -13 -11 -23t-24 -10z" />
    <glyph glyph-name="periodcentered" unicode="&#xb7;" horiz-adv-x="327" 
d="M113 746q1 20 17 38t35 17q19 1 35 -17t15 -36q0 -52 -57 -52q-18 0 -32 16q-14 14 -13 34z" />
    <glyph glyph-name="cedilla" unicode="&#xb8;" horiz-adv-x="468" 
d="M156 -39v23l59 8q-8 -47 -8 -103q149 -10 149 -206q0 -48 -46 -105t-109 -57q-29 1 -59 15t-29 38q0 24 22 23q13 -1 33 -11t39 -10t41 29t22 55l-6 29q0 5 9 11t10 7q0 53 -8 71t-25 32l-55 -7q-31 0 -56 41q17 39 17 117z" />
    <glyph glyph-name="uni00B9" unicode="&#xb9;" horiz-adv-x="606" 
d="M313 111q0 258 -14 484t-45 689l2 70q0 60 -19 94t-75 35l-47 -4q-35 0 -35 22q0 29 180 29q14 0 24 -10t9 -23h4q-6 -31 -6 -79q-1 -48 15 -177t16 -219t17 -318t17 -292q0 -62 -4 -78q13 -52 13 -232l-3 -30l9 -6l92 6q63 0 63 -29t-45 -29l-252 -8q-14 0 -23 9t-9 22
l10 20l55 -2q29 0 40 13t11 43z" />
    <glyph glyph-name="ordmasculine" unicode="&#xba;" horiz-adv-x="729" 
d="M552 449q0 -7 -132 -13t-184 -5q-51 -1 -65 9t-14 26q0 6 134 12t216 6q15 0 30 -10t15 -25zM369 598q175 0 175 244q0 304 -64 368q-83 84 -135 84q-125 0 -143 -340q4 -356 167 -356zM378 538q-242 0 -242 349q0 31 2 76t40 257q11 61 66 94q31 19 83 19t115 -11
q41 -7 79 -79q81 -130 86 -417q0 -162 -148 -263q-36 -25 -81 -25z" />
    <glyph glyph-name="guillemotright" unicode="&#xbb;" horiz-adv-x="741" 
d="M659 697q0 -40 -239 -499q-38 -73 -59 -114q-59 -119 -82 -119q-9 0 -25 7q-16 6 -16 18t88 166q265 464 270 536q-14 18 -86 220t-98 269t-53 139t-58 118q3 28 41 28q17 0 57 -106v-2q11 -29 135 -336q124 -306 125 -325zM414 700q0 106 -119 344t-137 357l26 20
q28 -6 50 -75q6 -24 16 -58t17 -56t113 -258t105 -271q1 -34 -37 -85q-38 -52 -45 -70t-24 -50t-21 -43l-176 -365q-37 -77 -43 -86l-30 -4q-9 0 -18 14t-11 25l18 14q36 65 176 347t140 300z" />
    <glyph glyph-name="onequarter" unicode="&#xbc;" horiz-adv-x="1691" 
d="M1620 567q0 -30 -58 -25q-21 2 -39 -8t-18 -50t6 -178t13 -154q-2 -8 -2 -40t8 -44l-6 -25l6 -14v-29l-33 -25l-31 13v73l-2 5q9 37 9 73l-15 209l4 92q0 80 -20 90l-121 -12q-27 0 -39 10t-16 13v6q0 15 10 65l-19 41l19 101l20 401v326l-8 51q0 27 31 27t31 -29
l-9 -164q0 -30 7 -70l-5 -6q5 -45 5 -94t-12 -221t-13 -258l14 -60l-14 -55q-1 -39 19 -39t56 6t48 13q0 99 -8 283t-15 239q-8 55 -8 76q0 32 39 32l19 -22l12 -289q-1 -63 5 -187t15 -132l76 8q39 0 39 -23zM1085 1505q0 -17 -20 -99t-33 -142t-219 -965l-41 -178
q-2 -7 -8 -38t-16 -59t-35 -30q-21 14 -21 48t10 89q10 56 34 142q22 86 93 401q71 316 131 546t64 241q16 71 31 71q30 0 30 -27zM313 111q0 258 -14 484t-45 689l2 70q0 60 -19 94t-75 35l-47 -4q-35 0 -35 22q0 29 180 29q14 0 24 -10t9 -23h4q-6 -31 -6 -79
q-1 -48 15 -177t16 -219t17 -318t17 -292q0 -62 -4 -78q13 -52 13 -232l-3 -30l9 -6l92 6q63 0 63 -29t-45 -29l-252 -8q-14 0 -23 9t-9 22l10 20l55 -2q29 0 40 13t11 43z" />
    <glyph glyph-name="onehalf" unicode="&#xbd;" horiz-adv-x="1736" 
d="M1587 1249q0 295 -127 295q-28 -12 -44 -42t-20 -60q-9 -76 -36 -76t-27 37t11 77q12 40 38 72q26 33 60 33q86 0 138 -65t56 -154l-4 -4l6 -150q0 -168 -46 -408t-109 -384q-6 -12 -84 -174t-80 -205l16 -2q71 13 246 22l31 -32l-19 -27l-299 -18q-20 0 -36 11t-15 30
q35 45 70 141t41 108q117 255 175 487t58 488zM1085 1505q0 -17 -20 -99t-33 -142t-219 -965l-41 -178q-2 -7 -8 -38t-16 -59t-35 -30q-21 14 -21 48t10 89q10 56 34 142q22 86 93 401q71 316 131 546t64 241q16 71 31 71q30 0 30 -27zM313 111q0 258 -14 484t-45 689l2 70
q0 60 -19 94t-75 35l-47 -4q-35 0 -35 22q0 29 180 29q14 0 24 -10t9 -23h4q-6 -31 -6 -79q-1 -48 15 -177t16 -219t17 -318t17 -292q0 -62 -4 -78q13 -52 13 -232l-3 -30l9 -6l92 6q63 0 63 -29t-45 -29l-252 -8q-14 0 -23 9t-9 22l10 20l55 -2q29 0 40 13t11 43z" />
    <glyph glyph-name="threequarters" unicode="&#xbe;" horiz-adv-x="1675" 
d="M1604 567q0 -30 -58 -25q-21 2 -39 -8t-18 -51q-1 -41 5 -178t13 -153q-2 -8 -2 -40t8 -44l-6 -25l6 -14v-29l-32 -25l-31 13v73l-2 5q8 33 8 73l-14 209l4 92q0 80 -21 90l-120 -12q-27 0 -39 10t-17 13v6q0 10 11 65l-19 41l19 101l20 401v326l-8 51q0 27 30 27t31 -29
l-8 -164q0 -36 6 -70l-4 -6q4 -36 4 -57l-24 -516l14 -60l-14 -55q-1 -39 19 -39t56 6t48 13q0 74 -8 270t-16 252q-8 55 -7 76q0 32 39 32l18 -22l12 -289q0 -60 6 -185t15 -134l76 8q39 0 39 -23zM1069 1505q0 -17 -20 -99t-33 -142t-219 -965l-41 -178q-2 -7 -7 -35
q-17 -89 -53 -92q-20 13 -20 47t10 90t34 142q22 86 93 401q71 316 131 546t70 271q9 41 24 41q31 0 31 -27zM225 1540q82 0 119 -49l6 -2q82 -119 82 -387q0 -50 -37 -115q-9 -6 -33 -47t-34 -51q80 -33 107 -111t40 -161t24 -131t11 -102t-1 -80q-7 -186 -74 -261
q-40 -45 -97 -45t-100 20t-43 56l16 10q25 -2 52 -22t36 -25q156 0 156 260q0 233 -33 351t-107 196l-20 -2q-23 0 -39 8v8l-10 10q2 7 22 31q20 23 44 53t45 79q20 49 20 91t-2 78q-1 36 -9 92t-21 97t-39 71t-60 31q-34 -1 -56 -19t-31 -40q-22 -58 -48 -58q-12 0 -23 8
t-12 21q67 137 149 137z" />
    <glyph glyph-name="questiondown" unicode="&#xbf;" horiz-adv-x="464" 
d="M295 1482q-1 -18 -17 -36t-35 -18t-35 18t-15 35q0 51 57 51q18 0 32 -16t13 -34zM369 124q1 -178 -129 -178q-76 0 -99 44q-45 90 -45 206t16 208q16 90 36 170q21 80 41 174q47 222 36 534q1 -2 7 2t18 4q18 0 23 -24q0 -307 -39 -559q-8 -51 -46 -208t-38 -270
t22 -175t51 -61h23q72 0 72 127q0 28 -15 123l25 8q23 2 26 -8q15 -77 15 -117z" />
    <glyph glyph-name="Agrave" unicode="&#xc0;" 
d="M177 1743q-70 0 -70 41q0 36 13 45q74 0 92 -23q2 0 24 -8q204 -68 205 -108q-1 -7 -9 -12t-14 -5q-6 1 -102 35q-97 34 -106 39q-20 -4 -33 -4zM438 397q25 0 37 4l10 -4q19 0 19 19q0 428 -80 923q0 6 -4 22t-4 25q-25 -71 -27 -90l6 -12q-23 -23 -60 -277
q-37 -255 -49 -311t-34 -130t-21 -128v-12q86 -29 207 -29zM590 44q0 -44 -41 -44q-19 0 -31 10t-12 25q6 12 6 24l-6 41v203q0 27 -108 47t-160 19q-20 -1 -36 -75t-31 -163t-30 -111q-48 0 -63 25q32 46 62 224q30 179 47 259q19 80 65 349t67 364q65 295 103 295
q32 0 42 -14t19 -75q8 -60 28 -278q19 -219 23 -287t19 -98q-4 -62 -4 -106t18 -78l23 -534v-22z" />
    <glyph glyph-name="Aacute" unicode="&#xc1;" 
d="M237 1704q-1 12 121 106t133 103q45 0 45 -32q0 -1 -6 -31q-103 -46 -256 -176q-37 0 -37 30zM438 397q25 0 37 4l10 -4q19 0 19 19q0 428 -80 923q0 6 -4 22t-4 25q-25 -71 -27 -90l6 -12q-23 -23 -60 -277q-37 -255 -49 -311t-34 -130t-21 -128v-12q86 -29 207 -29z
M590 44q0 -44 -41 -44q-19 0 -31 10t-12 25q6 12 6 24l-6 41v203q0 27 -108 47t-160 19q-20 -1 -36 -75t-31 -163t-30 -111q-48 0 -63 25q32 46 62 224q30 179 47 259q19 80 65 349t67 364q65 295 103 295q32 0 42 -14t19 -75q8 -60 28 -278q19 -219 23 -287t19 -98
q-4 -62 -4 -106t18 -78l23 -534v-22z" />
    <glyph glyph-name="Acircumflex" unicode="&#xc2;" 
d="M446 2056q30 0 30 -42t10 -80t26 -86q18 -48 25 -74l-2 -13l15 -30l-2 -11q8 -16 8 -22q0 -19 -37 -25l-27 17q-10 124 -59 307q-26 -66 -55 -156t-31 -110l-35 -47l-37 26q1 46 71 196t100 150zM438 397q25 0 37 4l10 -4q19 0 19 19q0 428 -80 923q0 6 -4 22t-4 25
q-25 -71 -27 -90l6 -12q-23 -23 -60 -277q-37 -255 -49 -311t-34 -130t-21 -128v-12q86 -29 207 -29zM590 44q0 -44 -41 -44q-19 0 -31 10t-12 25q6 12 6 24l-6 41v203q0 27 -108 47t-160 19q-20 -1 -36 -75t-31 -163t-30 -111q-48 0 -63 25q32 46 62 224q30 179 47 259
q19 80 65 349t67 364q65 295 103 295q32 0 42 -14t19 -75q8 -60 28 -278q19 -219 23 -287t19 -98q-4 -62 -4 -106t18 -78l23 -534v-22z" />
    <glyph glyph-name="Atilde" unicode="&#xc3;" 
d="M588 1853q20 0 30 -22q12 -23 12 -57t-33 -66t-73 -33t-77 21t-56 42t-52 58l-14 6h-37q-3 -12 -21 -25t-18 -25t10 -48l-22 -31q-13 0 -26 11t-13 24q0 63 32 104t93 41q66 -34 81 -45q15 -30 40 -55t44 -25t25 2l14 -4q5 14 26 26t21 50l-12 39q6 12 26 12zM438 397
q25 0 37 4l10 -4q19 0 19 19q0 428 -80 923q0 6 -4 22t-4 25q-25 -71 -27 -90l6 -12q-23 -23 -60 -277q-37 -255 -49 -311t-34 -130t-21 -128v-12q86 -29 207 -29zM590 44q0 -44 -41 -44q-19 0 -31 10t-12 25q6 12 6 24l-6 41v203q0 27 -108 47t-160 19q-20 -1 -36 -75
t-31 -163t-30 -111q-48 0 -63 25q32 46 62 224q30 179 47 259q19 80 65 349t67 364q65 295 103 295q32 0 42 -14t19 -75q8 -60 28 -278q19 -219 23 -287t19 -98q-4 -62 -4 -106t18 -78l23 -534v-22z" />
    <glyph glyph-name="Adieresis" unicode="&#xc4;" 
d="M228 1708q0 -17 -16 -26t-34 -9t-29 17q-11 16 -11 34t16 34t33 17q41 0 41 -67zM598 1728q0 18 16 33q16 16 33 16q18 -1 32 -17t14 -32q0 -47 -54 -47q-17 1 -29 15t-12 32zM438 397q25 0 37 4l10 -4q19 0 19 19q0 428 -80 923q0 6 -4 22t-4 25q-25 -71 -27 -90l6 -12
q-23 -23 -60 -277q-37 -255 -49 -311t-34 -130t-21 -128v-12q86 -29 207 -29zM590 44q0 -44 -41 -44q-19 0 -31 10t-12 25q6 12 6 24l-6 41v203q0 27 -108 47t-160 19q-20 -1 -36 -75t-31 -163t-30 -111q-48 0 -63 25q32 46 62 224q30 179 47 259q19 80 65 349t67 364
q65 295 103 295q32 0 42 -14t19 -75q8 -60 28 -278q19 -219 23 -287t19 -98q-4 -62 -4 -106t18 -78l23 -534v-22z" />
    <glyph glyph-name="Aring" unicode="&#xc5;" 
d="M348 1687q0 -85 48 -85q22 0 52 17t31 47q-1 30 -15 62t-42 31q-28 0 -50 -25q-24 -25 -24 -47zM301 1674q0 44 37 84t79 40q43 0 79 -40t36 -88t-36 -78t-86 -29q-49 -1 -79 33t-30 78zM438 397q25 0 37 4l10 -4q19 0 19 19q0 428 -80 923q0 6 -4 22t-4 25
q-25 -71 -27 -90l6 -12q-23 -23 -60 -277q-37 -255 -49 -311t-34 -130t-21 -128v-12q86 -29 207 -29zM590 44q0 -44 -41 -44q-19 0 -31 10t-12 25q6 12 6 24l-6 41v203q0 27 -108 47t-160 19q-20 -1 -36 -75t-31 -163t-30 -111q-48 0 -63 25q32 46 62 224q30 179 47 259
q19 80 65 349t67 364q65 295 103 295q32 0 42 -14t19 -75q8 -60 28 -278q19 -219 23 -287t19 -98q-4 -62 -4 -106t18 -78l23 -534v-22z" />
    <glyph glyph-name="AE" unicode="&#xc6;" horiz-adv-x="923" 
d="M502 1178q0 114 -13 215q-19 -22 -107 -350t-93 -379q128 4 205 24q0 52 4 214t4 276zM844 31q0 -35 -194 -38q-72 -1 -80 -5t-24 -16t-28 -13l-29 29q17 113 17 241l-10 392l-11 14q-8 -2 -107 -9t-104 -26l-102 -391q0 -1 -13 -63q-30 -144 -59 -144q-8 0 -12 9t-4 16
q2 98 108 511t242 855q26 91 48 121t46 30l158 10q64 0 64 -32l-13 -25q-100 0 -202 -12l14 -305l-6 -478l10 -12l162 21l28 -35q0 -35 -118 -35h-82l8 -487l-2 -84q0 -35 18 -35l232 22q45 0 45 -26z" />
    <glyph glyph-name="Ccedilla" unicode="&#xc7;" 
d="M360 -48v16q-43 5 -102 48q-60 43 -86 99t-51 348t-25 514t13 262q-7 35 -7 66q0 123 88 191t216 69q34 0 76 -22t42 -54q0 -23 -32 -23q-9 0 -25 12q-17 12 -27 13q-10 0 -22 -4q-24 8 -49 8q-25 -1 -61 -11q-120 -35 -137 -186q-7 -61 -7 -145l6 -145l-18 -148
q0 -121 27 -404t55 -326q54 -83 162 -83t157 59q19 0 47 7l10 -11q0 -98 -156 -128q-18 -3 -37 -5q-6 -41 -6 -89q149 -10 149 -206q0 -48 -46 -105t-109 -57q-29 0 -59 14t-29 38q0 24 22 24q13 0 33 -10t39 -11q19 0 41 29t22 55l-6 29q0 6 9 12t10 6q0 54 -8 72t-25 31
l-55 -7q-31 0 -56 41q17 39 17 117z" />
    <glyph glyph-name="Egrave" unicode="&#xc8;" horiz-adv-x="497" 
d="M32 1743q-70 0 -70 41q0 36 13 45q74 0 92 -23q3 0 25 -8q204 -68 204 -108q0 -7 -8 -12t-14 -5q-6 1 -103 35t-106 39q-20 -4 -33 -4zM224 -12q-92 0 -106 14t-14 31l19 76v4q-8 41 -8 90l10 209l-12 438l10 407q0 37 -13 109t-14 107l37 57l143 18l7 -6q47 0 55 -12
t8 -27q0 -39 -74 -39l-55 4q-45 0 -45 -24l16 -348l-10 -256l-4 -4l12 -7l113 21q11 0 24 -12t13 -23q0 -41 -31 -41l-47 2q-78 0 -78 -39l15 -172l-7 -12v-416q11 -13 11 -57v-19l123 7q96 0 96 -33q-27 -47 -146 -47h-48z" />
    <glyph glyph-name="Eacute" unicode="&#xc9;" horiz-adv-x="497" 
d="M163 1704q-1 12 121 106t133 103q45 0 45 -32q0 -1 -6 -31q-103 -46 -256 -176q-37 0 -37 30zM224 -12q-92 0 -106 14t-14 31l19 76v4q-8 41 -8 90l10 209l-12 438l10 407q0 37 -13 109t-14 107l37 57l143 18l7 -6q47 0 55 -12t8 -27q0 -39 -74 -39l-55 4q-45 0 -45 -24
l16 -348l-10 -256l-4 -4l12 -7l113 21q11 0 24 -12t13 -23q0 -41 -31 -41l-47 2q-78 0 -78 -39l15 -172l-7 -12v-416q11 -13 11 -57v-19l123 7q96 0 96 -33q-27 -47 -146 -47h-48z" />
    <glyph glyph-name="Ecircumflex" unicode="&#xca;" horiz-adv-x="497" 
d="M230 2056q30 0 30 -42t10 -80t26 -86q18 -48 25 -74l-2 -13l15 -30l-2 -11q8 -16 8 -22q0 -19 -37 -25l-27 17q-10 124 -59 307q-26 -66 -55 -156t-31 -110l-35 -47l-37 26q1 46 71 196t100 150zM224 -12q-92 0 -106 14t-14 31l19 76v4q-8 41 -8 90l10 209l-12 438
l10 407q0 37 -13 109t-14 107l37 57l143 18l7 -6q47 0 55 -12t8 -27q0 -39 -74 -39l-55 4q-45 0 -45 -24l16 -348l-10 -256l-4 -4l12 -7l113 21q11 0 24 -12t13 -23q0 -41 -31 -41l-47 2q-78 0 -78 -39l15 -172l-7 -12v-416q11 -13 11 -57v-19l123 7q96 0 96 -33
q-27 -47 -146 -47h-48z" />
    <glyph glyph-name="Edieresis" unicode="&#xcb;" horiz-adv-x="497" 
d="M11 1708q-1 -17 -17 -26t-34 -9t-28 17q-11 16 -11 34q-1 18 15 34t34 17q41 0 41 -67zM381 1728q-1 18 15 33q16 16 34 16q18 -1 32 -17t14 -32q0 -47 -54 -47q-16 1 -28 15t-13 32zM224 -12q-92 0 -106 14t-14 31l19 76v4q-8 41 -8 90l10 209l-12 438l10 407
q0 37 -13 109t-14 107l37 57l143 18l7 -6q47 0 55 -12t8 -27q0 -39 -74 -39l-55 4q-45 0 -45 -24l16 -348l-10 -256l-4 -4l12 -7l113 21q11 0 24 -12t13 -23q0 -41 -31 -41l-47 2q-78 0 -78 -39l15 -172l-7 -12v-416q11 -13 11 -57v-19l123 7q96 0 96 -33q-27 -47 -146 -47
h-48z" />
    <glyph glyph-name="Igrave" unicode="&#xcc;" horiz-adv-x="477" 
d="M61 1743q-70 0 -70 41q0 36 13 45q74 0 92 -23q2 0 24 -8q204 -68 205 -108q-1 -7 -9 -12t-14 -5q-6 1 -102 35q-97 34 -106 39q-20 -4 -33 -4zM185 10q-94 0 -109 35q0 23 47 23l45 -2q41 0 42 59q0 59 -6 144t-8 169t-11 327q-10 243 -13 349l2 240q0 99 -6 119
l-70 -15q-22 0 -22 28t90 48q90 18 133 18t43 -34t-25 -33l-49 2q-35 0 -42 -33q-7 -27 -7 -159q-1 -132 25 -523t26 -588l-2 -106l74 6q53 0 53 -51l-35 -25l-65 10q-23 0 -47 -24q-46 0 -58 16h-5z" />
    <glyph glyph-name="Iacute" unicode="&#xcd;" horiz-adv-x="477" 
d="M139 1704q-1 12 121 106t133 103q45 0 45 -32q0 -1 -6 -31q-103 -46 -256 -176q-37 0 -37 30zM185 10q-94 0 -109 35q0 23 47 23l45 -2q41 0 42 59q0 59 -6 144t-8 169t-11 327q-10 243 -13 349l2 240q0 99 -6 119l-70 -15q-22 0 -22 28t90 48q90 18 133 18t43 -34
t-25 -33l-49 2q-35 0 -42 -33q-7 -27 -7 -159q-1 -132 25 -523t26 -588l-2 -106l74 6q53 0 53 -51l-35 -25l-65 10q-23 0 -47 -24q-46 0 -58 16h-5z" />
    <glyph glyph-name="Icircumflex" unicode="&#xce;" horiz-adv-x="477" 
d="M205 2056q30 0 30 -42q-1 -42 9 -80t28 -86t24 -74l-2 -13l15 -30l-2 -11q8 -16 8 -22q0 -19 -37 -25l-27 17q-10 124 -59 307q-26 -66 -55 -156t-31 -110l-35 -47l-37 26q2 46 72 196t99 150zM185 10q-94 0 -109 35q0 23 47 23l45 -2q41 0 42 59q0 59 -6 144t-8 169
t-11 327q-10 243 -13 349l2 240q0 99 -6 119l-70 -15q-22 0 -22 28t90 48q90 18 133 18t43 -34t-25 -33l-49 2q-35 0 -42 -33q-7 -27 -7 -159q-1 -132 25 -523t26 -588l-2 -106l74 6q53 0 53 -51l-35 -25l-65 10q-23 0 -47 -24q-46 0 -58 16h-5z" />
    <glyph glyph-name="Idieresis" unicode="&#xcf;" horiz-adv-x="477" 
d="M-13 1708q-1 -17 -17 -26t-34 -9t-28 17q-11 16 -11 34q-1 18 15 34t34 17q41 0 41 -67zM357 1728q-1 18 15 33q16 16 34 16q18 -1 32 -17t14 -32q0 -47 -54 -47q-16 1 -28 15t-13 32zM185 10q-94 0 -109 35q0 23 47 23l45 -2q41 0 42 59q0 59 -6 144t-8 169t-11 327
q-10 243 -13 349l2 240q0 99 -6 119l-70 -15q-22 0 -22 28t90 48q90 18 133 18t43 -34t-25 -33l-49 2q-35 0 -42 -33q-7 -27 -7 -159q-1 -132 25 -523t26 -588l-2 -106l74 6q53 0 53 -51l-35 -25l-65 10q-23 0 -47 -24q-46 0 -58 16h-5z" />
    <glyph glyph-name="Eth" unicode="&#xd0;" horiz-adv-x="839" 
d="M659 602q0 120 -3 234q-3 112 -40 251q-32 161 -124 285t-236 166l-4 -4q0 -129 14 -407t35 -306l141 23q17 0 29 -16t14 -33l-20 -25q-104 0 -168 -14q-1 -32 5 -162t9 -143l-2 -2q1 -73 11 -221t10 -222q27 6 39 18t21 22t13 13q103 101 179 262t77 281zM215 1606
q171 0 348 -246q42 -59 74 -119v-4q96 -271 96 -588q1 -133 -49 -281t-146 -276t-216 -180q-9 4 -29 10t-31 29h-2q0 271 -18 651q-10 126 -17 152l-125 -13q-16 1 -22 9t-6 26t36 28t72 10l37 -1l8 4l2 10q0 61 -14 184t-14 185l-17 367q0 7 12 25t21 18z" />
    <glyph glyph-name="Ntilde" unicode="&#xd1;" horiz-adv-x="772" 
d="M528 1878q20 0 32 -22t11 -56q0 -34 -33 -68q-33 -32 -73 -32t-77 22t-56 40q-19 20 -52 59l-14 6h-37q-3 -12 -21 -25q-18 -14 -18 -26t10 -47l-22 -31q-13 0 -26 11t-13 24q0 63 32 104t93 41q66 -34 81 -45q15 -30 40 -55t44 -25t25 2l14 -4q5 15 26 27t21 49l-12 39
q5 12 25 12zM219 1501q0 -51 26 -111q25 -60 35 -92t18 -104t19 -127t36 -148t57 -206t42 -149q8 -36 32 -120t26 -131q14 -21 22 -81t33 -82q13 29 13 98l8 713l-6 317l6 78q0 22 -6 26l6 17q0 126 -8 168q8 28 51 28q33 0 33 -67q-13 -26 -13 -68l2 -69q0 -44 -8 -62
l-6 -647q0 -19 4 -55l-4 -9v-258l4 -77q0 -122 -20 -168v-4l6 -74q0 -60 -52 -60q-36 0 -49 77q-7 36 -8 40q-200 631 -252 922q-2 9 -4 39t-18 47l4 10q-14 76 -20 106t-17 80q-11 51 -33 103q-6 -42 -6 -64t4 -34q-14 -48 -14 -142v-561q0 -98 14 -292t14 -292l-14 -16
h-47l-6 16q4 16 4 82l-23 713v268l15 387l-2 43q0 43 51 43t51 -51z" />
    <glyph glyph-name="Ograve" unicode="&#xd2;" 
d="M64 1743q-70 0 -70 41q0 36 13 45q74 0 92 -23q3 0 25 -8q204 -68 204 -108q0 -7 -8 -12t-14 -5q-6 1 -103 35t-106 39q-20 -4 -33 -4zM303 1518q-151 0 -151 -607v-80q0 -141 22 -305t44 -266q24 -102 66 -174t95 -72q70 0 102 142q45 200 45 452v49v65t-2 86
q-1 60 -4 108q-3 47 -8 114q-6 86 -30 210q-54 278 -179 278zM555 222q0 -56 -22 -114q-21 -58 -65 -104t-94 -47q-50 0 -93 38q-134 118 -172 537q-15 164 -15 266t9 234q9 131 10 169t2 67q7 189 70 260q39 43 115 43t124 -41q6 -11 36 -49q30 -39 44 -73t33 -169
q49 -350 49 -621l-19 -264l4 -8q-16 -69 -16 -124z" />
    <glyph glyph-name="Oacute" unicode="&#xd3;" 
d="M267 1704q-1 12 121 106t133 103q45 0 45 -32q0 -1 -6 -31q-103 -46 -256 -176q-37 0 -37 30zM303 1518q-151 0 -151 -607v-80q0 -141 22 -305t44 -266q24 -102 66 -174t95 -72q70 0 102 142q45 200 45 452v49v65t-2 86q-1 60 -4 108q-3 47 -8 114q-6 86 -30 210
q-54 278 -179 278zM555 222q0 -56 -22 -114q-21 -58 -65 -104t-94 -47q-50 0 -93 38q-134 118 -172 537q-15 164 -15 266t9 234q9 131 10 169t2 67q7 189 70 260q39 43 115 43t124 -41q6 -11 36 -49q30 -39 44 -73t33 -169q49 -350 49 -621l-19 -264l4 -8q-16 -69 -16 -124z
" />
    <glyph glyph-name="Ocircumflex" unicode="&#xd4;" 
d="M333 2056q30 0 30 -42q-1 -42 9 -80t28 -86t24 -74l-2 -13l15 -30l-2 -11q8 -16 8 -22q0 -19 -37 -25l-27 17q-10 124 -59 307q-26 -66 -55 -156t-31 -110l-35 -47l-37 26q2 46 72 196t99 150zM303 1518q-151 0 -151 -607v-80q0 -141 22 -305t44 -266q24 -102 66 -174
t95 -72q70 0 102 142q45 200 45 452v49v65t-2 86q-1 60 -4 108q-3 47 -8 114q-6 86 -30 210q-54 278 -179 278zM555 222q0 -56 -22 -114q-21 -58 -65 -104t-94 -47q-50 0 -93 38q-134 118 -172 537q-15 164 -15 266t9 234q9 131 10 169t2 67q7 189 70 260q39 43 115 43
t124 -41q6 -11 36 -49q30 -39 44 -73t33 -169q49 -350 49 -621l-19 -264l4 -8q-16 -69 -16 -124z" />
    <glyph glyph-name="Otilde" unicode="&#xd5;" 
d="M476 1853q20 0 30 -22q12 -23 12 -57t-33 -66t-73 -33t-77 21t-56 42t-52 58l-14 6h-37q-3 -12 -21 -25t-18 -25t10 -48l-22 -31q-13 0 -26 11t-13 24q0 63 32 104t93 41q66 -34 81 -45q15 -30 40 -55t44 -25t25 2l14 -4q5 14 26 26t21 50l-12 39q6 12 26 12zM303 1518
q-151 0 -151 -607v-80q0 -141 22 -305t44 -266q24 -102 66 -174t95 -72q70 0 102 142q45 200 45 452v49v65t-2 86q-1 60 -4 108q-3 47 -8 114q-6 86 -30 210q-54 278 -179 278zM555 222q0 -56 -22 -114q-21 -58 -65 -104t-94 -47q-50 0 -93 38q-134 118 -172 537
q-15 164 -15 266t9 234q9 131 10 169t2 67q7 189 70 260q39 43 115 43t124 -41q6 -11 36 -49q30 -39 44 -73t33 -169q49 -350 49 -621l-19 -264l4 -8q-16 -69 -16 -124z" />
    <glyph glyph-name="Odieresis" unicode="&#xd6;" 
d="M115 1708q-1 -17 -17 -26t-34 -9t-28 17q-11 16 -11 34q-1 18 15 34t34 17q41 0 41 -67zM485 1728q-1 18 15 33q16 16 34 16q18 -1 32 -17t14 -32q0 -47 -54 -47q-16 1 -28 15t-13 32zM303 1518q-151 0 -151 -607v-80q0 -141 22 -305t44 -266q24 -102 66 -174t95 -72
q70 0 102 142q45 200 45 452v49v65t-2 86q-1 60 -4 108q-3 47 -8 114q-6 86 -30 210q-54 278 -179 278zM555 222q0 -56 -22 -114q-21 -58 -65 -104t-94 -47q-50 0 -93 38q-134 118 -172 537q-15 164 -15 266t9 234q9 131 10 169t2 67q7 189 70 260q39 43 115 43t124 -41
q6 -11 36 -49q30 -39 44 -73t33 -169q49 -350 49 -621l-19 -264l4 -8q-16 -69 -16 -124z" />
    <glyph glyph-name="multiply" unicode="&#xd7;" horiz-adv-x="727" 
d="M354 584q-34 0 -75 -64t-78 -63q-11 0 -26 10q-15 9 -15 19t16 26t43 39q25 21 35 31t26 32t17 33q-17 17 -93 81t-77 89q-1 9 13 25t28 16t25 -10l10 -21q127 -127 150 -127t55 36l64 72t50 36t28 -10t11 -25q-1 -15 -37 -49t-72 -67t-36 -51q0 -34 83 -88t83 -83
q0 -17 -14 -32t-30 -15t-22 6l-45 43q-13 11 -56 61t-61 50z" />
    <glyph glyph-name="Oslash" unicode="&#xd8;" horiz-adv-x="602" 
d="M260 1513q-17 0 -41 -12l-12 4q-64 -39 -64 -653q0 -104 19 -147q0 -71 12 -215t12 -216q22 30 101 881q9 97 19 172t11 115q0 40 -20 55q-20 16 -37 16zM215 103q0 -80 90 -80q133 0 133 376q0 845 -73 990q-29 -175 -63 -572t-60 -538q-27 -141 -27 -176zM291 -20
q-73 0 -103 40h-2q-14 -88 -53 -284l-31 24q1 35 23 142t37 209q0 15 -8 39t-14 50q-4 26 -10 74q-6 47 -10 86q-4 40 -7 94t-5 86q-8 96 -8 362v179q0 488 150 488q10 1 31 -11t28 -12l8 4l11 -10q13 39 53 258h37l-2 -59l-43 -248q0 -25 30 -59l-2 -5q4 -18 16 -38
q38 -57 38 -160l-4 -2q0 -61 15 -188t15 -189v-12l4 -7l7 -387q0 -142 -8 -192t-21 -104q-12 -54 -55 -111q-44 -57 -117 -57z" />
    <glyph glyph-name="Ugrave" unicode="&#xd9;" horiz-adv-x="743" 
d="M96 1743q-70 0 -70 41q0 36 13 45q74 0 92 -23q3 0 25 -8q204 -68 204 -108q0 -7 -8 -12t-14 -5q-6 1 -103 35t-106 39q-20 -4 -33 -4zM119 1532q51 0 51 -150l18 -692q8 -10 14 -100t15 -131q-4 -24 -4 -52q-1 -28 19 -94t52 -130t78 -110q47 -46 84 -46t55 8
q18 7 28 17q11 10 17 32t8 34t4 40q2 30 2 36t-1 19l6 68v233l-14 123l-12 367v26l-9 12q9 58 9 117l-19 348q0 17 14 25t31 8l35 -33l-6 -16l6 -16l-14 -123l20 -369l10 -356l7 -2q-2 -14 -2 -43l6 -144l6 -6l-6 -6l2 -129q0 -173 -45 -255q-45 -81 -148 -81q-57 1 -105 31
q-113 72 -149 306q-21 134 -43 175q-1 163 -21 487t-20 488l-14 43q0 13 10 27t25 14z" />
    <glyph glyph-name="Uacute" unicode="&#xda;" horiz-adv-x="743" 
d="M299 1704q-1 12 121 106t133 103q45 0 45 -32q0 -1 -6 -31q-103 -46 -256 -176q-37 0 -37 30zM119 1532q51 0 51 -150l18 -692q8 -10 14 -100t15 -131q-4 -24 -4 -52q-1 -28 19 -94t52 -130t78 -110q47 -46 84 -46t55 8q18 7 28 17q11 10 17 32t8 34t4 40q2 30 2 36
t-1 19l6 68v233l-14 123l-12 367v26l-9 12q9 58 9 117l-19 348q0 17 14 25t31 8l35 -33l-6 -16l6 -16l-14 -123l20 -369l10 -356l7 -2q-2 -14 -2 -43l6 -144l6 -6l-6 -6l2 -129q0 -173 -45 -255q-45 -81 -148 -81q-57 1 -105 31q-113 72 -149 306q-21 134 -43 175
q-1 163 -21 487t-20 488l-14 43q0 13 10 27t25 14z" />
    <glyph glyph-name="Ucircumflex" unicode="&#xdb;" horiz-adv-x="743" 
d="M365 2056q30 0 30 -42q-1 -42 9 -80t28 -86t24 -74l-2 -13l15 -30l-2 -11q8 -16 8 -22q0 -19 -37 -25l-27 17q-10 124 -59 307q-26 -66 -55 -156t-31 -110l-35 -47l-37 26q2 46 72 196t99 150zM119 1532q51 0 51 -150l18 -692q8 -10 14 -100t15 -131q-4 -24 -4 -52
q-1 -28 19 -94t52 -130t78 -110q47 -46 84 -46t55 8q18 7 28 17q11 10 17 32t8 34t4 40q2 30 2 36t-1 19l6 68v233l-14 123l-12 367v26l-9 12q9 58 9 117l-19 348q0 17 14 25t31 8l35 -33l-6 -16l6 -16l-14 -123l20 -369l10 -356l7 -2q-2 -14 -2 -43l6 -144l6 -6l-6 -6
l2 -129q0 -173 -45 -255q-45 -81 -148 -81q-57 1 -105 31q-113 72 -149 306q-21 134 -43 175q-1 163 -21 487t-20 488l-14 43q0 13 10 27t25 14z" />
    <glyph glyph-name="Udieresis" unicode="&#xdc;" horiz-adv-x="743" 
d="M147 1708q-1 -17 -17 -26t-34 -9t-28 17q-11 16 -11 34q-1 18 15 34t34 17q41 0 41 -67zM517 1728q-1 18 15 33q16 16 34 16q18 -1 32 -17t14 -32q0 -47 -54 -47q-16 1 -28 15t-13 32zM119 1532q51 0 51 -150l18 -692q8 -10 14 -100t15 -131q-4 -24 -4 -52q-1 -28 19 -94
t52 -130t78 -110q47 -46 84 -46t55 8q18 7 28 17q11 10 17 32t8 34t4 40q2 30 2 36t-1 19l6 68v233l-14 123l-12 367v26l-9 12q9 58 9 117l-19 348q0 17 14 25t31 8l35 -33l-6 -16l6 -16l-14 -123l20 -369l10 -356l7 -2q-2 -14 -2 -43l6 -144l6 -6l-6 -6l2 -129
q0 -173 -45 -255q-45 -81 -148 -81q-57 1 -105 31q-113 72 -149 306q-21 134 -43 175q-1 163 -21 487t-20 488l-14 43q0 13 10 27t25 14z" />
    <glyph glyph-name="Yacute" unicode="&#xdd;" horiz-adv-x="505" 
d="M204 1704q0 12 122 106t132 103q45 0 45 -32q0 -1 -6 -31q-103 -46 -256 -176q-37 0 -37 30zM289 -25q-29 0 -29 50l10 395l-14 166q0 33 -12 96t-13 87q0 37 -17 105t-50 240q-34 172 -62 268t-28 122q0 42 41 42l24 -16q5 -83 53 -323t76 -277q32 94 44 236t20 214
q18 160 57 160q31 0 31 -22q0 -16 -8 -44t-12 -51q-4 -22 -22 -131q-20 -109 -38 -218t-18 -245l6 -67l-13 -31v-16l15 -246q0 -277 -4 -414l6 -6l2 -14q0 -23 -12 -41t-33 -19z" />
    <glyph glyph-name="Thorn" unicode="&#xde;" horiz-adv-x="540" 
d="M162 1317v-53q2 -112 14 -330t14 -322q25 2 44 23q18 20 22 24q133 133 133 334q0 163 -69 229q-29 28 -73 60t-48 35h-37zM158 -12q-26 0 -27 71l2 258l-4 252q0 118 -8 299q-7 181 -9 218t-10 146t-8 163l2 135q0 12 15 16l34 -6q3 -28 5 -81t4 -81v-2q166 -3 246 -171
q46 -95 46 -201t-48 -244t-132 -178q-26 -12 -42 -26t-34 -19l11 -486q-1 -31 -9 -47t-34 -16z" />
    <glyph glyph-name="germandbls" unicode="&#xdf;" horiz-adv-x="616" 
d="M223 854q0 34 31 35q43 13 82 117t39 206q0 100 -32 177t-77 77q-94 0 -94 -211l8 -368v-78l10 -760q0 -61 -38 -61t-39 28l10 519l-14 731q0 270 155 270q80 0 122 -90t42 -232q0 -235 -131 -360q97 -49 147 -149t50 -232v-47q0 -235 -81 -326q-38 -42 -98 -73
q-12 -4 -23 -4q-10 -1 -24 7t-14 24t25 34q35 17 79 50t50 59q26 50 27 92t1 127t-38 217t-142 178q-13 6 -23 20q-10 13 -10 23z" />
    <glyph glyph-name="agrave" unicode="&#xe0;" horiz-adv-x="667" 
d="M148 1548q-70 0 -70 41q0 36 13 45q74 0 92 -23q3 -1 25 -9q204 -68 204 -107q0 -7 -8 -12t-14 -5t-103 34t-106 40q-20 -4 -33 -4zM223 406q0 -20 62 -38t153 -18h21q-13 40 -13 92v47q0 127 -32 370t-33 362q-107 -529 -133 -653t-25 -162zM249 315q-35 0 -38 -2t-4 -7
t-2 -7l-4 -41q-4 -52 -19 -125q-28 -143 -59 -143q-13 0 -27 11t-14 24q26 77 54 233t35 194t26 156q19 117 25 154t35 173t44 274q15 137 25 155l28 -2q25 0 37 12q13 0 25 -8t12 -23q0 -98 25 -379q25 -282 39 -364t34 -162q19 -80 19 -121l-10 -28q0 -45 17 -135t17 -126
t-16 -46q-41 0 -51 12t-10 38t-4 66q-4 38 -6 61q-4 23 -12 73t-11 63q-39 10 -92 10l-54 -2q-29 12 -64 12z" />
    <glyph glyph-name="aacute" unicode="&#xe1;" horiz-adv-x="667" 
d="M234 1509q0 11 122 105t132 104q45 0 45 -32q0 -1 -6 -31q-103 -46 -256 -176q-37 0 -37 30zM223 406q0 -20 62 -38t153 -18h21q-13 40 -13 92v47q0 127 -32 370t-33 362q-107 -529 -133 -653t-25 -162zM249 315q-35 0 -38 -2t-4 -7t-2 -7l-4 -41q-4 -52 -19 -125
q-28 -143 -59 -143q-13 0 -27 11t-14 24q26 77 54 233t35 194t26 156q19 117 25 154t35 173t44 274q15 137 25 155l28 -2q25 0 37 12q13 0 25 -8t12 -23q0 -98 25 -379q25 -282 39 -364t34 -162q19 -80 19 -121l-10 -28q0 -45 17 -135t17 -126t-16 -46q-41 0 -51 12t-10 38
t-4 66q-4 38 -6 61q-4 23 -12 73t-11 63q-39 10 -92 10l-54 -2q-29 12 -64 12z" />
    <glyph glyph-name="acircumflex" unicode="&#xe2;" horiz-adv-x="667" 
d="M416 1861q30 1 30 -41t10 -80t26 -87q18 -48 25 -74l-2 -13l15 -30l-2 -11q8 -16 8 -22q0 -19 -37 -25l-27 17q-10 124 -59 307q-26 -66 -55 -156t-31 -110l-35 -47l-37 26q1 45 71 195t100 151zM223 406q0 -20 62 -38t153 -18h21q-13 40 -13 92v47q0 127 -32 370
t-33 362q-107 -529 -133 -653t-25 -162zM249 315q-35 0 -38 -2t-4 -7t-2 -7l-4 -41q-4 -52 -19 -125q-28 -143 -59 -143q-13 0 -27 11t-14 24q26 77 54 233t35 194t26 156q19 117 25 154t35 173t44 274q15 137 25 155l28 -2q25 0 37 12q13 0 25 -8t12 -23q0 -98 25 -379
q25 -282 39 -364t34 -162q19 -80 19 -121l-10 -28q0 -45 17 -135t17 -126t-16 -46q-41 0 -51 12t-10 38t-4 66q-4 38 -6 61q-4 23 -12 73t-11 63q-39 10 -92 10l-54 -2q-29 12 -64 12z" />
    <glyph glyph-name="atilde" unicode="&#xe3;" horiz-adv-x="667" 
d="M558 1659q20 0 32 -22q12 -23 11 -57q0 -34 -33 -66t-73 -33t-77 21t-56 42t-52 58l-14 6h-37q-3 -12 -21 -25t-18 -25t10 -48l-22 -31q-13 0 -26 11t-13 24q0 63 32 104t93 41q66 -34 81 -45q15 -30 40 -55t44 -25t25 2l14 -4q5 14 26 26t21 50l-12 39q5 12 25 12z
M223 406q0 -20 62 -38t153 -18h21q-13 40 -13 92v47q0 127 -32 370t-33 362q-107 -529 -133 -653t-25 -162zM249 315q-35 0 -38 -2t-4 -7t-2 -7l-4 -41q-4 -52 -19 -125q-28 -143 -59 -143q-13 0 -27 11t-14 24q26 77 54 233t35 194t26 156q19 117 25 154t35 173t44 274
q15 137 25 155l28 -2q25 0 37 12q13 0 25 -8t12 -23q0 -98 25 -379q25 -282 39 -364t34 -162q19 -80 19 -121l-10 -28q0 -45 17 -135t17 -126t-16 -46q-41 0 -51 12t-10 38t-4 66q-4 38 -6 61q-4 23 -12 73t-11 63q-39 10 -92 10l-54 -2q-29 12 -64 12z" />
    <glyph glyph-name="adieresis" unicode="&#xe4;" horiz-adv-x="667" 
d="M198 1514q0 -17 -16 -26t-34 -9t-29 17q-11 16 -11 34t16 34t33 17q41 0 41 -67zM568 1534q0 18 16 33q16 16 33 16q18 -1 32 -17t14 -32q0 -47 -54 -47q-17 1 -29 15t-12 32zM223 406q0 -20 62 -38t153 -18h21q-13 40 -13 92v47q0 127 -32 370t-33 362
q-107 -529 -133 -653t-25 -162zM249 315q-35 0 -38 -2t-4 -7t-2 -7l-4 -41q-4 -52 -19 -125q-28 -143 -59 -143q-13 0 -27 11t-14 24q26 77 54 233t35 194t26 156q19 117 25 154t35 173t44 274q15 137 25 155l28 -2q25 0 37 12q13 0 25 -8t12 -23q0 -98 25 -379
q25 -282 39 -364t34 -162q19 -80 19 -121l-10 -28q0 -45 17 -135t17 -126t-16 -46q-41 0 -51 12t-10 38t-4 66q-4 38 -6 61q-4 23 -12 73t-11 63q-39 10 -92 10l-54 -2q-29 12 -64 12z" />
    <glyph glyph-name="aring" unicode="&#xe5;" horiz-adv-x="667" 
d="M314 1603q0 -85 48 -85q22 0 52 17t31 47q-1 30 -15 62t-42 31q-28 0 -50 -25q-24 -25 -24 -47zM267 1590q0 44 37 84t79 40q43 0 79 -40t36 -88t-36 -78t-86 -29q-49 -1 -79 33t-30 78zM223 406q0 -20 62 -38t153 -18h21q-13 40 -13 92v47q0 127 -32 370t-33 362
q-107 -529 -133 -653t-25 -162zM249 315q-35 0 -38 -2t-4 -7t-2 -7l-4 -41q-4 -52 -19 -125q-28 -143 -59 -143q-13 0 -27 11t-14 24q26 77 54 233t35 194t26 156q19 117 25 154t35 173t44 274q15 137 25 155l28 -2q25 0 37 12q13 0 25 -8t12 -23q0 -98 25 -379
q25 -282 39 -364t34 -162q19 -80 19 -121l-10 -28q0 -45 17 -135t17 -126t-16 -46q-41 0 -51 12t-10 38t-4 66q-4 38 -6 61q-4 23 -12 73t-11 63q-39 10 -92 10l-54 -2q-29 12 -64 12z" />
    <glyph glyph-name="ae" unicode="&#xe6;" horiz-adv-x="923" 
d="M496 1163q0 49 -2 74q-18 -19 -109 -287t-96 -307q90 0 205 25v280l2 137v78zM100 2q-8 0 -12 9t-4 16q2 98 82 405q110 350 268 764l4 12l2 9q37 131 88 131l158 2q64 0 64 -33l-13 -25h-102q-67 0 -100 -4l6 -313l2 -293l10 -12q55 20 162 20l28 -35q0 -34 -145 -34
h-55l8 -467l-2 -84q0 -35 18 -35l232 22q45 0 45 -26q0 -35 -194 -38q-73 -1 -85 -7q-6 2 -16 2l-31 -2l-29 28q17 96 17 215l-10 371l-11 14q-8 -2 -107 -8t-104 -26l-102 -371q0 -1 -13 -63q-30 -144 -59 -144z" />
    <glyph glyph-name="ccedilla" unicode="&#xe7;" horiz-adv-x="550" 
d="M296 -48v23h3q-12 4 -37 13q-69 22 -111 100q-55 105 -55 358v234q0 273 20 374q40 205 109 259q17 15 55 29t52 22h82q2 0 6 -1t5 -1q28 -7 28 -29l-27 -30h-86q-42 1 -73 -39q-53 -67 -71 -197q-18 -129 -18 -229l-4 -11l-8 -413q0 -305 130 -362q38 -17 78 -17t60 18
q31 0 31 -22q1 -15 -27 -35t-51 -29h-34q-6 -40 -6 -87q149 -10 149 -206q0 -48 -46 -105t-109 -57q-29 0 -59 14t-29 38q0 24 22 24q13 0 33 -10t39 -11q19 0 41 29t22 55l-6 29q0 6 9 12t10 6q0 54 -8 72t-25 31l-55 -7q-31 0 -56 41q17 39 17 117z" />
    <glyph glyph-name="egrave" unicode="&#xe8;" horiz-adv-x="491" 
d="M-19 1548q-70 0 -70 41q0 36 13 45q74 0 92 -23q2 -1 24 -9q204 -68 205 -107q-1 -7 -9 -12t-14 -5t-102 34q-97 34 -106 40q-20 -4 -33 -4zM304 717q-27 0 -40 16l-67 10h-9l-10 -10v-6q4 -53 4 -162l-4 -291q0 -204 28 -226q18 -15 66 -15l76 4q60 0 60 -27
q0 -37 -89 -37h-169q-38 0 -41 43l2 52l-7 8q15 41 15 84l-10 270l14 617l-8 245q0 58 59 58q23 0 33 -13q7 -2 59 -8q126 -14 129 -51q0 -16 -39 -39q-113 37 -166 39l-10 -12q2 -29 2 -88l-8 -318q0 -57 29 -57l69 4q78 0 80 -37q0 -53 -48 -53z" />
    <glyph glyph-name="eacute" unicode="&#xe9;" horiz-adv-x="491" 
d="M183 1509q-1 11 121 105t133 104q45 0 45 -32q0 -1 -6 -31q-103 -46 -256 -176q-37 0 -37 30zM304 717q-27 0 -40 16l-67 10h-9l-10 -10v-6q4 -53 4 -162l-4 -291q0 -204 28 -226q18 -15 66 -15l76 4q60 0 60 -27q0 -37 -89 -37h-169q-38 0 -41 43l2 52l-7 8q15 41 15 84
l-10 270l14 617l-8 245q0 58 59 58q23 0 33 -13q7 -2 59 -8q126 -14 129 -51q0 -16 -39 -39q-113 37 -166 39l-10 -12q2 -29 2 -88l-8 -318q0 -57 29 -57l69 4q78 0 80 -37q0 -53 -48 -53z" />
    <glyph glyph-name="ecircumflex" unicode="&#xea;" horiz-adv-x="491" 
d="M250 1861q30 1 30 -41t10 -80t26 -87q18 -48 25 -74l-2 -13l15 -30l-2 -11q8 -16 8 -22q0 -19 -37 -25l-27 17q-10 124 -59 307q-26 -66 -55 -156t-31 -110l-35 -47l-37 26q1 45 71 195t100 151zM304 717q-27 0 -40 16l-67 10h-9l-10 -10v-6q4 -53 4 -162l-4 -291
q0 -204 28 -226q18 -15 66 -15l76 4q60 0 60 -27q0 -37 -89 -37h-169q-38 0 -41 43l2 52l-7 8q15 41 15 84l-10 270l14 617l-8 245q0 58 59 58q23 0 33 -13q7 -2 59 -8q126 -14 129 -51q0 -16 -39 -39q-113 37 -166 39l-10 -12q2 -29 2 -88l-8 -318q0 -57 29 -57l69 4
q78 0 80 -37q0 -53 -48 -53z" />
    <glyph glyph-name="edieresis" unicode="&#xeb;" horiz-adv-x="491" 
d="M31 1514q-1 -17 -17 -26t-34 -9t-28 17q-11 16 -11 34q-1 18 15 34t34 17q41 0 41 -67zM401 1534q-1 18 15 33q16 16 34 16q18 -1 32 -17t14 -32q0 -47 -54 -47q-16 1 -28 15t-13 32zM304 717q-27 0 -40 16l-67 10h-9l-10 -10v-6q4 -53 4 -162l-4 -291q0 -204 28 -226
q18 -15 66 -15l76 4q60 0 60 -27q0 -37 -89 -37h-169q-38 0 -41 43l2 52l-7 8q15 41 15 84l-10 270l14 617l-8 245q0 58 59 58q23 0 33 -13q7 -2 59 -8q126 -14 129 -51q0 -16 -39 -39q-113 37 -166 39l-10 -12q2 -29 2 -88l-8 -318q0 -57 29 -57l69 4q78 0 80 -37
q0 -53 -48 -53z" />
    <glyph glyph-name="igrave" unicode="&#xec;" horiz-adv-x="550" 
d="M3 1548q-70 0 -70 41q0 36 13 45q74 0 92 -23q2 -1 24 -9q204 -68 205 -107q-1 -7 -9 -12t-14 -5t-102 34q-97 34 -106 40q-20 -4 -33 -4zM266 0q-30 0 -39 20l-34 -2q-44 0 -56 21q-1 13 11 21t16 14h59l8 8l7 43l-15 448l10 478q0 139 -10 237q-20 6 -61 6l-49 -4
q-39 0 -39 35q0 9 18 17t31 8q285 0 285 -62q0 -6 -5 -16l-47 -4q-16 12 -59 12l-10 -6q6 -18 6 -109l-6 -487l14 -449l-2 -63q0 -48 6 -57l-2 -5q0 -20 45 -20l60 2q61 0 61 -29q0 -17 -13 -29t-32 -12l-68 7q-16 1 -38 -11t-52 -12z" />
    <glyph glyph-name="iacute" unicode="&#xed;" horiz-adv-x="550" 
d="M205 1509q-1 11 121 105t133 104q45 0 45 -32q0 -1 -6 -31q-103 -46 -256 -176q-37 0 -37 30zM266 0q-30 0 -39 20l-34 -2q-44 0 -56 21q-1 13 11 21t16 14h59l8 8l7 43l-15 448l10 478q0 139 -10 237q-20 6 -61 6l-49 -4q-39 0 -39 35q0 9 18 17t31 8q285 0 285 -62
q0 -6 -5 -16l-47 -4q-16 12 -59 12l-10 -6q6 -18 6 -109l-6 -487l14 -449l-2 -63q0 -48 6 -57l-2 -5q0 -20 45 -20l60 2q61 0 61 -29q0 -17 -13 -29t-32 -12l-68 7q-16 1 -38 -11t-52 -12z" />
    <glyph glyph-name="icircumflex" unicode="&#xee;" horiz-adv-x="550" 
d="M272 1861q30 1 30 -41t10 -80t26 -87q18 -48 25 -74l-2 -13l15 -30l-2 -11q8 -16 8 -22q0 -19 -37 -25l-27 17q-10 124 -59 307q-26 -66 -55 -156t-31 -110l-35 -47l-37 26q1 45 71 195t100 151zM266 0q-30 0 -39 20l-34 -2q-44 0 -56 21q-1 13 11 21t16 14h59l8 8l7 43
l-15 448l10 478q0 139 -10 237q-20 6 -61 6l-49 -4q-39 0 -39 35q0 9 18 17t31 8q285 0 285 -62q0 -6 -5 -16l-47 -4q-16 12 -59 12l-10 -6q6 -18 6 -109l-6 -487l14 -449l-2 -63q0 -48 6 -57l-2 -5q0 -20 45 -20l60 2q61 0 61 -29q0 -17 -13 -29t-32 -12l-68 7
q-16 1 -38 -11t-52 -12z" />
    <glyph glyph-name="idieresis" unicode="&#xef;" horiz-adv-x="550" 
d="M53 1514q-1 -17 -17 -26t-34 -9t-28 17q-11 16 -11 34q-1 18 15 34t34 17q41 0 41 -67zM423 1534q-1 18 15 33q16 16 34 16q18 -1 32 -17t14 -32q0 -47 -54 -47q-16 1 -28 15t-13 32zM266 0q-30 0 -39 20l-34 -2q-44 0 -56 21q-1 13 11 21t16 14h59l8 8l7 43l-15 448
l10 478q0 139 -10 237q-20 6 -61 6l-49 -4q-39 0 -39 35q0 9 18 17t31 8q285 0 285 -62q0 -6 -5 -16l-47 -4q-16 12 -59 12l-10 -6q6 -18 6 -109l-6 -487l14 -449l-2 -63q0 -48 6 -57l-2 -5q0 -20 45 -20l60 2q61 0 61 -29q0 -17 -13 -29t-32 -12l-68 7q-16 1 -38 -11
t-52 -12z" />
    <glyph glyph-name="eth" unicode="&#xf0;" horiz-adv-x="516" 
d="M377 727v117q-21 16 -62 24q-67 0 -100 -156q-47 -223 -47 -538q0 -162 76 -162q42 0 56 15t22 24q6 9 10 27t6 28t3 32q2 22 3 28q33 267 33 561zM430 815v-8q0 -196 -10 -438q-3 -22 -10 -138t-40 -188q-32 -72 -110 -72q-125 0 -138 139q-3 26 -3 66q1 40 1 74t2 104
q11 304 88 465q43 94 122 94q21 0 45 -16q-7 226 -33 391q-114 -12 -136 -12t-22 8q0 29 23 29q59 0 131 10q-24 142 -61 174q-6 5 -25 13q-45 19 -45 40q1 7 9 13t15 6q106 0 158 -240q54 4 74 4t20 -10l-2 -10q0 -6 -88 -17q35 -191 35 -481z" />
    <glyph glyph-name="ntilde" unicode="&#xf1;" horiz-adv-x="862" 
d="M572 1659q20 0 32 -22q12 -23 11 -57q0 -34 -33 -66t-73 -33t-77 21t-56 42t-52 58l-14 6h-37q-3 -12 -21 -25t-18 -25t10 -48l-22 -31q-13 0 -26 11t-13 24q0 63 32 104t93 41q66 -34 81 -45q15 -30 40 -55t44 -25t25 2l14 -4q5 14 26 26t21 50l-12 39q5 12 25 12z
M707 1341q21 0 33 -19t12 -40v-137l-11 -17q0 -160 -22 -620t-43 -502q-5 -1 -19 -5t-16 -4v-1l-1 1q-19 -5 -29 -5q-9 0 -17 14t-12 35q-4 22 -9 29l2 6q-13 84 -53 194t-53 148q-7 9 -55 153q-184 571 -232 617q-16 -63 -16 -144l4 -161l-4 -99q0 -23 8 -143h-6
q0 -341 14 -377v-184q8 -14 8 -36q0 -48 -38 -48q-43 0 -43 110l8 134l-13 589l13 363v36q-1 27 1 36t5 36t31 50l6 -7l20 5q23 -8 28 -32l5 -22q35 -146 147 -407t136 -335t54 -208t81 -219l4 6q47 447 47 1116l-4 51q0 43 29 43z" />
    <glyph glyph-name="ograve" unicode="&#xf2;" horiz-adv-x="673" 
d="M62 1548q-70 0 -70 41q0 36 13 45q74 0 92 -23q3 -1 25 -9q204 -68 204 -107q0 -7 -8 -12t-14 -5t-103 34t-106 40q-20 -4 -33 -4zM326 20q81 0 119 114q55 163 55 429l-23 484l-8 16l4 10q0 89 -50 155t-122 66h-86q-17 0 -30 -182t-17 -203l-10 -192l4 -162
q0 -195 44 -371q16 -66 48 -115t72 -49zM334 -39q-240 0 -240 754q0 291 40 505q30 156 91 156q15 0 27 -11t34 -19t58 -14q38 -7 54 -10q41 -7 79 -79q86 -146 86 -442l-4 -10l4 -244q0 -461 -148 -561q-36 -25 -81 -25z" />
    <glyph glyph-name="oacute" unicode="&#xf3;" horiz-adv-x="673" 
d="M265 1509q-1 11 121 105t133 104q45 0 45 -32q0 -1 -6 -31q-103 -46 -256 -176q-37 0 -37 30zM326 20q81 0 119 114q55 163 55 429l-23 484l-8 16l4 10q0 89 -50 155t-122 66h-86q-17 0 -30 -182t-17 -203l-10 -192l4 -162q0 -195 44 -371q16 -66 48 -115t72 -49z
M334 -39q-240 0 -240 754q0 291 40 505q30 156 91 156q15 0 27 -11t34 -19t58 -14q38 -7 54 -10q41 -7 79 -79q86 -146 86 -442l-4 -10l4 -244q0 -461 -148 -561q-36 -25 -81 -25z" />
    <glyph glyph-name="ocircumflex" unicode="&#xf4;" horiz-adv-x="673" 
d="M331 1861q30 1 30 -41q-1 -42 9 -80t28 -87q18 -48 24 -74l-2 -13l15 -30l-2 -11q8 -16 8 -22q0 -19 -37 -25l-27 17q-10 124 -59 307q-26 -66 -55 -156t-31 -110l-35 -47l-37 26q2 45 72 195t99 151zM326 20q81 0 119 114q55 163 55 429l-23 484l-8 16l4 10
q0 89 -50 155t-122 66h-86q-17 0 -30 -182t-17 -203l-10 -192l4 -162q0 -195 44 -371q16 -66 48 -115t72 -49zM334 -39q-240 0 -240 754q0 291 40 505q30 156 91 156q15 0 27 -11t34 -19t58 -14q38 -7 54 -10q41 -7 79 -79q86 -146 86 -442l-4 -10l4 -244q0 -461 -148 -561
q-36 -25 -81 -25z" />
    <glyph glyph-name="otilde" unicode="&#xf5;" horiz-adv-x="673" 
d="M472 1659q20 0 32 -22q12 -23 11 -57q0 -34 -33 -66t-73 -33t-77 21t-56 42t-52 58l-14 6h-37q-3 -12 -21 -25t-18 -25t10 -48l-22 -31q-13 0 -26 11t-13 24q0 63 32 104t93 41q66 -34 81 -45q15 -30 40 -55t44 -25t25 2l14 -4q5 14 26 26t21 50l-12 39q5 12 25 12z
M326 20q81 0 119 114q55 163 55 429l-23 484l-8 16l4 10q0 89 -50 155t-122 66h-86q-17 0 -30 -182t-17 -203l-10 -192l4 -162q0 -195 44 -371q16 -66 48 -115t72 -49zM334 -39q-240 0 -240 754q0 291 40 505q30 156 91 156q15 0 27 -11t34 -19t58 -14q38 -7 54 -10
q41 -7 79 -79q86 -146 86 -442l-4 -10l4 -244q0 -461 -148 -561q-36 -25 -81 -25z" />
    <glyph glyph-name="odieresis" unicode="&#xf6;" horiz-adv-x="673" 
d="M113 1514q-1 -17 -17 -26t-34 -9t-28 17q-11 16 -11 34q-1 18 15 34t34 17q41 0 41 -67zM483 1534q-1 18 15 33q16 16 34 16q18 -1 32 -17t14 -32q0 -47 -54 -47q-16 1 -28 15t-13 32zM326 20q81 0 119 114q55 163 55 429l-23 484l-8 16l4 10q0 89 -50 155t-122 66h-86
q-17 0 -30 -182t-17 -203l-10 -192l4 -162q0 -195 44 -371q16 -66 48 -115t72 -49zM334 -39q-240 0 -240 754q0 291 40 505q30 156 91 156q15 0 27 -11t34 -19t58 -14q38 -7 54 -10q41 -7 79 -79q86 -146 86 -442l-4 -10l4 -244q0 -461 -148 -561q-36 -25 -81 -25z" />
    <glyph glyph-name="divide" unicode="&#xf7;" horiz-adv-x="620" 
d="M354 557q17 -1 26 -17t9 -34t-17 -28q-16 -11 -34 -11q-18 -1 -34 15t-17 34q0 41 67 41zM334 928q-18 0 -33 15q-16 15 -16 33q1 18 17 32t32 14q47 0 47 -53q-1 -17 -15 -29t-32 -12zM506 741q0 -16 -56 -18t-96 -2h-219q-17 -1 -30 9t-13 26q0 6 201 6h190q7 0 15 -7
t8 -14z" />
    <glyph glyph-name="oslash" unicode="&#xf8;" horiz-adv-x="565" 
d="M295 1264q-1 38 -19 52t-30 15q-12 0 -41 -10l-10 2q-58 -31 -58 -541q0 -97 15 -135q0 -65 12 -196t12 -197q19 116 57 464t50 428t12 118zM201 106q0 -81 84 -81q121 0 121 345q0 344 -20 568t-48 279q-34 -204 -74 -593t-52 -433t-11 -85zM272 -14q-68 0 -94 37h-2
l-2 -15q-30 -256 -51 -256t-21 29l50 323q0 13 -7 37t-11 47q-4 24 -10 66t-9 78q-4 36 -7 85t-5 79q-7 107 -7 332v165q0 389 137 389q23 0 56 -22l6 4l14 -14l45 241h33v-18l-41 -262q0 -15 27 -56l-2 -4q2 -12 14 -31q37 -59 37 -149l-4 -2q0 -49 13 -145t13 -144v-10
l5 -6l6 -354q1 -424 -183 -424z" />
    <glyph glyph-name="ugrave" unicode="&#xf9;" horiz-adv-x="651" 
d="M72 1561q-70 0 -70 41q0 36 13 45q74 0 92 -23q3 0 25 -8q204 -68 204 -108q0 -7 -8 -12t-14 -5q-6 1 -103 35t-106 39q-20 -4 -33 -4zM338 25q95 0 120 429q2 29 10 277t7 598l-4 37q-1 23 29 23q30 1 36 -13t5 -122q0 -108 -13 -158q2 -4 2 -13l-10 -163l2 -41
q-4 -52 -6 -140t-4 -244q-8 -396 -114 -494q-66 -61 -156 -10q-40 22 -66 55q-26 32 -42 212t-22 578t-16 483l13 29q47 -6 47 -113l6 -543l22 -434q0 -233 154 -233z" />
    <glyph glyph-name="uacute" unicode="&#xfa;" horiz-adv-x="651" 
d="M275 1521q-1 11 121 105t133 104q45 0 45 -32q0 -1 -6 -31q-103 -46 -256 -176q-37 0 -37 30zM338 25q95 0 120 429q2 29 10 277t7 598l-4 37q-1 23 29 23q30 1 36 -13t5 -122q0 -108 -13 -158q2 -4 2 -13l-10 -163l2 -41q-4 -52 -6 -140t-4 -244q-8 -396 -114 -494
q-66 -61 -156 -10q-40 22 -66 55q-26 32 -42 212t-22 578t-16 483l13 29q47 -6 47 -113l6 -543l22 -434q0 -233 154 -233z" />
    <glyph glyph-name="ucircumflex" unicode="&#xfb;" horiz-adv-x="651" 
d="M341 1874q30 0 30 -42q-1 -42 9 -80t28 -86t24 -74l-2 -13l15 -30l-2 -11q8 -16 8 -22q0 -19 -37 -25l-27 17q-10 124 -59 307q-26 -66 -55 -156t-31 -110l-35 -47l-37 26q2 46 72 196t99 150zM338 25q95 0 120 429q2 29 10 277t7 598l-4 37q-1 23 29 23q30 1 36 -13
t5 -122q0 -108 -13 -158q2 -4 2 -13l-10 -163l2 -41q-4 -52 -6 -140t-4 -244q-8 -396 -114 -494q-66 -61 -156 -10q-40 22 -66 55q-26 32 -42 212t-22 578t-16 483l13 29q47 -6 47 -113l6 -543l22 -434q0 -233 154 -233z" />
    <glyph glyph-name="udieresis" unicode="&#xfc;" horiz-adv-x="651" 
d="M123 1526q-1 -17 -17 -26t-34 -9t-28 17q-11 16 -11 34q-1 18 15 34t34 17q41 0 41 -67zM493 1546q-1 18 15 33q16 16 34 16q18 -1 32 -17t14 -32q0 -47 -54 -47q-16 1 -28 15t-13 32zM338 25q95 0 120 429q2 29 10 277t7 598l-4 37q-1 23 29 23q30 1 36 -13t5 -122
q0 -108 -13 -158q2 -4 2 -13l-10 -163l2 -41q-4 -52 -6 -140t-4 -244q-8 -396 -114 -494q-66 -61 -156 -10q-40 22 -66 55q-26 32 -42 212t-22 578t-16 483l13 29q47 -6 47 -113l6 -543l22 -434q0 -233 154 -233z" />
    <glyph glyph-name="yacute" unicode="&#xfd;" horiz-adv-x="561" 
d="M232 1509q0 11 122 105t132 104q45 0 45 -32q0 -1 -6 -31q-103 -46 -256 -176q-37 0 -37 30zM309 -31q-7 0 -17 8t-13 15q20 50 20 358q1 60 -7 171t-9 145l-13 26l6 25q-26 60 -112 302t-88 288l28 22q20 -3 60 -131t78 -255q38 -128 55 -132l8 37l-4 10q15 18 39 146
t53 242q28 114 54 114t26 -22q0 -29 -48 -189t-68 -250q-21 -89 -21 -176q10 -25 10 -35l-12 -59l16 -187l2 -325q0 -148 -43 -148z" />
    <glyph glyph-name="thorn" unicode="&#xfe;" horiz-adv-x="530" 
d="M205 739q135 0 135 273q0 37 -6 127l-4 4q-13 170 -103 170q-45 0 -45 -269l2 -110l-2 -143v-25l8 -27h15zM358 279v3q1 18 1 35q0 189 -59 287q-38 64 -112 64q-10 -152 -10 -270t6 -150q-12 -22 -12 -98l2 -93q76 -1 130 71t54 151zM121 1329q0 53 43 53q28 0 106 -24
t78 -43q-2 -4 -2 -6q38 -61 51 -121t13 -182t-33 -211h2q-7 -19 -31 -53t-29 -44q39 -30 63 -88t30 -103t8 -108l2 -53v-29q0 -196 -122 -290q-65 -50 -157 -50q-38 0 -40 44q-1 19 -1 63l21 432l-4 182l12 490q0 78 -2 119l-8 10v12z" />
    <glyph glyph-name="ydieresis" unicode="&#xff;" horiz-adv-x="561" 
d="M309 -31q-7 0 -17 8t-13 15q20 50 20 358q1 60 -7 171t-9 145l-13 26l6 25q-26 60 -112 302t-88 288l28 22q20 -3 60 -131t78 -255q38 -128 55 -132l8 37l-4 10q15 18 39 146t53 242q28 114 54 114t26 -22q0 -29 -48 -189t-68 -250q-21 -89 -21 -176q10 -25 10 -35
l-12 -59l16 -187l2 -325q0 -148 -43 -148zM78 1513q0 -17 -16 -25t-34 -9q-18 0 -29 17q-11 16 -11 34t16 34t33 17q41 0 41 -68zM449 1534q0 18 15 33q15 16 33 16q18 -1 32 -17t14 -32q0 -47 -54 -47q-16 1 -28 15t-12 32z" />
    <glyph glyph-name="Amacron" unicode="&#x100;" 
d="M509 1673h-149q-90 0 -116 8t-25 25q2 17 131 17h116q118 -1 133 -11t14 -24t-104 -15zM438 397q25 0 37 4l10 -4q19 0 19 19q0 428 -80 923q0 6 -4 22t-4 25q-25 -71 -27 -90l6 -12q-23 -23 -60 -277q-37 -255 -49 -311t-34 -130t-21 -128v-12q86 -29 207 -29zM590 44
q0 -44 -41 -44q-19 0 -31 10t-12 25q6 12 6 24l-6 41v203q0 27 -108 47t-160 19q-20 -1 -36 -75t-31 -163t-30 -111q-48 0 -63 25q32 46 62 224q30 179 47 259q19 80 65 349t67 364q65 295 103 295q32 0 42 -14t19 -75q8 -60 28 -278q19 -219 23 -287t19 -98q-4 -62 -4 -106
t18 -78l23 -534v-22z" />
    <glyph glyph-name="amacron" unicode="&#x101;" horiz-adv-x="667" 
d="M479 1478h-149q-90 0 -116 8t-25 25q2 17 131 17h116q118 0 133 -10t14 -26q-1 -14 -104 -14zM223 406q0 -20 62 -38t153 -18h21q-13 40 -13 92v47q0 127 -32 370t-33 362q-107 -529 -133 -653t-25 -162zM249 315q-35 0 -38 -2t-4 -7t-2 -7l-4 -41q-4 -52 -19 -125
q-28 -143 -59 -143q-13 0 -27 11t-14 24q26 77 54 233t35 194t26 156q19 117 25 154t35 173t44 274q15 137 25 155l28 -2q25 0 37 12q13 0 25 -8t12 -23q0 -98 25 -379q25 -282 39 -364t34 -162q19 -80 19 -121l-10 -28q0 -45 17 -135t17 -126t-16 -46q-41 0 -51 12t-10 38
t-4 66q-4 38 -6 61q-4 23 -12 73t-11 63q-39 10 -92 10l-54 -2q-29 12 -64 12z" />
    <glyph glyph-name="Abreve" unicode="&#x102;" 
d="M561 1864q0 -11 -11 -33l5 -15q-5 -10 -16 -36t-16 -35q-36 -72 -118 -72q-81 0 -114 66t-33 143l22 18q14 -1 19 -32q20 -108 53 -132l22 -16h51q27 0 49 38t21 66l-2 29q0 39 37 39q11 0 21 -8t10 -20zM438 397q25 0 37 4l10 -4q19 0 19 19q0 428 -80 923q0 6 -4 22
t-4 25q-25 -71 -27 -90l6 -12q-23 -23 -60 -277q-37 -255 -49 -311t-34 -130t-21 -128v-12q86 -29 207 -29zM590 44q0 -44 -41 -44q-19 0 -31 10t-12 25q6 12 6 24l-6 41v203q0 27 -108 47t-160 19q-20 -1 -36 -75t-31 -163t-30 -111q-48 0 -63 25q32 46 62 224
q30 179 47 259q19 80 65 349t67 364q65 295 103 295q32 0 42 -14t19 -75q8 -60 28 -278q19 -219 23 -287t19 -98q-4 -62 -4 -106t18 -78l23 -534v-22z" />
    <glyph glyph-name="abreve" unicode="&#x103;" horiz-adv-x="667" 
d="M532 1670q0 -11 -11 -33l5 -15q-5 -10 -16 -36t-16 -35q-36 -72 -118 -72t-114 66q-33 66 -33 143l22 18q14 -1 19 -32q20 -108 53 -132l22 -16h51q26 0 48 38t22 66l-2 29q0 39 37 39q11 0 21 -8t10 -20zM223 406q0 -20 62 -38t153 -18h21q-13 40 -13 92v47
q0 127 -32 370t-33 362q-107 -529 -133 -653t-25 -162zM249 315q-35 0 -38 -2t-4 -7t-2 -7l-4 -41q-4 -52 -19 -125q-28 -143 -59 -143q-13 0 -27 11t-14 24q26 77 54 233t35 194t26 156q19 117 25 154t35 173t44 274q15 137 25 155l28 -2q25 0 37 12q13 0 25 -8t12 -23
q0 -98 25 -379q25 -282 39 -364t34 -162q19 -80 19 -121l-10 -28q0 -45 17 -135t17 -126t-16 -46q-41 0 -51 12t-10 38t-4 66q-4 38 -6 61q-4 23 -12 73t-11 63q-39 10 -92 10l-54 -2q-29 12 -64 12z" />
    <glyph glyph-name="Aogonek" unicode="&#x104;" 
d="M590 44q0 -25 -7 -31l37 -5q4 2 2 -2t-14 -21q-96 -131 -96 -211q0 -19 -4 -47l-2 -43q0 -26 22 -55t47 -29l66 21q22 1 22 -23q1 -24 -29 -38t-59 -15q-63 0 -109 57q-46 58 -46 106q0 96 47 177q47 82 79 115q-17 1 -28 10q-12 10 -12 25q6 12 6 24l-6 41v203
q0 27 -108 47t-160 19q-20 -1 -36 -75t-31 -163t-30 -111q-48 0 -63 25q32 46 62 224q30 179 47 259q19 80 65 349t67 364q65 295 103 295q32 0 42 -14t19 -75q8 -60 28 -278q19 -219 23 -287t19 -98q-4 -62 -4 -106t18 -78l23 -534v-22zM438 397q25 0 37 4l10 -4
q19 0 19 19q0 428 -80 923q0 6 -4 22t-4 25q-25 -71 -27 -90l6 -12q-23 -23 -60 -277q-37 -255 -49 -311t-34 -130t-21 -128v-12q86 -29 207 -29z" />
    <glyph glyph-name="aogonek" unicode="&#x105;" horiz-adv-x="667" 
d="M671 -422q1 -24 -29 -38t-59 -14q-63 0 -109 57t-46 105q0 96 47 179q47 82 80 115l14 15l59 -8q4 2 2 -2t-14 -21q-96 -131 -96 -211q0 -19 -4 -47l-2 -43q0 -26 22 -55t47 -29l66 21q22 0 22 -24zM223 406q0 -20 62 -38t153 -18h21q-13 40 -13 92v47q0 127 -32 370
t-33 362q-107 -529 -133 -653t-25 -162zM249 315q-35 0 -38 -2t-4 -7t-2 -7l-4 -41q-4 -52 -19 -125q-28 -143 -59 -143q-13 0 -27 11t-14 24q26 77 54 233t35 194t26 156q19 117 25 154t35 173t44 274q15 137 25 155l28 -2q25 0 37 12q13 0 25 -8t12 -23q0 -98 25 -379
q25 -282 39 -364t34 -162q19 -80 19 -121l-10 -28q0 -45 17 -135t17 -126t-16 -46q-41 0 -51 12t-10 38t-4 66q-4 38 -6 61q-4 23 -12 73t-11 63q-39 10 -92 10l-54 -2q-29 12 -64 12z" />
    <glyph glyph-name="Cacute" unicode="&#x106;" 
d="M272 1704q0 12 122 106t132 103q45 0 45 -32q0 -1 -6 -31q-103 -46 -256 -176q-37 0 -37 30zM396 47q108 0 157 59q19 0 47 7l10 -11q0 -98 -156 -128q-38 -7 -84 -7t-109 46t-89 102t-51 348t-25 514t13 262q-7 35 -7 66q0 123 88 191t216 69q34 0 76 -22t42 -54
q0 -23 -32 -23q-9 0 -25 12q-17 12 -27 13q-10 0 -22 -4q-24 8 -49 8q-25 -1 -61 -11q-120 -35 -137 -186q-7 -61 -7 -145l6 -145l-18 -148q0 -121 27 -404t55 -326q54 -83 162 -83z" />
    <glyph glyph-name="cacute" unicode="&#x107;" horiz-adv-x="550" 
d="M215 1509q-1 11 121 105t133 104q45 0 45 -32q0 -1 -6 -31q-103 -46 -256 -176q-37 0 -37 30zM374 35q40 0 60 18q31 0 31 -22q1 -15 -27 -35t-51 -29h-68q-13 7 -48 18t-65 33q-110 81 -110 428v234q0 273 20 374q40 205 109 259q17 15 55 29t52 22h82q2 0 6 -1t5 -1
q28 -7 28 -29l-27 -30h-86q-42 1 -73 -39q-53 -67 -71 -197q-18 -129 -18 -229l-4 -11l-8 -413q0 -305 130 -362q38 -17 78 -17z" />
    <glyph glyph-name="Ccircumflex" unicode="&#x108;" 
d="M338 2056q30 0 30 -42t10 -80t26 -86q18 -48 25 -74l-2 -13l15 -30l-2 -11q8 -16 8 -22q0 -19 -37 -25l-27 17q-10 124 -59 307q-26 -66 -55 -156t-31 -110l-35 -47l-37 26q1 46 71 196t100 150zM396 47q108 0 157 59q19 0 47 7l10 -11q0 -98 -156 -128q-38 -7 -84 -7
t-109 46t-89 102t-51 348t-25 514t13 262q-7 35 -7 66q0 123 88 191t216 69q34 0 76 -22t42 -54q0 -23 -32 -23q-9 0 -25 12q-17 12 -27 13q-10 0 -22 -4q-24 8 -49 8q-25 -1 -61 -11q-120 -35 -137 -186q-7 -61 -7 -145l6 -145l-18 -148q0 -121 27 -404t55 -326
q54 -83 162 -83z" />
    <glyph glyph-name="ccircumflex" unicode="&#x109;" horiz-adv-x="550" 
d="M398 1861q30 1 30 -41t10 -80t26 -87q18 -48 25 -74l-2 -13l15 -30l-2 -11q8 -16 8 -22q0 -19 -37 -25l-27 17q-10 124 -59 307q-26 -66 -55 -156t-31 -110l-35 -47l-37 26q1 45 71 195t100 151zM374 35q40 0 60 18q31 0 31 -22q1 -15 -27 -35t-51 -29h-68q-13 7 -48 18
t-65 33q-110 81 -110 428v234q0 273 20 374q40 205 109 259q17 15 55 29t52 22h82q2 0 6 -1t5 -1q28 -7 28 -29l-27 -30h-86q-42 1 -73 -39q-53 -67 -71 -197q-18 -129 -18 -229l-4 -11l-8 -413q0 -305 130 -362q38 -17 78 -17z" />
    <glyph glyph-name="Cdotaccent" unicode="&#x10a;" 
d="M256 1723q0 19 16 37t36 17q18 1 34 -17t16 -36q0 -51 -57 -51q-17 -1 -31 15t-14 35zM396 47q108 0 157 59q19 0 47 7l10 -11q0 -98 -156 -128q-38 -7 -84 -7t-109 46t-89 102t-51 348t-25 514t13 262q-7 35 -7 66q0 123 88 191t216 69q34 0 76 -22t42 -54
q0 -23 -32 -23q-9 0 -25 12q-17 12 -27 13q-10 0 -22 -4q-24 8 -49 8q-25 -1 -61 -11q-120 -35 -137 -186q-7 -61 -7 -145l6 -145l-18 -148q0 -121 27 -404t55 -326q54 -83 162 -83z" />
    <glyph glyph-name="cdotaccent" unicode="&#x10b;" horiz-adv-x="550" 
d="M200 1529q0 19 16 37t36 17q18 1 34 -17t16 -36q0 -51 -57 -51q-17 -1 -31 15t-14 35zM374 35q40 0 60 18q31 0 31 -22q1 -15 -27 -35t-51 -29h-68q-13 7 -48 18t-65 33q-110 81 -110 428v234q0 273 20 374q40 205 109 259q17 15 55 29t52 22h82q2 0 6 -1t5 -1
q28 -7 28 -29l-27 -30h-86q-42 1 -73 -39q-53 -67 -71 -197q-18 -129 -18 -229l-4 -11l-8 -413q0 -305 130 -362q38 -17 78 -17z" />
    <glyph glyph-name="Ccaron" unicode="&#x10c;" 
d="M437 2032q0 -7 -8 -23l2 -10l-15 -31l2 -12q-7 -26 -34 -101t-27 -129t-30 -53q-29 1 -99 151t-72 195l37 27l35 -47q4 -33 44 -147t42 -119q49 183 59 307l27 16q37 -6 37 -24zM396 47q108 0 157 59q19 0 47 7l10 -11q0 -98 -156 -128q-38 -7 -84 -7t-109 46t-89 102
t-51 348t-25 514t13 262q-7 35 -7 66q0 123 88 191t216 69q34 0 76 -22t42 -54q0 -23 -32 -23q-9 0 -25 12q-17 12 -27 13q-10 0 -22 -4q-24 8 -49 8q-25 -1 -61 -11q-120 -35 -137 -186q-7 -61 -7 -145l6 -145l-18 -148q0 -121 27 -404t55 -326q54 -83 162 -83z" />
    <glyph glyph-name="ccaron" unicode="&#x10d;" horiz-adv-x="550" 
d="M380 1837q0 -7 -8 -23l2 -10l-15 -31l2 -12q-7 -26 -34 -101q-27 -74 -27 -128t-30 -54t-100 150t-71 196l37 27l35 -47q3 -34 43 -148t43 -118q49 183 59 307l27 16q37 -6 37 -24zM374 35q40 0 60 18q31 0 31 -22q1 -15 -27 -35t-51 -29h-68q-13 7 -48 18t-65 33
q-110 81 -110 428v234q0 273 20 374q40 205 109 259q17 15 55 29t52 22h82q2 0 6 -1t5 -1q28 -7 28 -29l-27 -30h-86q-42 1 -73 -39q-53 -67 -71 -197q-18 -129 -18 -229l-4 -11l-8 -413q0 -305 130 -362q38 -17 78 -17z" />
    <glyph glyph-name="Dcaron" unicode="&#x10e;" horiz-adv-x="702" 
d="M436 2032q0 -7 -8 -23l2 -10l-15 -31l2 -12q-7 -26 -34 -101t-27 -129t-30 -53t-100 151t-71 195l37 27l35 -47q3 -33 43 -147t43 -119q49 183 59 307l27 16q37 -6 37 -24zM211 368q0 -92 -4 -202l4 -8v-58h10q77 42 136 118q100 129 139 316q39 188 39 340
q0 599 -330 599q-41 0 -43 -23l18 -340q0 -132 16 -392q16 -258 15 -350zM82 1497q0 49 154 49h10q78 0 168 -86t118 -155t36 -165t12 -177q4 -80 14 -101l-4 -55l6 -10l-6 -17l6 -10q-12 -19 -12 -57t-4 -70t-8 -50q-4 -17 -14 -53t-28 -114q-56 -220 -186 -325t-154 -105
t-48 10t-27 31q29 37 32 82l9 180l2 82q0 120 -14 279t-17 198q-9 18 -10 256t-5 264t-16 62q-14 36 -14 57z" />
    <glyph glyph-name="dcaron" unicode="&#x10f;" horiz-adv-x="653" 
d="M736 1314q0 27 24 45t53 18q46 0 68 -60l-4 -6q4 -8 4 -33t-25 -83q-25 -59 -65 -107t-74 -49l-33 16l4 19q107 89 107 149q-25 14 -42 39t-17 52zM201 1262q-23 0 -23 -410t23 -733l-2 -39l8 -4l6 -27h63q12 17 30 31t26 20q145 131 145 492l-2 74l-10 206
q-4 116 -71 246q-30 62 -82 103t-111 41zM141 -10q-18 0 -18 55q-8 159 -8 356l4 484q0 213 -8 385q-17 14 -17 35t17 36t31 15t32 -16t26 -22q9 -4 43 -10q35 -6 57 -16q22 -12 73 -60t69 -61l-2 -4q2 -13 30 -53t36 -57q33 -89 33 -244l-2 -96q0 -81 10 -99
q-13 -67 -27 -220t-63 -246q-49 -94 -174 -162h-142z" />
    <glyph glyph-name="Dcroat" unicode="&#x110;" horiz-adv-x="839" 
d="M659 602q0 120 -3 234q-3 112 -40 251q-32 161 -124 285t-236 166l-4 -4q0 -129 14 -407t35 -306l141 23q17 0 29 -16t14 -33l-20 -25q-104 0 -168 -14q-1 -32 5 -162t9 -143l-2 -2q1 -73 11 -221t10 -222q27 6 39 18t21 22t13 13q103 101 179 262t77 281zM215 1606
q171 0 348 -246q42 -59 74 -119v-4q96 -271 96 -588q1 -133 -49 -281t-146 -276t-216 -180q-9 4 -29 10t-31 29h-2q0 271 -18 651q-10 126 -17 152l-125 -13q-16 1 -22 9t-6 26t36 28t72 10l37 -1l8 4l2 10q0 61 -14 184t-14 185l-17 367q0 7 12 25t21 18z" />
    <glyph glyph-name="dcroat" unicode="&#x111;" horiz-adv-x="653" 
d="M306 652q0 -6 -126 -12q4 -284 21 -521l-2 -39l8 -4l6 -27h63q12 17 30 31t26 20q145 131 145 492l-2 74l-10 206q-4 116 -71 246q-30 62 -82 103t-111 41q-23 0 -23 -410q0 -86 1 -167q43 2 65 2q62 0 62 -35zM141 -10q-18 0 -18 55q-8 159 -8 356l2 237h-9
q-62 0 -62 34q0 5 71 9l2 204q0 213 -8 385q-17 14 -17 35t17 36t31 15t32 -16t26 -22q9 -4 43 -10q35 -6 57 -16q22 -12 73 -60t69 -61l-2 -4q2 -13 30 -53t36 -57q33 -89 33 -244l-2 -96q0 -81 10 -99q-13 -67 -27 -220t-63 -246q-49 -94 -174 -162h-142z" />
    <glyph glyph-name="Emacron" unicode="&#x112;" horiz-adv-x="497" 
d="M292 1673h-148q-90 0 -116 8t-26 25q2 17 131 17h116q118 -1 133 -11t14 -24t-104 -15zM224 -12q-92 0 -106 14t-14 31l19 76v4q-8 41 -8 90l10 209l-12 438l10 407q0 37 -13 109t-14 107l37 57l143 18l7 -6q47 0 55 -12t8 -27q0 -39 -74 -39l-55 4q-45 0 -45 -24
l16 -348l-10 -256l-4 -4l12 -7l113 21q11 0 24 -12t13 -23q0 -41 -31 -41l-47 2q-78 0 -78 -39l15 -172l-7 -12v-416q11 -13 11 -57v-19l123 7q96 0 96 -33q-27 -47 -146 -47h-48z" />
    <glyph glyph-name="emacron" unicode="&#x113;" horiz-adv-x="491" 
d="M312 1478h-148q-91 0 -117 8q-25 8 -25 25q2 17 131 17h116q118 0 133 -10t14 -26q-1 -14 -104 -14zM304 717q-27 0 -40 16l-67 10h-9l-10 -10v-6q4 -53 4 -162l-4 -291q0 -204 28 -226q18 -15 66 -15l76 4q60 0 60 -27q0 -37 -89 -37h-169q-38 0 -41 43l2 52l-7 8
q15 41 15 84l-10 270l14 617l-8 245q0 58 59 58q23 0 33 -13q7 -2 59 -8q126 -14 129 -51q0 -16 -39 -39q-113 37 -166 39l-10 -12q2 -29 2 -88l-8 -318q0 -57 29 -57l69 4q78 0 80 -37q0 -53 -48 -53z" />
    <glyph glyph-name="Ebreve" unicode="&#x114;" horiz-adv-x="497" 
d="M345 1864q0 -11 -11 -33l5 -15q-5 -10 -16 -36t-16 -35q-35 -72 -117 -72t-115 66t-33 143l22 18q14 -1 19 -32q20 -108 53 -132l22 -16h51q27 0 49 38t21 66l-2 29q0 39 37 39q11 0 21 -8t10 -20zM224 -12q-92 0 -106 14t-14 31l19 76v4q-8 41 -8 90l10 209l-12 438
l10 407q0 37 -13 109t-14 107l37 57l143 18l7 -6q47 0 55 -12t8 -27q0 -39 -74 -39l-55 4q-45 0 -45 -24l16 -348l-10 -256l-4 -4l12 -7l113 21q11 0 24 -12t13 -23q0 -41 -31 -41l-47 2q-78 0 -78 -39l15 -172l-7 -12v-416q11 -13 11 -57v-19l123 7q96 0 96 -33
q-27 -47 -146 -47h-48z" />
    <glyph glyph-name="ebreve" unicode="&#x115;" horiz-adv-x="491" 
d="M365 1670q0 -11 -11 -33l5 -15q-5 -10 -16 -36t-16 -35q-35 -72 -117 -72t-115 66t-33 143l22 18q14 -1 19 -32q20 -108 53 -132l22 -16h51q27 0 49 38t21 66l-2 29q0 39 37 39q11 0 21 -8t10 -20zM304 717q-27 0 -40 16l-67 10h-9l-10 -10v-6q4 -53 4 -162l-4 -291
q0 -204 28 -226q18 -15 66 -15l76 4q60 0 60 -27q0 -37 -89 -37h-169q-38 0 -41 43l2 52l-7 8q15 41 15 84l-10 270l14 617l-8 245q0 58 59 58q23 0 33 -13q7 -2 59 -8q126 -14 129 -51q0 -16 -39 -39q-113 37 -166 39l-10 -12q2 -29 2 -88l-8 -318q0 -57 29 -57l69 4
q78 0 80 -37q0 -53 -48 -53z" />
    <glyph glyph-name="Edotaccent" unicode="&#x116;" horiz-adv-x="497" 
d="M148 1723q0 19 16 37t36 17q18 1 34 -17t16 -36q0 -51 -57 -51q-17 -1 -31 15t-14 35zM224 -12q-92 0 -106 14t-14 31l19 76v4q-8 41 -8 90l10 209l-12 438l10 407q0 37 -13 109t-14 107l37 57l143 18l7 -6q47 0 55 -12t8 -27q0 -39 -74 -39l-55 4q-45 0 -45 -24l16 -348
l-10 -256l-4 -4l12 -7l113 21q11 0 24 -12t13 -23q0 -41 -31 -41l-47 2q-78 0 -78 -39l15 -172l-7 -12v-416q11 -13 11 -57v-19l123 7q96 0 96 -33q-27 -47 -146 -47h-48z" />
    <glyph glyph-name="edotaccent" unicode="&#x117;" horiz-adv-x="491" 
d="M168 1529q0 19 16 37t36 17q18 1 34 -17t16 -36q0 -51 -57 -51q-17 -1 -31 15t-14 35zM304 717q-27 0 -40 16l-67 10h-9l-10 -10v-6q4 -53 4 -162l-4 -291q0 -204 28 -226q18 -15 66 -15l76 4q60 0 60 -27q0 -37 -89 -37h-169q-38 0 -41 43l2 52l-7 8q15 41 15 84
l-10 270l14 617l-8 245q0 58 59 58q23 0 33 -13q7 -2 59 -8q126 -14 129 -51q0 -16 -39 -39q-113 37 -166 39l-10 -12q2 -29 2 -88l-8 -318q0 -57 29 -57l69 4q78 0 80 -37q0 -53 -48 -53z" />
    <glyph glyph-name="Eogonek" unicode="&#x118;" horiz-adv-x="497" 
d="M354 -414q0 -24 -30 -38t-58 -15q-62 0 -108 57q-46 58 -47 106q0 96 47 177t79 115h-13q-92 0 -106 14t-14 31l19 76v4q-8 41 -8 90l10 209l-12 438l10 407q0 37 -13 109t-14 107l37 57l143 18l7 -6q47 0 55 -12t8 -27q0 -39 -74 -39l-55 4q-45 0 -45 -24l16 -348
l-10 -256l-4 -4l12 -7l113 21q11 0 24 -12t13 -23q0 -41 -31 -41l-47 2q-78 0 -78 -39l15 -172l-7 -12v-416q11 -13 11 -57v-19l123 7q96 0 96 -33q-17 -30 -51 -37t-56 -8q-4 -6 -12 -17q-96 -131 -96 -211q0 -19 -4 -47l-2 -43q0 -26 22 -55t47 -29l66 21q22 1 22 -23z
" />
    <glyph glyph-name="eogonek" unicode="&#x119;" horiz-adv-x="491" 
d="M304 717q-27 0 -40 16l-67 10h-9l-10 -10v-6q4 -53 4 -162l-4 -291q0 -204 28 -226q18 -15 66 -15l76 4q60 0 60 -27q0 -37 -89 -37h-41q-4 -5 -10 -15q-96 -131 -96 -211q0 -19 -4 -47l-2 -43q0 -26 22 -55t47 -29l66 21q22 0 22 -24q1 -24 -29 -38t-59 -14
q-63 0 -109 57t-46 105q0 96 47 178q47 81 79 115h-56q-38 0 -41 43l2 52l-7 8q15 41 15 84l-10 270l14 617l-8 245q0 58 59 58q23 0 33 -13q7 -2 59 -8q126 -14 129 -51q0 -16 -39 -39q-113 37 -166 39l-10 -12q2 -29 2 -88l-8 -318q0 -57 29 -57l69 4q78 0 80 -37
q0 -53 -48 -53z" />
    <glyph glyph-name="Ecaron" unicode="&#x11a;" horiz-adv-x="497" 
d="M328 2032q0 -7 -8 -23l2 -10l-15 -31l2 -12q-7 -26 -34 -101t-27 -129t-30 -53t-100 151t-71 195l37 27l35 -47q3 -33 43 -147t43 -119q49 183 59 307l27 16q37 -6 37 -24zM224 -12q-92 0 -106 14t-14 31l19 76v4q-8 41 -8 90l10 209l-12 438l10 407q0 37 -13 109
t-14 107l37 57l143 18l7 -6q47 0 55 -12t8 -27q0 -39 -74 -39l-55 4q-45 0 -45 -24l16 -348l-10 -256l-4 -4l12 -7l113 21q11 0 24 -12t13 -23q0 -41 -31 -41l-47 2q-78 0 -78 -39l15 -172l-7 -12v-416q11 -13 11 -57v-19l123 7q96 0 96 -33q-27 -47 -146 -47h-48z" />
    <glyph glyph-name="ecaron" unicode="&#x11b;" horiz-adv-x="491" 
d="M348 1837q0 -7 -8 -23l2 -10l-15 -31l2 -12q-7 -26 -34 -101q-27 -74 -27 -128t-30 -54t-100 150t-71 196l37 27l35 -47q3 -34 43 -148t43 -118q49 183 59 307l27 16q37 -6 37 -24zM304 717q-27 0 -40 16l-67 10h-9l-10 -10v-6q4 -53 4 -162l-4 -291q0 -204 28 -226
q18 -15 66 -15l76 4q60 0 60 -27q0 -37 -89 -37h-169q-38 0 -41 43l2 52l-7 8q15 41 15 84l-10 270l14 617l-8 245q0 58 59 58q23 0 33 -13q7 -2 59 -8q126 -14 129 -51q0 -16 -39 -39q-113 37 -166 39l-10 -12q2 -29 2 -88l-8 -318q0 -57 29 -57l69 4q78 0 80 -37
q0 -53 -48 -53z" />
    <glyph glyph-name="Gcircumflex" unicode="&#x11c;" horiz-adv-x="774" 
d="M368 2056q30 0 30 -42t10 -80t26 -86q18 -48 25 -74l-2 -13l15 -30l-2 -11q8 -16 8 -22q0 -19 -37 -25l-27 17q-10 124 -59 307q-26 -66 -55 -156t-31 -110l-35 -47l-37 26q1 46 71 196t100 150zM571 463q64 0 64 -86q1 -61 21 -183t20 -182q0 -32 -27 -32q-49 0 -49 45
q0 1 1 5t1 5q-20 -6 -52 -29t-48 -28t-48 -7t-47 -11q-133 30 -193 87t-82 179q-38 203 -38 651q0 176 10 250q21 158 57 246q79 198 259 198q61 0 61 -35q0 -25 -30 -25l-58 11q-157 0 -203 -287q-26 -156 -26 -408q-6 -163 -6 -225t1 -96t5 -87q5 -73 29 -169
q24 -97 81 -161q58 -64 159 -64t167 102q0 153 -18 209t-35 55l-82 -8q-47 0 -47 35q0 19 60 32t93 13zM410 -41q-3 1 -4 0h4z" />
    <glyph glyph-name="gcircumflex" unicode="&#x11d;" horiz-adv-x="688" 
d="M335 1861q30 1 30 -41q-1 -42 9 -80t28 -87q18 -48 24 -74l-2 -13l15 -30l-2 -11q8 -16 8 -22q0 -19 -37 -25l-27 17q-10 124 -59 307q-26 -66 -55 -156t-31 -110l-35 -47l-37 26q2 45 72 195t99 151zM168 610q0 -82 6 -131q16 -25 21 -81t9 -114q4 -57 16 -113t53 -91
t112 -35q123 0 123 327v150q-21 21 -72 21l-39 -2q-49 0 -49 24q0 35 49 35q189 0 189 -41l-23 -153l8 -314q-106 -106 -209 -106q-136 0 -178 56t-68 260q-24 204 -24 290t10 191t16 199t21 158q49 216 232 216q63 0 63 -29q0 -15 -14 -23t-27 -8l-39 4q-186 0 -186 -690z
" />
    <glyph glyph-name="Gbreve" unicode="&#x11e;" horiz-adv-x="774" 
d="M484 1864q0 -11 -11 -33l5 -15q-5 -10 -16 -36t-16 -35q-36 -72 -118 -72t-114 66q-33 66 -33 143l22 18q14 -1 19 -32q20 -108 53 -132l22 -16h51q26 0 48 38t22 66l-2 29q0 39 37 39q11 0 21 -8t10 -20zM571 463q64 0 64 -86q1 -61 21 -183t20 -182q0 -32 -27 -32
q-49 0 -49 45q0 1 1 5t1 5q-20 -6 -52 -29t-48 -28t-48 -7t-47 -11q-133 30 -193 87t-82 179q-38 203 -38 651q0 176 10 250q21 158 57 246q79 198 259 198q61 0 61 -35q0 -25 -30 -25l-58 11q-157 0 -203 -287q-26 -156 -26 -408q-6 -163 -6 -225t1 -96t5 -87
q5 -73 29 -169q24 -97 81 -161q58 -64 159 -64t167 102q0 153 -18 209t-35 55l-82 -8q-47 0 -47 35q0 19 60 32t93 13zM410 -41q-3 1 -4 0h4z" />
    <glyph glyph-name="gbreve" unicode="&#x11f;" horiz-adv-x="688" 
d="M451 1670q0 -11 -11 -33l5 -15q-5 -10 -16 -36t-16 -35q-35 -72 -117 -72t-115 66t-33 143l22 18q14 -1 19 -32q20 -108 53 -132l22 -16h51q27 0 49 38t21 66l-2 29q0 39 37 39q11 0 21 -8t10 -20zM168 610q0 -82 6 -131q16 -25 21 -81t9 -114q4 -57 16 -113t53 -91
t112 -35q123 0 123 327v150q-21 21 -72 21l-39 -2q-49 0 -49 24q0 35 49 35q189 0 189 -41l-23 -153l8 -314q-106 -106 -209 -106q-136 0 -178 56t-68 260q-24 204 -24 290t10 191t16 199t21 158q49 216 232 216q63 0 63 -29q0 -15 -14 -23t-27 -8l-39 4q-186 0 -186 -690z
" />
    <glyph glyph-name="Gdotaccent" unicode="&#x120;" horiz-adv-x="774" 
d="M286 1723q0 19 16 37t36 17q18 1 34 -17t16 -36q0 -51 -57 -51q-17 -1 -31 15t-14 35zM571 463q64 0 64 -86q1 -61 21 -183t20 -182q0 -32 -27 -32q-49 0 -49 45q0 1 1 5t1 5q-20 -6 -52 -29t-48 -28t-48 -7t-47 -11q-133 30 -193 87t-82 179q-38 203 -38 651
q0 176 10 250q21 158 57 246q79 198 259 198q61 0 61 -35q0 -25 -30 -25l-58 11q-157 0 -203 -287q-26 -156 -26 -408q-6 -163 -6 -225t1 -96t5 -87q5 -73 29 -169q24 -97 81 -161q58 -64 159 -64t167 102q0 153 -18 209t-35 55l-82 -8q-47 0 -47 35q0 19 60 32t93 13z
M410 -41q-3 1 -4 0h4z" />
    <glyph glyph-name="gdotaccent" unicode="&#x121;" horiz-adv-x="688" 
d="M253 1529q1 19 17 37t35 17q19 1 35 -17t15 -36q0 -51 -57 -51q-18 -1 -32 15t-13 35zM168 610q0 -82 6 -131q16 -25 21 -81t9 -114q4 -57 16 -113t53 -91t112 -35q123 0 123 327v150q-21 21 -72 21l-39 -2q-49 0 -49 24q0 35 49 35q189 0 189 -41l-23 -153l8 -314
q-106 -106 -209 -106q-136 0 -178 56t-68 260q-24 204 -24 290t10 191t16 199t21 158q49 216 232 216q63 0 63 -29q0 -15 -14 -23t-27 -8l-39 4q-186 0 -186 -690z" />
    <glyph glyph-name="Gcommaaccent" unicode="&#x122;" horiz-adv-x="774" 
d="M367 -207q1 28 25 46t53 18q46 0 68 -60l-4 -6q4 -7 4 -33t-25 -84t-65 -106t-74 -49l-33 16l4 18q107 86 107 150q-60 36 -60 90zM571 463q64 0 64 -86q1 -61 21 -183t20 -182q0 -32 -27 -32q-49 0 -49 45q0 1 1 5t1 5q-20 -6 -52 -29t-48 -28t-48 -7t-47 -11
q-133 30 -193 87t-82 179q-38 203 -38 651q0 176 10 250q21 158 57 246q79 198 259 198q61 0 61 -35q0 -25 -30 -25l-58 11q-157 0 -203 -287q-26 -156 -26 -408q-6 -163 -6 -225t1 -96t5 -87q5 -73 29 -169q24 -97 81 -161q58 -64 159 -64t167 102q0 153 -18 209t-35 55
l-82 -8q-47 0 -47 35q0 19 60 32t93 13zM410 -41q-3 1 -4 0h4z" />
    <glyph glyph-name="gcommaaccent" unicode="&#x123;" horiz-adv-x="688" 
d="M297 -165q1 27 25 45t52 18t42 -16t26 -44l-4 -6q4 -8 4 -34t-24 -83q-24 -58 -65 -106q-40 -48 -74 -49l-33 16l4 18q4 4 28 25q78 69 78 125q-25 14 -42 39t-17 52zM168 610q0 -82 6 -131q16 -25 21 -81t9 -114q4 -57 16 -113t53 -91t112 -35q123 0 123 327v150
q-21 21 -72 21l-39 -2q-49 0 -49 24q0 35 49 35q189 0 189 -41l-23 -153l8 -314q-106 -106 -209 -106q-136 0 -178 56t-68 260q-24 204 -24 290t10 191t16 199t21 158q49 216 232 216q63 0 63 -29q0 -15 -14 -23t-27 -8l-39 4q-186 0 -186 -690z" />
    <glyph glyph-name="Hcircumflex" unicode="&#x124;" horiz-adv-x="602" 
d="M295 2056q30 0 30 -42q-1 -42 9 -80t28 -86t24 -74l-2 -13l15 -30l-2 -11q8 -16 8 -22q0 -19 -37 -25l-27 17q-10 124 -59 307q-26 -66 -55 -156t-31 -110l-35 -47l-37 26q2 46 72 196t99 150zM453 1232q0 -214 15 -662t15 -521q9 -19 9 -31t-12 -32t-25 -19
q-29 0 -29 45l2 47q0 315 -20 703l-13 -2l-78 10q-102 0 -145 -25q0 -119 18 -354t17 -354q0 -31 -21 -31q-26 0 -34 24t-11 140q-3 118 -5 254t-5 174q-37 500 -37 934l33 16l27 -22q-9 -76 -9 -152l17 -416l-2 -81q0 -41 8 -72l240 16l2 4l-19 695q0 8 4 28q39 0 49 -50
t9 -266z" />
    <glyph glyph-name="hcircumflex" unicode="&#x125;" horiz-adv-x="606" 
d="M284 1861q30 1 30 -41t10 -80t26 -87q18 -48 25 -74l-2 -13l15 -30l-2 -11q8 -16 8 -22q0 -19 -37 -25l-27 17q-10 124 -59 307q-26 -66 -55 -156t-31 -110l-35 -47l-37 26q1 45 71 195t100 151zM352 735v4l4 -4h-4zM412 1374q7 0 43 -12q0 -160 13 -478t13 -514
q0 -194 13 -370l-13 -23q-2 21 -63 21q-10 455 -10 549l-5 8l7 18q0 32 -7 76l-32 8q-18 -6 -41 -6l-131 21l-21 -8l-6 -258l6 -9l12 -342q0 -53 -34 -53q-45 0 -45 123l4 375q0 186 -6 200q10 20 10 136l-15 479q0 15 10 27t25 12q41 0 41 -119l-8 -500q0 -24 164 -24
q38 1 56 15t18 80t-14 254t-13 283q0 13 11 22t18 9z" />
    <glyph glyph-name="Hbar" unicode="&#x126;" horiz-adv-x="602" 
d="M96 1206q-15 0 -29 10t-14 25q0 3 45 6q-4 146 -4 285l33 16l27 -22q-9 -76 -9 -152l5 -126q86 2 248 3l-7 269q0 8 4 28q39 0 48 -49t10 -248q10 -1 19 -12t9 -27h-28q1 -215 15 -652q15 -438 15 -511q9 -19 9 -31t-12 -32t-25 -19q-29 0 -29 45l2 47q0 315 -20 703
l-13 -2l-78 10q-102 0 -145 -25q0 -119 18 -354t17 -354q0 -31 -21 -31q-26 0 -34 24t-11 140q-3 118 -5 254t-15 314t-22 468h-3zM152 1207l10 -249l-2 -81q0 -41 8 -72l240 16l2 4l-11 387q-79 -1 -233 -5h-14zM481 1212z" />
    <glyph glyph-name="hbar" unicode="&#x127;" horiz-adv-x="606" 
d="M352 735v4l4 -4h-4zM383 1343q0 13 11 22t18 9t43 -12q0 -90 4 -231q22 -9 22 -22t-21 -21q3 -92 12 -308t9 -410t13 -370l-13 -23q-2 21 -63 21q-10 455 -10 549l-5 8l7 18q0 32 -7 76l-32 8q-18 -6 -41 -6l-131 21l-21 -8l-6 -258l6 -9l12 -342q0 -53 -34 -53
q-45 0 -45 123l4 375q0 186 -6 200q10 20 10 136l-7 213q-26 7 -26 31q0 9 25 18l-7 217q0 15 10 27t25 12q41 0 41 -119l-2 -122q128 22 213 26q-8 131 -8 204zM336 711q38 1 56 15t18 80t-7 163t-7 103q-126 -23 -219 -27l-5 -310q0 -24 164 -24z" />
    <glyph glyph-name="Itilde" unicode="&#x128;" horiz-adv-x="477" 
d="M348 1853q20 0 30 -22q12 -23 12 -57t-33 -66t-73 -33t-77 21t-56 42t-52 58l-14 6h-37q-3 -12 -21 -25t-18 -25t10 -48l-22 -31q-13 0 -26 11t-13 24q0 63 32 104t93 41q66 -34 81 -45q15 -30 40 -55t44 -25t25 2l14 -4q5 14 26 26t21 50l-12 39q6 12 26 12zM185 10
q-94 0 -109 35q0 23 47 23l45 -2q41 0 42 59q0 59 -6 144t-8 169t-11 327q-10 243 -13 349l2 240q0 99 -6 119l-70 -15q-22 0 -22 28t90 48q90 18 133 18t43 -34t-25 -33l-49 2q-35 0 -42 -33q-7 -27 -7 -159q-1 -132 25 -523t26 -588l-2 -106l74 6q53 0 53 -51l-35 -25
l-65 10q-23 0 -47 -24q-46 0 -58 16h-5z" />
    <glyph glyph-name="itilde" unicode="&#x129;" horiz-adv-x="550" 
d="M414 1659q20 0 30 -22q12 -23 12 -57t-33 -66t-73 -33t-77 21t-56 42t-52 58l-14 6h-37q-3 -12 -21 -25t-18 -25t10 -48l-22 -31q-13 0 -26 11t-13 24q0 63 32 104t93 41q66 -34 81 -45q15 -30 40 -55t44 -25t25 2l14 -4q5 14 26 26t21 50l-12 39q6 12 26 12zM266 0
q-30 0 -39 20l-34 -2q-44 0 -56 21q-1 13 11 21t16 14h59l8 8l7 43l-15 448l10 478q0 139 -10 237q-20 6 -61 6l-49 -4q-39 0 -39 35q0 9 18 17t31 8q285 0 285 -62q0 -6 -5 -16l-47 -4q-16 12 -59 12l-10 -6q6 -18 6 -109l-6 -487l14 -449l-2 -63q0 -48 6 -57l-2 -5
q0 -20 45 -20l60 2q61 0 61 -29q0 -17 -13 -29t-32 -12l-68 7q-16 1 -38 -11t-52 -12z" />
    <glyph glyph-name="Imacron" unicode="&#x12a;" horiz-adv-x="477" 
d="M268 1673h-148q-90 0 -116 8t-26 25q2 17 131 17h116q118 -1 133 -11t14 -24t-104 -15zM185 10q-94 0 -109 35q0 23 47 23l45 -2q41 0 42 59q0 59 -6 144t-8 169t-11 327q-10 243 -13 349l2 240q0 99 -6 119l-70 -15q-22 0 -22 28t90 48q90 18 133 18t43 -34t-25 -33
l-49 2q-35 0 -42 -33q-7 -27 -7 -159q-1 -132 25 -523t26 -588l-2 -106l74 6q53 0 53 -51l-35 -25l-65 10q-23 0 -47 -24q-46 0 -58 16h-5z" />
    <glyph glyph-name="imacron" unicode="&#x12b;" horiz-adv-x="550" 
d="M334 1478h-148q-90 0 -116 8t-26 25q2 17 131 17h116q118 0 133 -10t14 -26q-1 -14 -104 -14zM266 0q-30 0 -39 20l-34 -2q-44 0 -56 21q-1 13 11 21t16 14h59l8 8l7 43l-15 448l10 478q0 139 -10 237q-20 6 -61 6l-49 -4q-39 0 -39 35q0 9 18 17t31 8q285 0 285 -62
q0 -6 -5 -16l-47 -4q-16 12 -59 12l-10 -6q6 -18 6 -109l-6 -487l14 -449l-2 -63q0 -48 6 -57l-2 -5q0 -20 45 -20l60 2q61 0 61 -29q0 -17 -13 -29t-32 -12l-68 7q-16 1 -38 -11t-52 -12z" />
    <glyph glyph-name="Ibreve" unicode="&#x12c;" horiz-adv-x="477" 
d="M320 1864q0 -11 -11 -33l5 -15q-5 -10 -16 -36t-16 -35q-36 -72 -117 -72q-82 0 -115 66t-33 143l22 18q14 -1 19 -32q20 -108 53 -132l22 -16h51q26 0 48 38t22 66l-2 29q0 39 37 39q11 0 21 -8t10 -20zM185 10q-94 0 -109 35q0 23 47 23l45 -2q41 0 42 59q0 59 -6 144
t-8 169t-11 327q-10 243 -13 349l2 240q0 99 -6 119l-70 -15q-22 0 -22 28t90 48q90 18 133 18t43 -34t-25 -33l-49 2q-35 0 -42 -33q-7 -27 -7 -159q-1 -132 25 -523t26 -588l-2 -106l74 6q53 0 53 -51l-35 -25l-65 10q-23 0 -47 -24q-46 0 -58 16h-5z" />
    <glyph glyph-name="ibreve" unicode="&#x12d;" horiz-adv-x="550" 
d="M387 1670q0 -11 -11 -33l5 -15q-5 -10 -16 -36t-16 -35q-35 -72 -117 -72t-115 66t-33 143l22 18q14 -1 19 -32q20 -108 53 -132l22 -16h51q27 0 49 38t21 66l-2 29q0 39 37 39q11 0 21 -8t10 -20zM266 0q-30 0 -39 20l-34 -2q-44 0 -56 21q-1 13 11 21t16 14h59l8 8
l7 43l-15 448l10 478q0 139 -10 237q-20 6 -61 6l-49 -4q-39 0 -39 35q0 9 18 17t31 8q285 0 285 -62q0 -6 -5 -16l-47 -4q-16 12 -59 12l-10 -6q6 -18 6 -109l-6 -487l14 -449l-2 -63q0 -48 6 -57l-2 -5q0 -20 45 -20l60 2q61 0 61 -29q0 -17 -13 -29t-32 -12l-68 7
q-16 1 -38 -11t-52 -12z" />
    <glyph glyph-name="Iogonek" unicode="&#x12e;" horiz-adv-x="477" 
d="M327 -408q1 -24 -29 -38t-59 -15q-63 0 -109 57q-46 58 -46 106q0 96 45 175t84 120q-17 4 -23 13h-5q-94 0 -109 35q0 23 47 23l45 -2q41 0 42 59q0 59 -6 144t-8 169t-11 327q-10 243 -13 349l2 240q0 99 -6 119l-70 -15q-22 0 -22 28t90 48q90 18 133 18t43 -34
t-25 -33l-49 2q-35 0 -42 -33q-7 -27 -7 -159q-1 -132 25 -523t26 -588l-2 -106l74 6q53 0 53 -51l-35 -25l-65 10q-17 0 -34 -13l23 -3q4 2 2 -2t-14 -21q-96 -131 -96 -211q0 -19 -4 -47l-2 -43q0 -26 22 -55t47 -29l66 21q22 1 22 -23z" />
    <glyph glyph-name="iogonek" unicode="&#x12f;" horiz-adv-x="550" 
d="M386 -402q0 -24 -30 -38t-58 -15q-62 0 -108 57q-46 58 -47 106q0 96 47 177t79 115h-3q-30 0 -39 20l-34 -2q-44 0 -56 21q-1 13 11 21t16 14h59l8 8l7 43l-15 448l10 478q0 139 -10 237q-20 6 -61 6l-49 -4q-39 0 -39 35q0 9 18 17t31 8q285 0 285 -62q0 -6 -5 -16
l-47 -4q-16 12 -59 12l-10 -6q6 -18 6 -109l-6 -487l14 -449l-2 -63q0 -48 6 -57l-2 -5q0 -20 45 -20l60 2q61 0 61 -29q0 -17 -13 -29t-32 -12l-68 7q-16 1 -38 -11l25 -4q4 2 2 -2t-14 -21q-96 -131 -96 -211q0 -19 -4 -47l-2 -43q0 -26 22 -55t47 -29l66 21q22 1 22 -23z
" />
    <glyph glyph-name="Idotaccent" unicode="&#x130;" horiz-adv-x="477" 
d="M123 1723q1 19 17 37t35 17q19 1 35 -17t15 -36q0 -51 -57 -51q-18 -1 -32 15t-13 35zM185 10q-94 0 -109 35q0 23 47 23l45 -2q41 0 42 59q0 59 -6 144t-8 169t-11 327q-10 243 -13 349l2 240q0 99 -6 119l-70 -15q-22 0 -22 28t90 48q90 18 133 18t43 -34t-25 -33
l-49 2q-35 0 -42 -33q-7 -27 -7 -159q-1 -132 25 -523t26 -588l-2 -106l74 6q53 0 53 -51l-35 -25l-65 10q-23 0 -47 -24q-46 0 -58 16h-5z" />
    <glyph glyph-name="dotlessi" unicode="&#x131;" horiz-adv-x="550" 
d="M266 0q-30 0 -39 20l-34 -2q-44 0 -56 21q-1 13 11 21t16 14h59l8 8l7 43l-15 448l10 478q0 139 -10 237q-20 6 -61 6l-49 -4q-39 0 -39 35q0 9 18 17t31 8q285 0 285 -62q0 -6 -5 -16l-47 -4q-16 12 -59 12l-10 -6q6 -18 6 -109l-6 -487l14 -449l-2 -63q0 -48 6 -57
l-2 -5q0 -20 45 -20l60 2q61 0 61 -29q0 -17 -13 -29t-32 -12l-68 7q-16 1 -38 -11t-52 -12z" />
    <glyph glyph-name="IJ" unicode="&#x132;" horiz-adv-x="946" 
d="M686 -25q2 0 2 -2zM743 221q0 106 -10 303q-9 197 -17 521t-30 444l-109 -19q-12 0 -20 10t-8 21q0 51 282 51q13 0 23 -10t10 -22q0 -31 -95 -31h-22l-2 -39q1 -54 13 -162t12 -204t18 -369q18 -272 19 -410l-11 -168q0 -23 7 -37l-15 -32q-4 -73 -55 -148t-111 -119
q-43 0 -43 39q2 18 35 40t39 28q90 90 90 313zM185 10q-94 0 -109 35q0 23 47 23l45 -2q41 0 42 59q0 59 -6 144t-8 169t-11 327q-10 243 -13 349l2 240q0 99 -6 119l-70 -15q-22 0 -22 28t90 48q90 18 133 18t43 -34t-25 -33l-49 2q-35 0 -42 -33q-7 -27 -7 -159
q-1 -132 25 -523t26 -588l-2 -106l74 6q53 0 53 -51l-35 -25l-65 10q-23 0 -47 -24q-46 0 -58 16h-5z" />
    <glyph glyph-name="ij" unicode="&#x133;" horiz-adv-x="1124" 
d="M662 1335q0 9 17 17t50 8t175 -29t143 -57q0 -28 -33 -27l-111 21q-18 0 -18 -41l20 -850v-225q-12 -27 -12 -77q0 -49 -13 -101t-37 -104t-66 -87t-93 -35h-14l-47 47l-2 8q-1 9 73 57t82 56q34 37 50 113t16 143l-19 1088l-12 22q-9 4 -50 10q-99 13 -99 43zM266 0
q-30 0 -39 20l-34 -2q-44 0 -56 21q-1 13 11 21t16 14h59l8 8l7 43l-15 448l10 478q0 139 -10 237q-20 6 -61 6l-49 -4q-39 0 -39 35q0 9 18 17t31 8q285 0 285 -62q0 -6 -5 -16l-47 -4q-16 12 -59 12l-10 -6q6 -18 6 -109l-6 -487l14 -449l-2 -63q0 -48 6 -57l-2 -5
q0 -20 45 -20l60 2q61 0 61 -29q0 -17 -13 -29t-32 -12l-68 7q-16 1 -38 -11t-52 -12z" />
    <glyph glyph-name="Jcircumflex" unicode="&#x134;" horiz-adv-x="468" 
d="M237 2056q30 0 30 -42q-1 -42 9 -80t28 -86t24 -74l-2 -13l15 -30l-2 -11q8 -16 8 -22q0 -19 -37 -25l-27 17q-10 124 -59 307q-26 -66 -55 -156t-31 -110l-35 -47l-37 26q2 46 72 196t99 150zM209 -25q2 0 2 -2zM266 221q0 106 -10 303t-18 521t-29 444l-109 -19
q-12 0 -20 10t-8 21q0 51 282 51q14 0 24 -10t9 -22q0 -31 -95 -31h-22l-2 -39q0 -54 12 -162t13 -204t19 -369q18 -272 18 -410l-11 -168q0 -23 7 -37l-15 -32q-4 -73 -55 -148t-111 -119q-43 0 -43 39q2 18 35 40t39 28q90 90 90 313z" />
    <glyph glyph-name="jcircumflex" unicode="&#x135;" horiz-adv-x="573" 
d="M277 1861q30 1 30 -41q-1 -42 9 -80t28 -87q18 -48 24 -74l-2 -13l15 -30l-2 -11q8 -16 8 -22q0 -19 -37 -25l-27 17q-10 124 -59 307q-26 -66 -55 -156t-31 -110l-35 -47l-37 26q2 45 72 195t99 151zM111 1335q0 9 17 17t50 8q34 0 176 -29t142 -57t-33 -27l-111 21
q-18 0 -18 -41l20 -850v-225q-12 -27 -12 -77q0 -49 -13 -101t-37 -104t-66 -87t-93 -35h-14l-47 47l-2 8q0 9 74 57t81 56q33 37 49 113t17 143l-19 1088l-12 22q-9 4 -50 10q-99 13 -99 43z" />
    <glyph glyph-name="Kcommaaccent" unicode="&#x136;" horiz-adv-x="690" 
d="M321 -213q1 28 25 46t53 18q46 0 68 -60l-4 -6q4 -7 4 -33t-25 -84t-65 -106t-74 -49l-33 16l4 18q107 86 107 150q-60 36 -60 90zM139 -6q-37 0 -37 94t14 284t13 285l-8 736l-4 8l-15 96q0 43 35 43q17 0 25 -4t16 -34t8 -199l-8 -439h2q42 88 110 258t77 191
q111 284 145 284t35 -30q-5 -37 -26 -71t-26 -45t-34 -73q-152 -322 -158 -385l10 -18l-8 -6q69 -176 161 -508t140 -469q-3 -39 -41 -39l-28 8q-40 237 -122 529t-149 419l-6 -4q-6 -24 -43 -87q-37 -64 -41 -100t-4 -143l10 -452q0 -129 -43 -129z" />
    <glyph glyph-name="kcommaaccent" unicode="&#x137;" horiz-adv-x="677" 
d="M322 -203q0 28 24 46t54 18q46 0 68 -60l-4 -6q4 -7 4 -33t-25 -84t-65 -106t-74 -49l-33 16l4 18q107 86 107 150q-60 36 -60 90zM150 -33q-30 1 -38 9q-10 8 -10 34v385l19 258l20 396v284q11 23 33 23t33 -12q12 -12 12 -27q-18 -33 -18 -101t-4 -213t-4 -217
q19 8 159 282t154 275q52 0 55 -34q-128 -188 -219 -379l-4 -131q0 -93 78 -366t126 -339q50 -66 50 -90q0 -41 -35 -41q-47 0 -115 184q-68 185 -114 381t-49 267l-5 8q-6 -15 -32 -67t-46 -98t-20 -120l-10 -147v-262l14 -117q0 -25 -30 -25z" />
    <glyph glyph-name="kgreenlandic" unicode="&#x138;" horiz-adv-x="677" 
d="M150 -33q-30 1 -38 9q-10 8 -10 34v385l19 258l20 396v284q11 23 33 23t33 -12q12 -12 12 -27q-18 -33 -18 -101t-4 -213t-4 -217q19 8 159 282t154 275q52 0 55 -34q-128 -188 -219 -379l-4 -131q0 -93 78 -366t126 -339q50 -66 50 -90q0 -41 -35 -41q-47 0 -115 184
q-68 185 -114 381t-49 267l-5 8q-6 -15 -32 -67t-46 -98t-20 -120l-10 -147v-262l14 -117q0 -25 -30 -25z" />
    <glyph glyph-name="Lacute" unicode="&#x139;" horiz-adv-x="475" 
d="M161 1704q-1 12 121 106t133 103q45 0 45 -32q0 -1 -6 -31q-103 -46 -256 -176q-37 0 -37 30zM197 104q-1 -29 9 -39t41 -10t42 13h76q28 -14 28 -32q0 -40 -28 -40q-7 0 -31 8q-10 -4 -41 -4l-64 2q-11 0 -28 -12t-31 -13q-14 0 -28 13t-15 30l12 93l-20 581l-21 856
q0 21 27 21q39 0 39 -37q0 -474 10 -600t10 -156t-4 -80l6 -8q-4 -54 -4 -110l23 -435q-8 -12 -8 -41z" />
    <glyph glyph-name="lacute" unicode="&#x13a;" horiz-adv-x="497" 
d="M172 1509q0 11 122 105t132 104q45 0 45 -32q0 -1 -6 -31q-103 -46 -256 -176q-37 0 -37 30zM387 41q11 1 21 -11t10 -24q0 -23 -33 -26q-53 2 -170 2l4 -2l-76 -7q-29 0 -34 47q4 20 4 68l12 1092l10 135q0 14 15 14l34 -8l-2 -162l2 -446q-6 -168 -6 -172l4 -174
l-6 -17l2 2l-2 -16q0 -17 6 -29l-6 -196v-13q0 -32 2 -42t10 -9l193 -6h6z" />
    <glyph glyph-name="Lcommaaccent" unicode="&#x13b;" horiz-adv-x="475" 
d="M225 -189q1 28 25 46t53 18q46 0 68 -60l-4 -6q4 -7 4 -33t-25 -84t-65 -106t-74 -49l-33 16l4 18q107 86 107 150q-60 36 -60 90zM197 104q-1 -29 9 -39t41 -10t42 13h76q28 -14 28 -32q0 -40 -28 -40q-7 0 -31 8q-10 -4 -41 -4l-64 2q-11 0 -28 -12t-31 -13
q-14 0 -28 13t-15 30l12 93l-20 581l-21 856q0 21 27 21q39 0 39 -37q0 -474 10 -600t10 -156t-4 -80l6 -8q-4 -54 -4 -110l23 -435q-8 -12 -8 -41z" />
    <glyph glyph-name="lcommaaccent" unicode="&#x13c;" horiz-adv-x="497" 
d="M229 -193q1 28 25 46t53 18q46 0 68 -60l-4 -6q4 -7 4 -33t-25 -84t-65 -106t-74 -49l-33 16l4 18q107 86 107 150q-60 36 -60 90zM387 41q11 1 21 -11t10 -24q0 -23 -33 -26q-53 2 -170 2l4 -2l-76 -7q-29 0 -34 47q4 20 4 68l12 1092l10 135q0 14 15 14l34 -8l-2 -162
l2 -446q-6 -168 -6 -172l4 -174l-6 -17l2 2l-2 -16q0 -17 6 -29l-6 -196v-13q0 -32 2 -42t10 -9l193 -6h6z" />
    <glyph glyph-name="Lcaron" unicode="&#x13d;" horiz-adv-x="475" 
d="M553 1508q1 27 25 45t52 18q46 0 68 -60l-4 -6q4 -8 4 -33t-25 -83q-25 -59 -65 -107t-74 -49l-33 16l4 19q107 89 107 149q-25 14 -42 39t-17 52zM197 104q-1 -29 9 -39t41 -10t42 13h76q28 -14 28 -32q0 -40 -28 -40q-7 0 -31 8q-10 -4 -41 -4l-64 2q-11 0 -28 -12
t-31 -13q-14 0 -28 13t-15 30l12 93l-20 581l-21 856q0 21 27 21q39 0 39 -37q0 -474 10 -600t10 -156t-4 -80l6 -8q-4 -54 -4 -110l23 -435q-8 -12 -8 -41z" />
    <glyph glyph-name="lcaron" unicode="&#x13e;" horiz-adv-x="497" 
d="M586 1314q0 27 24 45t53 18q46 0 68 -60l-4 -6q4 -8 4 -33t-25 -83q-25 -59 -65 -107t-74 -49l-33 16l4 19q107 89 107 149q-25 14 -42 39t-17 52zM387 41q11 1 21 -11t10 -24q0 -23 -33 -26q-53 2 -170 2l4 -2l-76 -7q-29 0 -34 47q4 20 4 68l12 1092l10 135q0 14 15 14
l34 -8l-2 -162l2 -446q-6 -168 -6 -172l4 -174l-6 -17l2 2l-2 -16q0 -17 6 -29l-6 -196v-13q0 -32 2 -42t10 -9l193 -6h6z" />
    <glyph glyph-name="Ldot" unicode="&#x13f;" horiz-adv-x="475" 
d="M197 104q-1 -29 9 -39t41 -10t42 13h76q28 -14 28 -32q0 -40 -28 -40q-7 0 -31 8q-10 -4 -41 -4l-64 2q-11 0 -28 -12t-31 -13q-14 0 -28 13t-15 30l12 93l-20 581l-21 856q0 21 27 21q39 0 39 -37q0 -473 9 -591t11 -155q4 11 17 25t32 14q19 1 35 -17t15 -36
q0 -52 -57 -52q-31 0 -42 34q-1 -25 -4 -58l6 -8q-4 -54 -4 -110l23 -435q-8 -12 -8 -41z" />
    <glyph glyph-name="ldot" unicode="&#x140;" horiz-adv-x="825" 
d="M611 746q1 20 17 38t35 17q19 1 35 -17t15 -36q0 -52 -57 -52q-18 0 -32 16q-14 14 -13 34zM387 41q11 1 21 -11t10 -24q0 -23 -33 -26q-53 2 -170 2l4 -2l-76 -7q-29 0 -34 47q4 20 4 68l12 1092l10 135q0 14 15 14l34 -8l-2 -162l2 -446q-6 -168 -6 -172l4 -174l-6 -17
l2 2l-2 -16q0 -17 6 -29l-6 -196v-13q0 -32 2 -42t10 -9l193 -6h6z" />
    <glyph glyph-name="Lslash" unicode="&#x141;" horiz-adv-x="475" 
d="M197 104q-1 -29 9 -39t41 -10t42 13h76q28 -14 28 -32q0 -40 -28 -40q-7 0 -31 8q-10 -4 -41 -4l-64 2q-11 0 -28 -12t-31 -13q-14 0 -28 13t-15 30l12 93l-20 567q-50 0 -64 10t-14 25q0 16 77 31l-20 804q0 21 27 21q39 0 39 -37q0 -474 10 -600t10 -146v-32
q129 18 190 18q62 0 62 -35q0 -29 -250 -55q-4 -52 -4 -104l23 -435q-8 -12 -8 -41z" />
    <glyph glyph-name="lslash" unicode="&#x142;" horiz-adv-x="497" 
d="M384 774q63 0 63 -34t-264 -57q-5 -138 -5 -142l4 -174l-6 -17l2 2l-2 -16q0 -17 6 -29l-6 -196v-13q0 -32 2 -42t10 -9l193 -6h6q11 1 21 -11t10 -24q0 -23 -33 -26q-53 2 -170 2l4 -2l-76 -7q-29 0 -34 47q4 20 4 68l7 592q-68 2 -68 35q0 15 68 29l5 436l10 135
q0 14 15 14l34 -8l-2 -162l2 -404q137 19 200 19z" />
    <glyph glyph-name="Nacute" unicode="&#x143;" horiz-adv-x="772" 
d="M320 1728q0 12 122 106t132 103q45 0 45 -32q0 -1 -6 -31q-103 -46 -256 -176q-37 0 -37 30zM219 1501q0 -51 26 -111q25 -60 35 -92t18 -104t19 -127t36 -148t57 -206t42 -149q8 -36 32 -120t26 -131q14 -21 22 -81t33 -82q13 29 13 98l8 713l-6 317l6 78q0 22 -6 26
l6 17q0 126 -8 168q8 28 51 28q33 0 33 -67q-13 -26 -13 -68l2 -69q0 -44 -8 -62l-6 -647q0 -19 4 -55l-4 -9v-258l4 -77q0 -122 -20 -168v-4l6 -74q0 -60 -52 -60q-36 0 -49 77q-7 36 -8 40q-200 631 -252 922q-2 9 -4 39t-18 47l4 10q-14 76 -20 106t-17 80
q-11 51 -33 103q-6 -42 -6 -64t4 -34q-14 -48 -14 -142v-561q0 -98 14 -292t14 -292l-14 -16h-47l-6 16q4 16 4 82l-23 713v268l15 387l-2 43q0 43 51 43t51 -51z" />
    <glyph glyph-name="nacute" unicode="&#x144;" horiz-adv-x="862" 
d="M364 1509q0 11 122 105t132 104q45 0 45 -32q0 -1 -6 -31q-103 -46 -256 -176q-37 0 -37 30zM707 1341q21 0 33 -19t12 -40v-137l-11 -17q0 -160 -22 -620t-43 -502q-5 -1 -19 -5t-16 -4v-1l-1 1q-19 -5 -29 -5q-9 0 -17 14t-12 35q-4 22 -9 29l2 6q-13 84 -53 194
t-53 148q-7 9 -55 153q-184 571 -232 617q-16 -63 -16 -144l4 -161l-4 -99q0 -23 8 -143h-6q0 -341 14 -377v-184q8 -14 8 -36q0 -48 -38 -48q-43 0 -43 110l8 134l-13 589l13 363v36q-1 27 1 36t5 36t31 50l6 -7l20 5q23 -8 28 -32l5 -22q35 -146 147 -407t136 -335
t54 -208t81 -219l4 6q47 447 47 1116l-4 51q0 43 29 43z" />
    <glyph glyph-name="Ncommaaccent" unicode="&#x145;" horiz-adv-x="772" 
d="M385 -189q1 28 25 46t53 18q46 0 68 -60l-4 -6q4 -7 4 -33t-25 -84t-65 -106t-74 -49l-33 16l4 18q107 86 107 150q-60 36 -60 90zM219 1501q0 -51 26 -111q25 -60 35 -92t18 -104t19 -127t36 -148t57 -206t42 -149q8 -36 32 -120t26 -131q14 -21 22 -81t33 -82
q13 29 13 98l8 713l-6 317l6 78q0 22 -6 26l6 17q0 126 -8 168q8 28 51 28q33 0 33 -67q-13 -26 -13 -68l2 -69q0 -44 -8 -62l-6 -647q0 -19 4 -55l-4 -9v-258l4 -77q0 -122 -20 -168v-4l6 -74q0 -60 -52 -60q-36 0 -49 77q-7 36 -8 40q-200 631 -252 922q-2 9 -4 39t-18 47
l4 10q-14 76 -20 106t-17 80q-11 51 -33 103q-6 -42 -6 -64t4 -34q-14 -48 -14 -142v-561q0 -98 14 -292t14 -292l-14 -16h-47l-6 16q4 16 4 82l-23 713v268l15 387l-2 43q0 43 51 43t51 -51z" />
    <glyph glyph-name="ncommaaccent" unicode="&#x146;" horiz-adv-x="862" 
d="M420 -174q0 28 24 46t54 18q46 0 68 -60l-4 -6q4 -8 4 -34t-25 -83q-25 -58 -65 -106t-74 -49l-33 16l4 18q107 86 107 150q-60 36 -60 90zM707 1341q21 0 33 -19t12 -40v-137l-11 -17q0 -160 -22 -620t-43 -502q-5 -1 -19 -5t-16 -4v-1l-1 1q-19 -5 -29 -5q-9 0 -17 14
t-12 35q-4 22 -9 29l2 6q-13 84 -53 194t-53 148q-7 9 -55 153q-184 571 -232 617q-16 -63 -16 -144l4 -161l-4 -99q0 -23 8 -143h-6q0 -341 14 -377v-184q8 -14 8 -36q0 -48 -38 -48q-43 0 -43 110l8 134l-13 589l13 363v36q-1 27 1 36t5 36t31 50l6 -7l20 5q23 -8 28 -32
l5 -22q35 -146 147 -407t136 -335t54 -208t81 -219l4 6q47 447 47 1116l-4 51q0 43 29 43z" />
    <glyph glyph-name="Ncaron" unicode="&#x147;" horiz-adv-x="772" 
d="M485 2057q0 -7 -8 -23l2 -10l-15 -31l2 -12q-7 -26 -34 -101q-27 -74 -27 -128t-30 -54q-29 0 -99 150t-72 196l37 27l35 -47q4 -34 44 -148t42 -118q49 183 59 307l27 16q37 -6 37 -24zM219 1501q0 -51 26 -111q25 -60 35 -92t18 -104t19 -127t36 -148t57 -206t42 -149
q8 -36 32 -120t26 -131q14 -21 22 -81t33 -82q13 29 13 98l8 713l-6 317l6 78q0 22 -6 26l6 17q0 126 -8 168q8 28 51 28q33 0 33 -67q-13 -26 -13 -68l2 -69q0 -44 -8 -62l-6 -647q0 -19 4 -55l-4 -9v-258l4 -77q0 -122 -20 -168v-4l6 -74q0 -60 -52 -60q-36 0 -49 77
q-7 36 -8 40q-200 631 -252 922q-2 9 -4 39t-18 47l4 10q-14 76 -20 106t-17 80q-11 51 -33 103q-6 -42 -6 -64t4 -34q-14 -48 -14 -142v-561q0 -98 14 -292t14 -292l-14 -16h-47l-6 16q4 16 4 82l-23 713v268l15 387l-2 43q0 43 51 43t51 -51z" />
    <glyph glyph-name="ncaron" unicode="&#x148;" horiz-adv-x="862" 
d="M529 1837q0 -7 -8 -23l2 -10l-15 -31l2 -12q-7 -26 -34 -101q-27 -74 -27 -128t-30 -54q-29 0 -99 150t-72 196l37 27l35 -47q4 -34 44 -148t42 -118q49 183 59 307l27 16q37 -6 37 -24zM707 1341q21 0 33 -19t12 -40v-137l-11 -17q0 -160 -22 -620t-43 -502
q-5 -1 -19 -5t-16 -4v-1l-1 1q-19 -5 -29 -5q-9 0 -17 14t-12 35q-4 22 -9 29l2 6q-13 84 -53 194t-53 148q-7 9 -55 153q-184 571 -232 617q-16 -63 -16 -144l4 -161l-4 -99q0 -23 8 -143h-6q0 -341 14 -377v-184q8 -14 8 -36q0 -48 -38 -48q-43 0 -43 110l8 134l-13 589
l13 363v36q-1 27 1 36t5 36t31 50l6 -7l20 5q23 -8 28 -32l5 -22q35 -146 147 -407t136 -335t54 -208t81 -219l4 6q47 447 47 1116l-4 51q0 43 29 43z" />
    <glyph glyph-name="Eng" unicode="&#x14a;" horiz-adv-x="772" 
d="M219 1501q0 -51 26 -111q25 -60 35 -92t18 -104t19 -127t36 -148t57 -206t43 -151t29 -128t28 -121l59 -198q9 104 9 133l8 713l-6 317l6 78q0 22 -6 26l6 17v47q0 82 -8 121q8 28 51 28q33 0 33 -67q-13 -26 -13 -68l2 -69q0 -44 -8 -62l-6 -647q0 -19 4 -55l-4 -9v-258
l-10 -323l-11 -168q0 -21 -10 -91t-58 -136q-47 -66 -106 -109q-43 0 -43 39q2 18 35 40t39 28q90 90 90 313v18q-13 18 -131 398q-118 379 -166 647q-2 9 -4 39t-18 47l4 10q-14 76 -20 106t-17 80q-11 51 -33 103q-6 -42 -6 -64t4 -34q-14 -48 -14 -142v-561
q0 -98 14 -292t14 -292l-14 -16h-47l-6 16q4 16 4 82l-23 713v268l15 387l-2 43q0 43 51 43t51 -51z" />
    <glyph glyph-name="eng" unicode="&#x14b;" horiz-adv-x="862" 
d="M707 1341q21 0 33 -19t12 -40v-137l-11 -17q0 -106 -32 -600t-33 -516v-65q0 -168 -74 -289q-26 -42 -72 -72t-102 -30l-35 34l-2 9q0 6 47 18t88 47q74 63 84 270l-35 142q-24 94 -59 199t-47 143q-9 8 -32 80t-23 73q-184 571 -232 617q-16 -63 -16 -144l4 -161l-4 -99
l4 -108l-2 -35q0 -341 14 -377v-184q8 -14 8 -36q0 -48 -38 -48q-43 0 -43 110l8 134l-13 589l13 363v12q0 113 37 146l6 -7l20 5q23 -8 28 -32l5 -22q35 -146 147 -407t136 -335t54 -208t81 -219l4 6q47 447 47 1116l-4 51q0 43 29 43z" />
    <glyph glyph-name="Omacron" unicode="&#x14c;" 
d="M396 1673h-148q-91 0 -117 8q-25 8 -25 25q2 17 131 17h116q118 -1 133 -11t14 -24t-104 -15zM303 1518q-151 0 -151 -607v-80q0 -141 22 -305t44 -266q24 -102 66 -174t95 -72q70 0 102 142q45 200 45 452v49v65t-2 86q-1 60 -4 108q-3 47 -8 114q-6 86 -30 210
q-54 278 -179 278zM555 222q0 -56 -22 -114q-21 -58 -65 -104t-94 -47q-50 0 -93 38q-134 118 -172 537q-15 164 -15 266t9 234q9 131 10 169t2 67q7 189 70 260q39 43 115 43t124 -41q6 -11 36 -49q30 -39 44 -73t33 -169q49 -350 49 -621l-19 -264l4 -8q-16 -69 -16 -124z
" />
    <glyph glyph-name="omacron" unicode="&#x14d;" horiz-adv-x="673" 
d="M394 1478h-148q-90 0 -116 8t-26 25q2 17 131 17h116q118 0 133 -10t14 -26q-1 -14 -104 -14zM326 20q81 0 119 114q55 163 55 429l-23 484l-8 16l4 10q0 89 -50 155t-122 66h-86q-17 0 -30 -182t-17 -203l-10 -192l4 -162q0 -195 44 -371q16 -66 48 -115t72 -49z
M334 -39q-240 0 -240 754q0 291 40 505q30 156 91 156q15 0 27 -11t34 -19t58 -14q38 -7 54 -10q41 -7 79 -79q86 -146 86 -442l-4 -10l4 -244q0 -461 -148 -561q-36 -25 -81 -25z" />
    <glyph glyph-name="Obreve" unicode="&#x14e;" 
d="M448 1864q0 -11 -11 -33l5 -15q-5 -10 -16 -36t-16 -35q-36 -72 -118 -72t-114 66q-33 66 -33 143l22 18q14 -1 19 -32q20 -108 53 -132l22 -16h51q26 0 48 38t22 66l-2 29q0 39 37 39q11 0 21 -8t10 -20zM303 1518q-151 0 -151 -607v-80q0 -141 22 -305t44 -266
q24 -102 66 -174t95 -72q70 0 102 142q45 200 45 452v49v65t-2 86q-1 60 -4 108q-3 47 -8 114q-6 86 -30 210q-54 278 -179 278zM555 222q0 -56 -22 -114q-21 -58 -65 -104t-94 -47q-50 0 -93 38q-134 118 -172 537q-15 164 -15 266t9 234q9 131 10 169t2 67q7 189 70 260
q39 43 115 43t124 -41q6 -11 36 -49q30 -39 44 -73t33 -169q49 -350 49 -621l-19 -264l4 -8q-16 -69 -16 -124z" />
    <glyph glyph-name="obreve" unicode="&#x14f;" horiz-adv-x="673" 
d="M446 1670q0 -11 -11 -33l5 -15q-5 -10 -16 -36t-16 -35q-36 -72 -118 -72q-81 0 -114 66t-33 143l22 18q14 -1 19 -32q20 -108 53 -132l22 -16h51q26 0 48 38t22 66l-2 29q0 39 37 39q11 0 21 -8t10 -20zM326 20q81 0 119 114q55 163 55 429l-23 484l-8 16l4 10
q0 89 -50 155t-122 66h-86q-17 0 -30 -182t-17 -203l-10 -192l4 -162q0 -195 44 -371q16 -66 48 -115t72 -49zM334 -39q-240 0 -240 754q0 291 40 505q30 156 91 156q15 0 27 -11t34 -19t58 -14q38 -7 54 -10q41 -7 79 -79q86 -146 86 -442l-4 -10l4 -244q0 -461 -148 -561
q-36 -25 -81 -25z" />
    <glyph glyph-name="Ohungarumlaut" unicode="&#x150;" 
d="M460 1679q-10 -1 -9 15q0 16 103 92t179 120t86 45q10 0 24 -17t17 -33l-106 -60q-68 -27 -138 -71t-108 -68q-38 -23 -48 -23zM501 1966q3 0 13 -10t10 -22t-8 -16t-56 -41q-49 -37 -94 -71q-46 -34 -62 -42t-66 -46q-50 -37 -85 -45l-10 11q5 22 172 152t186 130z
M303 1518q-151 0 -151 -607v-80q0 -141 22 -305t44 -266q24 -102 66 -174t95 -72q70 0 102 142q45 200 45 452v49v65t-2 86q-1 60 -4 108q-3 47 -8 114q-6 86 -30 210q-54 278 -179 278zM555 222q0 -56 -22 -114q-21 -58 -65 -104t-94 -47q-50 0 -93 38q-134 118 -172 537
q-15 164 -15 266t9 234q9 131 10 169t2 67q7 189 70 260q39 43 115 43t124 -41q6 -11 36 -49q30 -39 44 -73t33 -169q49 -350 49 -621l-19 -264l4 -8q-16 -69 -16 -124z" />
    <glyph glyph-name="ohungarumlaut" unicode="&#x151;" horiz-adv-x="673" 
d="M458 1484q-10 0 -9 16q0 16 103 91q103 77 179 121t86 44t24 -17t17 -33l-106 -60q-68 -28 -138 -72t-108 -67t-48 -23zM499 1771q3 -1 13 -11t10 -21t-8 -15t-56 -42q-49 -37 -94 -71q-46 -35 -62 -43t-66 -45t-85 -45l-10 11q5 22 172 152t186 130zM326 20
q81 0 119 114q55 163 55 429l-23 484l-8 16l4 10q0 89 -50 155t-122 66h-86q-17 0 -30 -182t-17 -203l-10 -192l4 -162q0 -195 44 -371q16 -66 48 -115t72 -49zM334 -39q-240 0 -240 754q0 291 40 505q30 156 91 156q15 0 27 -11t34 -19t58 -14q38 -7 54 -10q41 -7 79 -79
q86 -146 86 -442l-4 -10l4 -244q0 -461 -148 -561q-36 -25 -81 -25z" />
    <glyph glyph-name="OE" unicode="&#x152;" horiz-adv-x="1163" 
d="M530 72q203 0 203 82q0 168 -14 500t-14 499l-13 248q-72 96 -266 96q-123 0 -185 -96t-80 -210t-18 -224l2 -146q0 -48 -2 -73l4 -7q0 -102 18 -249q35 -285 103 -295q115 -125 262 -125zM580 10q-232 0 -354 153t-122 382l-10 420q0 294 110 475q69 112 187 112
q223 0 295 -79l-6 22l31 43l80 -12h151l45 4q31 -21 31 -37q0 -23 -37 -23l-242 9q1 -75 15 -227t14 -228l-4 -106q0 -50 10 -84l80 -3l53 5q30 0 49 -25q0 -19 -6 -26t-26 -7l-93 6q-59 0 -59 -18l14 -731q144 8 158 8q141 0 141 -39l-12 -18l-311 -6q-46 0 -49 30l12 33
q-21 -3 -69 -18t-76 -15z" />
    <glyph glyph-name="oe" unicode="&#x153;" horiz-adv-x="1165" 
d="M326 20q81 0 119 114q55 163 55 429l-23 484l-8 16l4 10q0 89 -50 155t-122 66h-86q-17 0 -30 -182t-17 -203l-10 -192l4 -162q0 -195 44 -371q16 -66 48 -115t72 -49zM695 717q-27 0 -40 16l-67 10h-8l-11 -16q4 -53 4 -162l-4 -291q0 -204 28 -226q19 -15 67 -15l75 4
q60 0 60 -27q0 -37 -88 -37h-170q-38 0 -41 43l2 52l-6 8q7 22 10 41q-57 -156 -172 -156q-240 0 -240 754q0 291 40 505q30 156 91 156q15 0 27 -11t34 -19t58 -14q38 -7 54 -10q41 -7 79 -79q16 -27 33 -69q-4 78 -4 118q0 58 59 58q23 0 33 -13q7 -2 60 -8
q125 -14 128 -51q0 -16 -38 -39q-113 37 -166 39l-11 -12q2 -29 2 -88l-8 -318q0 -57 29 -57l70 4q77 0 79 -37q0 -53 -48 -53z" />
    <glyph glyph-name="Racute" unicode="&#x154;" horiz-adv-x="591" 
d="M206 1704q0 12 122 106t132 103q45 0 45 -32q0 -1 -6 -31q-103 -46 -256 -176q-37 0 -37 30zM178 913q16 0 54 42t52 67t24 83q9 59 9 97q1 38 -5 80t-18 91t-38 81t-61 33v6l-17 -2l-10 -447q0 -88 6 -131h4zM158 1556q84 0 128 -47t60 -101q14 -54 26 -98t13 -79
q0 -103 -47 -221t-47 -129q0 -99 80 -403t131 -431q0 -67 -27 -67q-21 0 -35 18t-16 22q-6 80 -52 222t-58 190q-10 48 -37 194t-48 224l-16 12l-39 -16v-768l4 -51q0 -41 -37 -41q-15 0 -25 10t-10 24l7 11l8 1243v227l-4 37q0 18 41 18z" />
    <glyph glyph-name="racute" unicode="&#x155;" horiz-adv-x="550" 
d="M208 1509q0 11 122 105t132 104q45 0 45 -32q0 -1 -6 -31q-103 -46 -256 -176q-37 0 -37 30zM184 1313q-12 0 -18 -19t-6 -34l8 -496l4 -4q80 0 126 170q24 89 24 172t-21 139q-27 72 -117 72zM102 1288q0 78 45 78q100 0 165 -50t65 -149v-149q0 -79 -80 -226
q-27 -50 -27 -54t78 -324t81 -329q4 -10 20 -42t16 -55t-23 -23l-30 10q-48 54 -104 394t-95 340h-8q-45 0 -45 -29q0 -112 13 -372t22 -292l-15 -34h-30l-15 16q-33 887 -33 1290z" />
    <glyph glyph-name="Rcommaaccent" unicode="&#x156;" horiz-adv-x="591" 
d="M270 -186q0 28 24 46t54 18q46 0 68 -60l-4 -6q4 -8 4 -34t-25 -83q-25 -58 -65 -106t-74 -49l-33 16l4 18q107 86 107 150q-60 36 -60 90zM178 913q16 0 54 42t52 67t24 83q9 59 9 97q1 38 -5 80t-18 91t-38 81t-61 33v6l-17 -2l-10 -447q0 -88 6 -131h4zM158 1556
q84 0 128 -47t60 -101q14 -54 26 -98t13 -79q0 -103 -47 -221t-47 -129q0 -99 80 -403t131 -431q0 -67 -27 -67q-21 0 -35 18t-16 22q-6 80 -52 222t-58 190q-10 48 -37 194t-48 224l-16 12l-39 -16v-768l4 -51q0 -41 -37 -41q-15 0 -25 10t-10 24l7 11l8 1243v227l-4 37
q0 18 41 18z" />
    <glyph glyph-name="rcommaaccent" unicode="&#x157;" horiz-adv-x="550" 
d="M265 -201q1 28 25 46t53 18q46 0 68 -60l-4 -6q4 -7 4 -33t-25 -84t-65 -106t-74 -49l-33 16l4 18q107 86 107 150q-60 36 -60 90zM184 1313q-12 0 -18 -19t-6 -34l8 -496l4 -4q80 0 126 170q24 89 24 172t-21 139q-27 72 -117 72zM102 1288q0 78 45 78q100 0 165 -50
t65 -149v-149q0 -79 -80 -226q-27 -50 -27 -54t78 -324t81 -329q4 -10 20 -42t16 -55t-23 -23l-30 10q-48 54 -104 394t-95 340h-8q-45 0 -45 -29q0 -112 13 -372t22 -292l-15 -34h-30l-15 16q-33 887 -33 1290z" />
    <glyph glyph-name="Rcaron" unicode="&#x158;" horiz-adv-x="591" 
d="M371 2032q0 -7 -8 -23l2 -10l-15 -31l2 -12q-7 -26 -34 -101t-27 -129t-30 -53q-29 1 -99 151t-72 195l37 27l35 -47q4 -33 44 -147t42 -119q49 183 59 307l27 16q37 -6 37 -24zM178 913q16 0 54 42t52 67t24 83q9 59 9 97q1 38 -5 80t-18 91t-38 81t-61 33v6l-17 -2
l-10 -447q0 -88 6 -131h4zM158 1556q84 0 128 -47t60 -101q14 -54 26 -98t13 -79q0 -103 -47 -221t-47 -129q0 -99 80 -403t131 -431q0 -67 -27 -67q-21 0 -35 18t-16 22q-6 80 -52 222t-58 190q-10 48 -37 194t-48 224l-16 12l-39 -16v-768l4 -51q0 -41 -37 -41
q-15 0 -25 10t-10 24l7 11l8 1243v227l-4 37q0 18 41 18z" />
    <glyph glyph-name="rcaron" unicode="&#x159;" horiz-adv-x="550" 
d="M372 1837q0 -7 -8 -23l2 -10l-15 -31l2 -12q-7 -26 -34 -101q-27 -74 -27 -128t-30 -54t-100 150t-71 196l37 27l35 -47q3 -34 43 -148t43 -118q49 183 59 307l27 16q37 -6 37 -24zM184 1313q-12 0 -18 -19t-6 -34l8 -496l4 -4q80 0 126 170q24 89 24 172t-21 139
q-27 72 -117 72zM102 1288q0 78 45 78q100 0 165 -50t65 -149v-149q0 -79 -80 -226q-27 -50 -27 -54t78 -324t81 -329q4 -10 20 -42t16 -55t-23 -23l-30 10q-48 54 -104 394t-95 340h-8q-45 0 -45 -29q0 -112 13 -372t22 -292l-15 -34h-30l-15 16q-33 887 -33 1290z" />
    <glyph glyph-name="Sacute" unicode="&#x15a;" horiz-adv-x="569" 
d="M182 1706q0 12 122 106t132 103q45 0 45 -32q0 -1 -6 -31q-103 -46 -256 -176q-37 0 -37 30zM471 338q1 -66 -15 -129t-46 -121t-80 -96q-52 -38 -100 -37q-48 0 -67 2q-59 6 -83 49q0 25 22 25q22 1 58 -15t69 -16t71 38t67 123q30 85 30 185t-30 202q-29 103 -73 188
t-87 170q-103 202 -103 366t90 254q49 47 115 47q21 -1 54 -17t40 -34l-12 -23q-46 0 -67 21q-49 0 -84 -37q-66 -67 -66 -163t13 -150t20 -81q7 -28 25 -71t26 -64t34 -69q24 -48 32 -62q8 -13 36 -67q30 -54 35 -64l-2 -8q0 -1 47 -158q31 -122 31 -188z" />
    <glyph glyph-name="sacute" unicode="&#x15b;" horiz-adv-x="489" 
d="M154 1511q0 11 122 105t132 104q45 0 45 -32q0 -1 -6 -31q-103 -46 -256 -176q-37 0 -37 30zM317 1313v-2h2q0 2 -2 2zM143 1112q0 -42 2 -60q1 -18 7 -42t8 -34t12 -42t10 -35l15 -37q20 -36 52 -90t65 -113q33 -58 54 -140q21 -81 21 -157t-6 -120q-14 -103 -66 -183
q-52 -79 -151 -79l-10 -5q-60 11 -66 50l10 16l74 -14q94 0 138 153q24 80 24 168t-26 168q-26 78 -61 143l-72 130q-87 157 -87 309q0 78 28 149q51 131 134 131q22 0 50 -18t28 -39q0 -16 -27 -16l-43 12q-62 0 -98 -107q-18 -56 -19 -98z" />
    <glyph glyph-name="Scircumflex" unicode="&#x15c;" horiz-adv-x="569" 
d="M248 2058q30 0 30 -42t10 -80t26 -86q18 -48 25 -74l-2 -13l15 -30l-2 -11q8 -16 8 -22q0 -19 -37 -25l-27 17q-10 124 -59 307q-26 -66 -55 -156t-31 -110l-35 -47l-37 26q1 46 71 196t100 150zM471 338q1 -66 -15 -129t-46 -121t-80 -96q-52 -38 -100 -37q-48 0 -67 2
q-59 6 -83 49q0 25 22 25q22 1 58 -15t69 -16t71 38t67 123q30 85 30 185t-30 202q-29 103 -73 188t-87 170q-103 202 -103 366t90 254q49 47 115 47q21 -1 54 -17t40 -34l-12 -23q-46 0 -67 21q-49 0 -84 -37q-66 -67 -66 -163t13 -150t20 -81q7 -28 25 -71t26 -64t34 -69
q24 -48 32 -62q8 -13 36 -67q30 -54 35 -64l-2 -8q0 -1 47 -158q31 -122 31 -188z" />
    <glyph glyph-name="scircumflex" unicode="&#x15d;" horiz-adv-x="489" 
d="M220 1863q30 1 30 -41t10 -80t26 -87q18 -48 25 -74l-2 -13l15 -30l-2 -11q8 -16 8 -22q0 -19 -37 -25l-27 17q-10 124 -59 307q-26 -66 -55 -156t-31 -110l-35 -47l-37 26q1 45 71 195t100 151zM317 1313v-2h2q0 2 -2 2zM143 1112q0 -42 2 -60q1 -18 7 -42t8 -34t12 -42
t10 -35l15 -37q20 -36 52 -90t65 -113q33 -58 54 -140q21 -81 21 -157t-6 -120q-14 -103 -66 -183q-52 -79 -151 -79l-10 -5q-60 11 -66 50l10 16l74 -14q94 0 138 153q24 80 24 168t-26 168q-26 78 -61 143l-72 130q-87 157 -87 309q0 78 28 149q51 131 134 131
q22 0 50 -18t28 -39q0 -16 -27 -16l-43 12q-62 0 -98 -107q-18 -56 -19 -98z" />
    <glyph glyph-name="Scedilla" unicode="&#x15e;" horiz-adv-x="569" 
d="M270 -60v21q-20 -6 -54 -6q-33 0 -53 2q-59 6 -83 49q0 25 22 25q22 1 58 -15t69 -16t71 38t67 123q30 85 30 185t-30 202q-29 103 -73 188t-87 170q-103 202 -103 366t90 254q49 47 115 47q21 -1 54 -17t40 -34l-12 -23q-46 0 -67 21q-49 0 -84 -37q-66 -67 -66 -163
t13 -150t20 -81q7 -28 25 -71t26 -64t34 -69q24 -48 32 -62q8 -13 36 -67q30 -54 35 -64l-2 -8q0 -1 47 -158q31 -122 31 -188q1 -66 -15 -129q-48 -197 -178 -245l51 7q-8 -47 -8 -103q149 -10 149 -206q0 -48 -46 -105t-109 -57q-29 0 -59 14t-29 38q0 24 22 24
q13 0 33 -10t39 -11q19 0 41 29t22 55l-6 29q0 6 9 12t10 6q0 54 -8 72t-25 31l-55 -7q-31 0 -56 41q17 39 17 117z" />
    <glyph glyph-name="scedilla" unicode="&#x15f;" horiz-adv-x="489" 
d="M234 -40v23l59 8q-8 -47 -8 -103q149 -10 149 -206q0 -48 -46 -105t-109 -57q-29 0 -59 14t-29 38q0 24 22 24q13 0 33 -10t39 -11q19 0 41 29t22 55l-6 29q0 6 9 12t10 6q0 54 -8 72t-25 31l-55 -7q-31 0 -56 41q17 39 17 117zM317 1313v-2h2q0 2 -2 2zM143 1112
q0 -42 2 -60q1 -18 7 -42t8 -34t12 -42t10 -35l15 -37q20 -36 52 -90t65 -113q33 -58 54 -140q21 -81 21 -157t-6 -120q-14 -103 -66 -183q-52 -79 -151 -79l-10 -5q-60 11 -66 50l10 16l74 -14q94 0 138 153q24 80 24 168t-26 168q-26 78 -61 143l-72 130q-87 157 -87 309
q0 78 28 149q51 131 134 131q22 0 50 -18t28 -39q0 -16 -27 -16l-43 12q-62 0 -98 -107q-18 -56 -19 -98z" />
    <glyph glyph-name="Scaron" unicode="&#x160;" horiz-adv-x="569" 
d="M347 2034q0 -7 -8 -23l2 -10l-15 -31l2 -12q-7 -26 -34 -101t-27 -129t-30 -53q-29 1 -99 151t-72 195l37 27l35 -47q4 -33 44 -147t42 -119q49 183 59 307l27 16q37 -6 37 -24zM471 338q1 -66 -15 -129t-46 -121t-80 -96q-52 -38 -100 -37q-48 0 -67 2q-59 6 -83 49
q0 25 22 25q22 1 58 -15t69 -16t71 38t67 123q30 85 30 185t-30 202q-29 103 -73 188t-87 170q-103 202 -103 366t90 254q49 47 115 47q21 -1 54 -17t40 -34l-12 -23q-46 0 -67 21q-49 0 -84 -37q-66 -67 -66 -163t13 -150t20 -81q7 -28 25 -71t26 -64t34 -69q24 -48 32 -62
q8 -13 36 -67q30 -54 35 -64l-2 -8q0 -1 47 -158q31 -122 31 -188z" />
    <glyph glyph-name="scaron" unicode="&#x161;" horiz-adv-x="489" 
d="M318 1839q0 -7 -8 -23l2 -10l-15 -31l2 -12q-7 -26 -34 -101q-27 -74 -27 -128t-30 -54t-100 150t-71 196l37 27l35 -47q3 -34 43 -148t43 -118q49 183 59 307l27 16q37 -6 37 -24zM317 1313v-2h2q0 2 -2 2zM143 1112q0 -42 2 -60q1 -18 7 -42t8 -34t12 -42t10 -35
l15 -37q20 -36 52 -90t65 -113q33 -58 54 -140q21 -81 21 -157t-6 -120q-14 -103 -66 -183q-52 -79 -151 -79l-10 -5q-60 11 -66 50l10 16l74 -14q94 0 138 153q24 80 24 168t-26 168q-26 78 -61 143l-72 130q-87 157 -87 309q0 78 28 149q51 131 134 131q22 0 50 -18
t28 -39q0 -16 -27 -16l-43 12q-62 0 -98 -107q-18 -56 -19 -98z" />
    <glyph glyph-name="Tcommaaccent" unicode="&#x162;" horiz-adv-x="542" 
d="M311 -27v16q-17 4 -27 30t-10 51l17 336q-1 108 -15 326t-14 329l2 192q0 211 -35 211l-116 -12q-15 0 -29 10t-14 25q0 21 136 40t216 19q15 0 29 -10t14 -25q0 -30 -39 -30l-76 6q-35 0 -43 -21q15 -129 15 -266l-3 -248q0 -242 29 -348q-6 -30 -6 -59l10 -477
q0 -49 -13 -68l31 4q-8 -47 -8 -103q149 -10 149 -206q-1 -48 -47 -105t-108 -57q-28 1 -58 15t-30 38t22 23q13 -1 33 -11t39 -10t41 29t22 55l-6 29q0 5 9 11t10 7q0 53 -8 71t-25 32l-55 -7q-31 0 -56 41q17 39 17 117z" />
    <glyph glyph-name="tcommaaccent" unicode="&#x163;" horiz-adv-x="544" 
d="M304 -3v23l9 1l-10 8l-4 149l4 72q0 28 -8 49q-1 174 -25 507t-26 492q-161 0 -172 39q9 23 39 23l278 -19l37 2q37 0 37 -26q0 -13 -15 -23t-30 -10l-111 14l-10 -12l4 -8q-4 -8 -4 -117t34 -509t34 -601q0 -13 -9 -24l7 1q-8 -47 -8 -103q149 -10 149 -206
q0 -48 -46 -105t-109 -57q-29 1 -59 15t-29 38q0 24 22 23q13 -1 33 -11t39 -10t41 29t22 55l-6 29q0 5 9 11t10 7q0 53 -8 71t-25 32l-55 -7q-31 0 -56 41q17 39 17 117z" />
    <glyph glyph-name="Tcaron" unicode="&#x164;" horiz-adv-x="542" 
d="M389 2032q0 -7 -8 -23l2 -10l-15 -31l2 -12q-7 -26 -34 -101t-27 -129t-30 -53q-29 1 -99 151t-72 195l37 27l35 -47q4 -33 44 -147t42 -119q49 183 59 307l27 16q37 -6 37 -24zM317 -12q-21 0 -32 28t-11 54l17 336q-1 108 -15 326t-14 329l2 192q0 211 -35 211
l-116 -12q-15 0 -29 10t-14 25q0 21 136 40t216 19q15 0 29 -10t14 -25q0 -30 -39 -30l-76 6q-35 0 -43 -21q15 -129 15 -266l-3 -248q0 -242 29 -348q-6 -30 -6 -59l10 -477q0 -80 -35 -80z" />
    <glyph glyph-name="tcaron" unicode="&#x165;" horiz-adv-x="544" 
d="M678 1314q0 27 24 45t53 18q46 0 68 -60l-4 -6q4 -8 4 -33t-25 -83q-25 -59 -65 -107t-74 -49l-33 16l4 19q107 89 107 149q-25 14 -42 39t-17 52zM297 1161q0 -109 34 -509t34 -601q0 -15 -12 -27t-27 -12l-23 17l-4 149l4 72q0 28 -8 49q-1 174 -25 507t-26 492
q-161 0 -172 39q9 23 39 23l278 -19l37 2q37 0 37 -26q0 -13 -15 -23t-30 -10l-111 14l-10 -12l4 -8q-4 -8 -4 -117z" />
    <glyph glyph-name="Tbar" unicode="&#x166;" horiz-adv-x="542" 
d="M317 -12q-21 0 -32 28t-11 54l17 336q0 95 -12 287q-69 -7 -117 -7t-49 29q0 18 162 35q-13 193 -13 311l2 192q0 211 -35 211l-116 -12q-15 0 -29 10t-14 25q0 21 136 40t216 19q15 0 29 -10t14 -25q0 -30 -39 -30l-76 6q-35 0 -43 -21q15 -129 15 -266l-3 -248
q0 -130 5 -198q90 8 130 8t40 -22t-164 -41q6 -52 18 -95q-6 -30 -6 -59l10 -477q0 -80 -35 -80z" />
    <glyph glyph-name="tbar" unicode="&#x167;" horiz-adv-x="544" 
d="M463 1317q0 -13 -15 -23t-30 -10l-111 14l-10 -12l4 -8q-4 -8 -4 -109t25 -404q76 9 108 9q78 0 78 -35q0 -23 -180 -46q37 -448 37 -642q0 -15 -12 -27t-27 -12l-23 17l-4 149l4 72q0 28 -8 49q0 141 -16 388q-58 -7 -112 -7t-54 35q0 22 161 44q-28 398 -30 539
q-161 0 -172 39q9 23 39 23l278 -19l37 2q37 0 37 -26z" />
    <glyph glyph-name="Utilde" unicode="&#x168;" horiz-adv-x="743" 
d="M508 1853q20 0 30 -22q12 -23 12 -57t-33 -66t-73 -33t-77 21t-56 42t-52 58l-14 6h-37q-3 -12 -21 -25t-18 -25t10 -48l-22 -31q-13 0 -26 11t-13 24q0 63 32 104t93 41q66 -34 81 -45q15 -30 40 -55t44 -25t25 2l14 -4q5 14 26 26t21 50l-12 39q6 12 26 12zM119 1532
q51 0 51 -150l18 -692q8 -10 14 -100t15 -131q-4 -24 -4 -52q-1 -28 19 -94t52 -130t78 -110q47 -46 84 -46t55 8q18 7 28 17q11 10 17 32t8 34t4 40q2 30 2 36t-1 19l6 68v233l-14 123l-12 367v26l-9 12q9 58 9 117l-19 348q0 17 14 25t31 8l35 -33l-6 -16l6 -16l-14 -123
l20 -369l10 -356l7 -2q-2 -14 -2 -43l6 -144l6 -6l-6 -6l2 -129q0 -173 -45 -255q-45 -81 -148 -81q-57 1 -105 31q-113 72 -149 306q-21 134 -43 175q-1 163 -21 487t-20 488l-14 43q0 13 10 27t25 14z" />
    <glyph glyph-name="utilde" unicode="&#x169;" horiz-adv-x="651" 
d="M482 1671q20 0 32 -22q12 -23 11 -57q0 -34 -33 -66t-73 -33t-77 21t-56 42t-52 58l-14 6h-37q-3 -12 -21 -25t-18 -25t10 -48l-22 -31q-13 0 -26 11t-13 24q0 63 32 104t93 41q66 -34 81 -45q15 -30 40 -55t44 -25t25 2l14 -4q5 14 26 26t21 50l-12 39q5 12 25 12z
M338 25q95 0 120 429q2 29 10 277t7 598l-4 37q-1 23 29 23q30 1 36 -13t5 -122q0 -108 -13 -158q2 -4 2 -13l-10 -163l2 -41q-4 -52 -6 -140t-4 -244q-8 -396 -114 -494q-66 -61 -156 -10q-40 22 -66 55q-26 32 -42 212t-22 578t-16 483l13 29q47 -6 47 -113l6 -543
l22 -434q0 -233 154 -233z" />
    <glyph glyph-name="Umacron" unicode="&#x16a;" horiz-adv-x="743" 
d="M428 1673h-148q-90 0 -116 8t-26 25q2 17 131 17h116q118 -1 133 -11t14 -24t-104 -15zM119 1532q51 0 51 -150l18 -692q8 -10 14 -100t15 -131q-4 -24 -4 -52q-1 -28 19 -94t52 -130t78 -110q47 -46 84 -46t55 8q18 7 28 17q11 10 17 32t8 34t4 40q2 30 2 36t-1 19l6 68
v233l-14 123l-12 367v26l-9 12q9 58 9 117l-19 348q0 17 14 25t31 8l35 -33l-6 -16l6 -16l-14 -123l20 -369l10 -356l7 -2q-2 -14 -2 -43l6 -144l6 -6l-6 -6l2 -129q0 -173 -45 -255q-45 -81 -148 -81q-57 1 -105 31q-113 72 -149 306q-21 134 -43 175q-1 163 -21 487
t-20 488l-14 43q0 13 10 27t25 14z" />
    <glyph glyph-name="umacron" unicode="&#x16b;" horiz-adv-x="651" 
d="M404 1490h-148q-90 0 -116 8t-26 25q2 17 131 17h116q118 0 133 -10t14 -26q-1 -14 -104 -14zM338 25q95 0 120 429q2 29 10 277t7 598l-4 37q-1 23 29 23q30 1 36 -13t5 -122q0 -108 -13 -158q2 -4 2 -13l-10 -163l2 -41q-4 -52 -6 -140t-4 -244q-8 -396 -114 -494
q-66 -61 -156 -10q-40 22 -66 55q-26 32 -42 212t-22 578t-16 483l13 29q47 -6 47 -113l6 -543l22 -434q0 -233 154 -233z" />
    <glyph glyph-name="Ubreve" unicode="&#x16c;" horiz-adv-x="743" 
d="M480 1864q0 -11 -11 -33l5 -15q-5 -10 -16 -36t-16 -35q-36 -72 -118 -72t-114 66q-33 66 -33 143l22 18q14 -1 19 -32q20 -108 53 -132l22 -16h51q26 0 48 38t22 66l-2 29q0 39 37 39q11 0 21 -8t10 -20zM119 1532q51 0 51 -150l18 -692q8 -10 14 -100t15 -131
q-4 -24 -4 -52q-1 -28 19 -94t52 -130t78 -110q47 -46 84 -46t55 8q18 7 28 17q11 10 17 32t8 34t4 40q2 30 2 36t-1 19l6 68v233l-14 123l-12 367v26l-9 12q9 58 9 117l-19 348q0 17 14 25t31 8l35 -33l-6 -16l6 -16l-14 -123l20 -369l10 -356l7 -2q-2 -14 -2 -43l6 -144
l6 -6l-6 -6l2 -129q0 -173 -45 -255q-45 -81 -148 -81q-57 1 -105 31q-113 72 -149 306q-21 134 -43 175q-1 163 -21 487t-20 488l-14 43q0 13 10 27t25 14z" />
    <glyph glyph-name="ubreve" unicode="&#x16d;" horiz-adv-x="651" 
d="M456 1682q0 -11 -11 -33l5 -15q-5 -10 -16 -36t-16 -35q-36 -72 -118 -72q-81 0 -114 66t-33 143l22 18q14 -1 19 -32q20 -108 53 -132l22 -16h51q26 0 48 38t22 66l-2 29q0 39 37 39q11 0 21 -8t10 -20zM338 25q95 0 120 429q2 29 10 277t7 598l-4 37q-1 23 29 23
q30 1 36 -13t5 -122q0 -108 -13 -158q2 -4 2 -13l-10 -163l2 -41q-4 -52 -6 -140t-4 -244q-8 -396 -114 -494q-66 -61 -156 -10q-40 22 -66 55q-26 32 -42 212t-22 578t-16 483l13 29q47 -6 47 -113l6 -543l22 -434q0 -233 154 -233z" />
    <glyph glyph-name="Uring" unicode="&#x16e;" horiz-adv-x="743" 
d="M263 1797q1 -85 49 -85q22 0 52 17t30 47t-14 62t-42 31q-28 0 -52 -25t-23 -47zM216 1784q0 44 37 84t79 40t78 -40t37 -88q-1 -48 -37 -78t-85 -29q-49 -1 -79 33t-30 78zM119 1532q51 0 51 -150l18 -692q8 -10 14 -100t15 -131q-4 -24 -4 -52q-1 -28 19 -94t52 -130
t78 -110q47 -46 84 -46t55 8q18 7 28 17q11 10 17 32t8 34t4 40q2 30 2 36t-1 19l6 68v233l-14 123l-12 367v26l-9 12q9 58 9 117l-19 348q0 17 14 25t31 8l35 -33l-6 -16l6 -16l-14 -123l20 -369l10 -356l7 -2q-2 -14 -2 -43l6 -144l6 -6l-6 -6l2 -129q0 -173 -45 -255
q-45 -81 -148 -81q-57 1 -105 31q-113 72 -149 306q-21 134 -43 175q-1 163 -21 487t-20 488l-14 43q0 13 10 27t25 14z" />
    <glyph glyph-name="uring" unicode="&#x16f;" horiz-adv-x="651" 
d="M239 1615q1 -85 49 -85q22 0 52 17t30 47t-14 62t-42 31q-28 0 -52 -25t-23 -47zM192 1602q0 44 37 84t79 40t78 -40t37 -88q-1 -48 -37 -78t-85 -29q-49 -1 -79 33t-30 78zM338 25q95 0 120 429q2 29 10 277t7 598l-4 37q-1 23 29 23q30 1 36 -13t5 -122
q0 -108 -13 -158q2 -4 2 -13l-10 -163l2 -41q-4 -52 -6 -140t-4 -244q-8 -396 -114 -494q-66 -61 -156 -10q-40 22 -66 55q-26 32 -42 212t-22 578t-16 483l13 29q47 -6 47 -113l6 -543l22 -434q0 -233 154 -233z" />
    <glyph glyph-name="Uhungarumlaut" unicode="&#x170;" horiz-adv-x="743" 
d="M494 1679q-10 -1 -10 15t103 92t179 120t86 45q10 0 24 -17t17 -33l-106 -60q-69 -27 -139 -71t-107 -68q-37 -23 -47 -23zM534 1966q4 0 14 -10t9 -22q1 -12 -7 -16t-57 -41t-94 -71t-61 -42t-68 -46q-50 -37 -84 -45l-10 11q5 22 172 152t186 130zM119 1532
q51 0 51 -150l18 -692q8 -10 14 -100t15 -131q-4 -24 -4 -52q-1 -28 19 -94t52 -130t78 -110q47 -46 84 -46t55 8q18 7 28 17q11 10 17 32t8 34t4 40q2 30 2 36t-1 19l6 68v233l-14 123l-12 367v26l-9 12q9 58 9 117l-19 348q0 17 14 25t31 8l35 -33l-6 -16l6 -16l-14 -123
l20 -369l10 -356l7 -2q-2 -14 -2 -43l6 -144l6 -6l-6 -6l2 -129q0 -173 -45 -255q-45 -81 -148 -81q-57 1 -105 31q-113 72 -149 306q-21 134 -43 175q-1 163 -21 487t-20 488l-14 43q0 13 10 27t25 14z" />
    <glyph glyph-name="uhungarumlaut" unicode="&#x171;" horiz-adv-x="651" 
d="M470 1497q-10 -1 -10 15t103 92t179 120t86 45q10 0 24 -17t17 -33l-106 -60q-69 -27 -139 -71t-107 -68q-37 -23 -47 -23zM510 1784q4 0 14 -10t9 -22q1 -12 -7 -16t-57 -41t-94 -71t-61 -42t-68 -46q-50 -37 -84 -45l-10 11q5 22 172 152t186 130zM338 25q95 0 120 429
q2 29 10 277t7 598l-4 37q-1 23 29 23q30 1 36 -13t5 -122q0 -108 -13 -158q2 -4 2 -13l-10 -163l2 -41q-4 -52 -6 -140t-4 -244q-8 -396 -114 -494q-66 -61 -156 -10q-40 22 -66 55q-26 32 -42 212t-22 578t-16 483l13 29q47 -6 47 -113l6 -543l22 -434q0 -233 154 -233z
" />
    <glyph glyph-name="Uogonek" unicode="&#x172;" horiz-adv-x="743" 
d="M246 -332q0 157 134 301q-154 46 -198 329q-21 134 -43 175q-1 163 -21 487t-20 488l-14 43q0 13 10 27t25 14q51 0 51 -150l18 -692q8 -10 14 -100t15 -131q-4 -24 -4 -52q-1 -28 19 -94t52 -130t78 -110q47 -46 84 -46t55 8q18 7 28 17q11 10 17 32t8 34t4 40
q2 30 2 36t-1 19l6 68v233l-14 123l-12 367v26l-9 12q9 58 9 117l-19 348q0 17 14 25t31 8l35 -33l-6 -16l6 -16l-14 -123l20 -369l10 -356l7 -2q-2 -14 -2 -43l6 -144l6 -6l-6 -6l2 -129q0 -173 -44 -253t-141 -83q-4 -5 -10 -15q-96 -131 -96 -211q0 -19 -4 -47l-2 -43
q0 -26 22 -55t47 -29l66 21q22 0 22 -24q1 -24 -29 -38t-59 -14q-63 0 -109 57t-46 105z" />
    <glyph glyph-name="uogonek" unicode="&#x173;" horiz-adv-x="651" 
d="M487 -434q1 -24 -29 -38t-59 -14q-63 0 -109 57t-46 105q0 96 47 179q47 82 80 115l14 15l59 -8q4 2 2 -2t-14 -21q-96 -131 -96 -211q0 -19 -4 -47l-2 -43q0 -26 22 -55t47 -29l66 21q22 0 22 -24zM338 25q95 0 120 429q2 29 10 277t7 598l-4 37q-1 23 29 23
q30 1 36 -13t5 -122q0 -108 -13 -158q2 -4 2 -13l-10 -163l2 -41q-4 -52 -6 -140t-4 -244q-8 -396 -114 -494q-66 -61 -156 -10q-40 22 -66 55q-26 32 -42 212t-22 578t-16 483l13 29q47 -6 47 -113l6 -543l22 -434q0 -233 154 -233z" />
    <glyph glyph-name="Wcircumflex" unicode="&#x174;" horiz-adv-x="950" 
d="M494 2076q30 0 30 -42t10 -80t26 -86q18 -48 25 -74l-2 -13l15 -30l-2 -11q8 -16 8 -22q0 -19 -37 -25l-27 17q-10 124 -59 307q-26 -66 -55 -156t-31 -110l-35 -47l-37 26q1 46 71 196t100 150zM655 236q-4 0 -4 -3zM348 6q0 -7 -12 -20t-26 -13t-26 16q-13 16 -18 65
q-4 49 -5 94q-2 73 -21 179q-20 105 -82 627q-61 523 -84 559q16 27 40 27t39 -38t23 -98q8 -61 11 -117q5 -56 7 -113t10 -136t46 -350q40 -271 53 -379h4q-1 97 15 223t19 157q3 33 13 79t11 72q3 26 9 152q6 125 10 163q4 37 10 83t7 71l-2 37q0 26 29 40q61 0 61 -36
l-10 -27q0 -228 85 -544t85 -533l6 -4q5 24 11 123t32 306t32 292q4 85 26 264t22 276l-2 39q0 49 53 49q13 1 26 -9t13 -27t-22 -35q2 -4 2 -15t-8 -43q-14 -120 -40 -452t-68 -570q-40 -238 -40 -387v-30q0 -24 -7 -37t-30 -13q-48 0 -74 315q-7 95 -63 364t-72 397l-6 4
l-2 -4q-7 -35 -8 -103t-18 -148q-16 -80 -40 -380q-24 -301 -24 -412z" />
    <glyph glyph-name="wcircumflex" unicode="&#x175;" horiz-adv-x="847" 
d="M434 1865q30 1 30 -41t10 -80t26 -87q18 -48 25 -74l-2 -13l15 -30l-2 -11q8 -16 8 -22q0 -19 -37 -25l-27 17q-10 124 -59 307q-26 -66 -55 -156t-31 -110l-35 -47l-37 26q1 45 71 195t100 151zM596 178v-2h2q0 2 -2 2zM592 -68q-35 0 -35 91q-4 54 -22 154t-22 131
t-20 225q-40 485 -75 520q-21 -231 -21 -283q-1 -52 -9 -138t-29 -222q-25 -160 -31 -221q-23 -232 -64 -232q-32 -1 -48 91t-26 262t-14 204t-22 156t-22 172t-6 125q-4 76 -10 166t-38 178q10 16 28 16t30 -16t14 -63q2 -46 4 -90t46 -393q42 -348 46 -534q6 -15 10 -55
t12 -55h2q22 150 28 196t26 190t26 320t18 255t11 106l37 16q13 0 24 -8t11 -17q0 -10 -5 -20q94 -318 114 -737q7 -160 36 -236q27 76 43 358t16 393q-1 111 13 217t14 144t-8 50q0 32 41 32q17 0 23 -4t5 -38q0 -34 -10 -70l4 -13q-18 -81 -18 -145t4 -70l-12 -41l6 -14
q-6 -11 -6 -19t6 -44l-6 -9q-1 -75 -17 -323t-21 -286t-15 -81t-11 -67q0 -224 -55 -224z" />
    <glyph glyph-name="Ycircumflex" unicode="&#x176;" horiz-adv-x="505" 
d="M271 2056q30 0 30 -42q-1 -42 9 -80t28 -86t24 -74l-2 -13l15 -30l-2 -11q8 -16 8 -22q0 -19 -37 -25l-27 17q-10 124 -59 307q-26 -66 -55 -156t-31 -110l-35 -47l-37 26q2 46 72 196t99 150zM289 -25q-29 0 -29 50l10 395l-14 166q0 33 -12 96t-13 87q0 37 -17 105
t-50 240q-34 172 -62 268t-28 122q0 42 41 42l24 -16q5 -83 53 -323t76 -277q32 94 44 236t20 214q18 160 57 160q31 0 31 -22q0 -16 -8 -44t-12 -51q-4 -22 -22 -131q-20 -109 -38 -218t-18 -245l6 -67l-13 -31v-16l15 -246q0 -277 -4 -414l6 -6l2 -14q0 -23 -12 -41
t-33 -19z" />
    <glyph glyph-name="ycircumflex" unicode="&#x177;" horiz-adv-x="561" 
d="M298 1861q30 1 30 -41t10 -80t26 -87q18 -48 25 -74l-2 -13l15 -30l-2 -11q8 -16 8 -22q0 -19 -37 -25l-27 17q-10 124 -59 307q-26 -66 -55 -156t-31 -110l-35 -47l-37 26q1 45 71 195t100 151zM309 -31q-7 0 -17 8t-13 15q20 50 20 358q1 60 -7 171t-9 145l-13 26l6 25
q-26 60 -112 302t-88 288l28 22q20 -3 60 -131t78 -255q38 -128 55 -132l8 37l-4 10q15 18 39 146t53 242q28 114 54 114t26 -22q0 -29 -48 -189t-68 -250q-21 -89 -21 -176q10 -25 10 -35l-12 -59l16 -187l2 -325q0 -148 -43 -148z" />
    <glyph glyph-name="Ydieresis" unicode="&#x178;" horiz-adv-x="505" 
d="M52 1708q0 -17 -16 -26t-34 -9t-29 17q-11 16 -11 34t16 34t33 17q41 0 41 -67zM422 1728q0 18 16 33q16 16 33 16q18 -1 32 -17t14 -32q0 -47 -54 -47q-17 1 -29 15t-12 32zM289 -25q-29 0 -29 50l10 395l-14 166q0 33 -12 96t-13 87q0 37 -17 105t-50 240
q-34 172 -62 268t-28 122q0 42 41 42l24 -16q5 -83 53 -323t76 -277q32 94 44 236t20 214q18 160 57 160q31 0 31 -22q0 -16 -8 -44t-12 -51q-4 -22 -22 -131q-20 -109 -38 -218t-18 -245l6 -67l-13 -31v-16l15 -246q0 -277 -4 -414l6 -6l2 -14q0 -23 -12 -41t-33 -19z" />
    <glyph glyph-name="Zacute" unicode="&#x179;" horiz-adv-x="471" 
d="M160 1704q0 12 122 106t132 103q45 0 45 -32q0 -1 -6 -31q-103 -46 -256 -176q-37 0 -37 30zM352 -10l-243 -8q-21 0 -31 26q44 77 65 177t34 222t26 181q65 490 92 672t29 239l-138 -10q-92 0 -92 41l15 16q16 -4 49 -4l192 21q33 0 33 -37q-21 -49 -29 -155t-16 -162
t-57 -434t-82 -580q-3 -22 -25 -74t-22 -82l133 10q86 0 86 -41z" />
    <glyph glyph-name="zacute" unicode="&#x17a;" horiz-adv-x="538" 
d="M197 1509q-1 11 121 105t133 104q45 0 45 -32q0 -1 -6 -31q-103 -46 -256 -176q-37 0 -37 30zM115 -4q-31 0 -31 33t42 183t65 267q24 117 38 173t59 196q99 311 99 455l-192 -13q-13 0 -21 10t-8 23q0 33 227 33q51 0 51 -33q0 -71 -50 -225t-50 -183q-11 -56 -62 -227
q-128 -426 -130 -625q20 -4 59 -4l86 7q59 0 59 -27t-47 -27l-121 6q-22 0 -44 -11t-29 -11z" />
    <glyph glyph-name="Zdotaccent" unicode="&#x17b;" horiz-adv-x="471" 
d="M144 1723q0 19 16 37t36 17q18 1 34 -17t16 -36q0 -51 -57 -51q-17 -1 -31 15t-14 35zM352 -10l-243 -8q-21 0 -31 26q44 77 65 177t34 222t26 181q65 490 92 672t29 239l-138 -10q-92 0 -92 41l15 16q16 -4 49 -4l192 21q33 0 33 -37q-21 -49 -29 -155t-16 -162
t-57 -434t-82 -580q-3 -22 -25 -74t-22 -82l133 10q86 0 86 -41z" />
    <glyph glyph-name="zdotaccent" unicode="&#x17c;" horiz-adv-x="538" 
d="M182 1529q0 19 16 37t36 17q18 1 34 -17t16 -36q0 -51 -57 -51q-17 -1 -31 15t-14 35zM115 -4q-31 0 -31 33t42 183t65 267q24 117 38 173t59 196q99 311 99 455l-192 -13q-13 0 -21 10t-8 23q0 33 227 33q51 0 51 -33q0 -71 -50 -225t-50 -183q-11 -56 -62 -227
q-128 -426 -130 -625q20 -4 59 -4l86 7q59 0 59 -27t-47 -27l-121 6q-22 0 -44 -11t-29 -11z" />
    <glyph glyph-name="Zcaron" unicode="&#x17d;" horiz-adv-x="471" 
d="M324 2032q0 -7 -8 -23l2 -10l-15 -31l2 -12q-7 -26 -34 -101t-27 -129t-30 -53t-100 151t-71 195l37 27l35 -47q3 -33 43 -147t43 -119q49 183 59 307l27 16q37 -6 37 -24zM352 -10l-243 -8q-21 0 -31 26q44 77 65 177t34 222t26 181q65 490 92 672t29 239l-138 -10
q-92 0 -92 41l15 16q16 -4 49 -4l192 21q33 0 33 -37q-21 -49 -29 -155t-16 -162t-57 -434t-82 -580q-3 -22 -25 -74t-22 -82l133 10q86 0 86 -41z" />
    <glyph glyph-name="zcaron" unicode="&#x17e;" horiz-adv-x="538" 
d="M362 1837q0 -7 -8 -23l2 -10l-15 -31l2 -12q-7 -26 -34 -101q-27 -74 -27 -128t-30 -54t-100 150t-71 196l37 27l35 -47q3 -34 43 -148t43 -118q49 183 59 307l27 16q37 -6 37 -24zM115 -4q-31 0 -31 33t42 183t65 267q24 117 38 173t59 196q99 311 99 455l-192 -13
q-13 0 -21 10t-8 23q0 33 227 33q51 0 51 -33q0 -71 -50 -225t-50 -183q-11 -56 -62 -227q-128 -426 -130 -625q20 -4 59 -4l86 7q59 0 59 -27t-47 -27l-121 6q-22 0 -44 -11t-29 -11z" />
    <glyph glyph-name="uni01C4" unicode="&#x1c4;" horiz-adv-x="1173" 
d="M1026 2032q0 -7 -8 -23l2 -10l-15 -31l2 -12q-7 -26 -34 -101t-27 -129t-30 -53t-100 151t-71 195l37 27l35 -47q3 -33 43 -147t43 -119q49 183 59 307l27 16q37 -6 37 -24zM1054 -10l-243 -8q-21 0 -31 26q44 77 65 177t34 222t26 181q65 490 92 672t29 239l-138 -10
q-92 0 -92 41l15 16q16 -4 49 -4l192 21q33 0 33 -37q-21 -49 -29 -155t-16 -162t-57 -434t-82 -580q-3 -22 -25 -74t-22 -82l133 10q86 0 86 -41zM211 368q0 -92 -4 -202l4 -8v-58h10q77 42 136 118q100 129 139 316q39 188 39 340q0 599 -330 599q-41 0 -43 -23l18 -340
q0 -132 16 -392q16 -258 15 -350zM82 1497q0 49 154 49h10q78 0 168 -86t118 -155t36 -165t12 -177q4 -80 14 -101l-4 -55l6 -10l-6 -17l6 -10q-12 -19 -12 -57t-4 -70t-8 -50q-4 -17 -14 -53t-28 -114q-56 -220 -186 -325t-154 -105t-48 10t-27 31q29 37 32 82l9 180l2 82
q0 120 -14 279t-17 198q-9 18 -10 256t-5 264t-16 62q-14 36 -14 57z" />
    <glyph glyph-name="uni01C5" unicode="&#x1c5;" horiz-adv-x="1241" 
d="M1064 1837q0 -7 -8 -23l2 -10l-15 -31l2 -12q-7 -26 -34 -101q-27 -74 -27 -128t-30 -54t-100 150t-71 196l37 27l35 -47q3 -34 43 -148t43 -118q49 183 59 307l27 16q37 -6 37 -24zM817 -4q-31 0 -31 33t42 183t65 267q24 117 38 173t59 196q99 311 99 455l-192 -13
q-13 0 -21 10t-8 23q0 33 227 33q51 0 51 -33q0 -71 -50 -225t-50 -183q-11 -56 -62 -227q-128 -426 -130 -625q20 -4 59 -4l86 7q59 0 59 -27t-47 -27l-121 6q-22 0 -44 -11t-29 -11zM211 368q0 -92 -4 -202l4 -8v-58h10q77 42 136 118q100 129 139 316q39 188 39 340
q0 599 -330 599q-41 0 -43 -23l18 -340q0 -132 16 -392q16 -258 15 -350zM82 1497q0 49 154 49h10q78 0 168 -86t118 -155t36 -165t12 -177q4 -80 14 -101l-4 -55l6 -10l-6 -17l6 -10q-12 -19 -12 -57t-4 -70t-8 -50q-4 -17 -14 -53t-28 -114q-56 -220 -186 -325t-154 -105
t-48 10t-27 31q29 37 32 82l9 180l2 82q0 120 -14 279t-17 198q-9 18 -10 256t-5 264t-16 62q-14 36 -14 57z" />
    <glyph glyph-name="uni01C6" unicode="&#x1c6;" horiz-adv-x="1191" 
d="M1015 1837q0 -7 -8 -23l2 -10l-15 -31l2 -12q-7 -26 -34 -101q-27 -74 -27 -128t-30 -54q-29 0 -99 150t-72 196l37 27l35 -47q4 -34 44 -148t42 -118q49 183 59 307l27 16q37 -6 37 -24zM768 -4q-31 0 -31 33q-1 33 41 183t66 267t38 173t59 196q99 311 99 455l-192 -13
q-12 0 -20 10t-9 23q0 33 227 33q51 0 51 -33q0 -71 -50 -225t-50 -183q-11 -56 -62 -227q-128 -426 -130 -625q20 -4 59 -4l86 7q59 0 59 -27t-47 -27l-121 6q-23 0 -45 -11t-28 -11zM201 1262q-23 0 -23 -410t23 -733l-2 -39l8 -4l6 -27h63q12 17 30 31t26 20
q145 131 145 492l-2 74l-10 206q-4 116 -71 246q-30 62 -82 103t-111 41zM141 -10q-18 0 -18 55q-8 159 -8 356l4 484q0 213 -8 385q-17 14 -17 35t17 36t31 15t32 -16t26 -22q9 -4 43 -10q35 -6 57 -16q22 -12 73 -60t69 -61l-2 -4q2 -13 30 -53t36 -57q33 -89 33 -244
l-2 -96q0 -81 10 -99q-13 -67 -27 -220t-63 -246q-49 -94 -174 -162h-142z" />
    <glyph glyph-name="uni01C7" unicode="&#x1c7;" horiz-adv-x="944" 
d="M684 -25q2 0 2 -2zM741 221q0 106 -10 303q-9 197 -17 521t-30 444l-109 -19q-12 0 -20 10t-8 21q0 51 282 51q13 0 23 -10t10 -22q0 -31 -95 -31h-22l-2 -39q1 -54 13 -162t12 -204t18 -369q18 -272 19 -410l-11 -168q0 -23 7 -37l-15 -32q-4 -73 -55 -148t-111 -119
q-43 0 -43 39q2 18 35 40t39 28q90 90 90 313zM197 104q-1 -29 9 -39t41 -10t42 13h76q28 -14 28 -32q0 -40 -28 -40q-7 0 -31 8q-10 -4 -41 -4l-64 2q-11 0 -28 -12t-31 -13q-14 0 -28 13t-15 30l12 93l-20 581l-21 856q0 21 27 21q39 0 39 -37q0 -474 10 -600t10 -156
t-4 -80l6 -8q-4 -54 -4 -110l23 -435q-8 -12 -8 -41z" />
    <glyph glyph-name="uni01C8" unicode="&#x1c8;" horiz-adv-x="1048" 
d="M586 1335q0 9 17 17t50 8t175 -29t143 -57q0 -28 -33 -27l-111 21q-18 0 -18 -41l20 -850v-225q-12 -27 -12 -77q0 -49 -13 -101t-37 -104t-66 -87t-93 -35h-14l-47 47l-2 8q-1 9 73 57t82 56q34 37 50 113t16 143l-19 1088l-12 22q-9 4 -50 10q-99 13 -99 43zM197 104
q-1 -29 9 -39t41 -10t42 13h76q28 -14 28 -32q0 -40 -28 -40q-7 0 -31 8q-10 -4 -41 -4l-64 2q-11 0 -28 -12t-31 -13q-14 0 -28 13t-15 30l12 93l-20 581l-21 856q0 21 27 21q39 0 39 -37q0 -474 10 -600t10 -156t-4 -80l6 -8q-4 -54 -4 -110l23 -435q-8 -12 -8 -41z" />
    <glyph glyph-name="uni01C9" unicode="&#x1c9;" horiz-adv-x="1071" 
d="M609 1335q0 9 17 17t50 8q34 0 176 -29t142 -57t-33 -27l-111 21q-18 0 -18 -41l20 -850v-225q-12 -27 -12 -77q0 -49 -13 -101t-37 -104t-66 -87t-93 -35h-14l-47 47l-2 8q0 9 74 57t81 56q33 37 49 113t17 143l-19 1088l-12 22q-9 4 -50 10q-99 13 -99 43zM387 41
q11 1 21 -11t10 -24q0 -23 -33 -26q-53 2 -170 2l4 -2l-76 -7q-29 0 -34 47q4 20 4 68l12 1092l10 135q0 14 15 14l34 -8l-2 -162l2 -446q-6 -168 -6 -172l4 -174l-6 -17l2 2l-2 -16q0 -17 6 -29l-6 -196v-13q0 -32 2 -42t10 -9l193 -6h6z" />
    <glyph glyph-name="uni01CA" unicode="&#x1ca;" horiz-adv-x="1241" 
d="M981 -25q2 0 2 -2zM1038 221q0 106 -10 303t-18 521t-29 444l-109 -19q-12 0 -20 10t-8 21q0 51 282 51q14 0 24 -10t9 -22q0 -31 -95 -31h-22l-2 -39q0 -54 12 -162t13 -204t19 -369q18 -272 18 -410l-11 -168q0 -23 7 -37l-15 -32q-4 -73 -55 -148t-111 -119
q-43 0 -43 39q2 18 35 40t39 28q90 90 90 313zM219 1501q0 -51 26 -111q25 -60 35 -92t18 -104t19 -127t36 -148t57 -206t42 -149q8 -36 32 -120t26 -131q14 -21 22 -81t33 -82q13 29 13 98l8 713l-6 317l6 78q0 22 -6 26l6 17q0 126 -8 168q8 28 51 28q33 0 33 -67
q-13 -26 -13 -68l2 -69q0 -44 -8 -62l-6 -647q0 -19 4 -55l-4 -9v-258l4 -77q0 -122 -20 -168v-4l6 -74q0 -60 -52 -60q-36 0 -49 77q-7 36 -8 40q-200 631 -252 922q-2 9 -4 39t-18 47l4 10q-14 76 -20 106t-17 80q-11 51 -33 103q-6 -42 -6 -64t4 -34q-14 -48 -14 -142
v-561q0 -98 14 -292t14 -292l-14 -16h-47l-6 16q4 16 4 82l-23 713v268l15 387l-2 43q0 43 51 43t51 -51z" />
    <glyph glyph-name="uni01CB" unicode="&#x1cb;" horiz-adv-x="1345" 
d="M883 1335q0 9 17 17t50 8q34 0 176 -29t142 -57t-33 -27l-111 21q-18 0 -18 -41l20 -850v-225q-12 -27 -12 -77q0 -49 -13 -101t-37 -104t-66 -87t-93 -35h-14l-47 47l-2 8q0 9 74 57t81 56q33 37 49 113t17 143l-19 1088l-12 22q-9 4 -50 10q-99 13 -99 43zM219 1501
q0 -51 26 -111q25 -60 35 -92t18 -104t19 -127t36 -148t57 -206t42 -149q8 -36 32 -120t26 -131q14 -21 22 -81t33 -82q13 29 13 98l8 713l-6 317l6 78q0 22 -6 26l6 17q0 126 -8 168q8 28 51 28q33 0 33 -67q-13 -26 -13 -68l2 -69q0 -44 -8 -62l-6 -647q0 -19 4 -55l-4 -9
v-258l4 -77q0 -122 -20 -168v-4l6 -74q0 -60 -52 -60q-36 0 -49 77q-7 36 -8 40q-200 631 -252 922q-2 9 -4 39t-18 47l4 10q-14 76 -20 106t-17 80q-11 51 -33 103q-6 -42 -6 -64t4 -34q-14 -48 -14 -142v-561q0 -98 14 -292t14 -292l-14 -16h-47l-6 16q4 16 4 82l-23 713
v268l15 387l-2 43q0 43 51 43t51 -51z" />
    <glyph glyph-name="uni01CC" unicode="&#x1cc;" horiz-adv-x="1435" 
d="M973 1335q0 9 17 17t50 8q34 0 176 -29t142 -57t-33 -27l-111 21q-18 0 -18 -41l20 -850v-225q-12 -27 -12 -77q0 -49 -13 -101t-37 -104t-66 -87t-93 -35h-14l-47 47l-2 8q0 9 74 57t81 56q33 37 49 113t17 143l-19 1088l-12 22q-9 4 -50 10q-99 13 -99 43zM707 1341
q21 0 33 -19t12 -40v-137l-11 -17q0 -160 -22 -620t-43 -502q-5 -1 -19 -5t-16 -4v-1l-1 1q-19 -5 -29 -5q-9 0 -17 14t-12 35q-4 22 -9 29l2 6q-13 84 -53 194t-53 148q-7 9 -55 153q-184 571 -232 617q-16 -63 -16 -144l4 -161l-4 -99q0 -23 8 -143h-6q0 -341 14 -377
v-184q8 -14 8 -36q0 -48 -38 -48q-43 0 -43 110l8 134l-13 589l13 363v36q-1 27 1 36t5 36t31 50l6 -7l20 5q23 -8 28 -32l5 -22q35 -146 147 -407t136 -335t54 -208t81 -219l4 6q47 447 47 1116l-4 51q0 43 29 43z" />
    <glyph glyph-name="uni01CD" unicode="&#x1cd;" 
d="M544 2032q0 -7 -8 -23l2 -10l-15 -31l2 -12q-7 -26 -34 -101t-27 -129t-30 -53t-100 151t-71 195l37 27l35 -47q3 -33 43 -147t43 -119q49 183 59 307l27 16q37 -6 37 -24zM438 397q25 0 37 4l10 -4q19 0 19 19q0 428 -80 923q0 6 -4 22t-4 25q-25 -71 -27 -90l6 -12
q-23 -23 -60 -277q-37 -255 -49 -311t-34 -130t-21 -128v-12q86 -29 207 -29zM590 44q0 -44 -41 -44q-19 0 -31 10t-12 25q6 12 6 24l-6 41v203q0 27 -108 47t-160 19q-20 -1 -36 -75t-31 -163t-30 -111q-48 0 -63 25q32 46 62 224q30 179 47 259q19 80 65 349t67 364
q65 295 103 295q32 0 42 -14t19 -75q8 -60 28 -278q19 -219 23 -287t19 -98q-4 -62 -4 -106t18 -78l23 -534v-22z" />
    <glyph glyph-name="uni01CE" unicode="&#x1ce;" horiz-adv-x="667" 
d="M515 1837q0 -7 -8 -23l2 -10l-15 -31l2 -12q-7 -26 -34 -101q-27 -74 -27 -128t-30 -54q-29 0 -99 150t-72 196l37 27l35 -47q4 -34 44 -148t42 -118q49 183 59 307l27 16q37 -6 37 -24zM223 406q0 -20 62 -38t153 -18h21q-13 40 -13 92v47q0 127 -32 370t-33 362
q-107 -529 -133 -653t-25 -162zM249 315q-35 0 -38 -2t-4 -7t-2 -7l-4 -41q-4 -52 -19 -125q-28 -143 -59 -143q-13 0 -27 11t-14 24q26 77 54 233t35 194t26 156q19 117 25 154t35 173t44 274q15 137 25 155l28 -2q25 0 37 12q13 0 25 -8t12 -23q0 -98 25 -379
q25 -282 39 -364t34 -162q19 -80 19 -121l-10 -28q0 -45 17 -135t17 -126t-16 -46q-41 0 -51 12t-10 38t-4 66q-4 38 -6 61q-4 23 -12 73t-11 63q-39 10 -92 10l-54 -2q-29 12 -64 12z" />
    <glyph glyph-name="uni01CF" unicode="&#x1cf;" horiz-adv-x="477" 
d="M303 2032q0 -7 -8 -23l2 -10l-15 -31l2 -12q-7 -26 -34 -101t-27 -129t-30 -53q-29 1 -99 151t-72 195l37 27l35 -47q4 -33 44 -147t42 -119q49 183 59 307l27 16q37 -6 37 -24zM185 10q-94 0 -109 35q0 23 47 23l45 -2q41 0 42 59q0 59 -6 144t-8 169t-11 327
q-10 243 -13 349l2 240q0 99 -6 119l-70 -15q-22 0 -22 28t90 48q90 18 133 18t43 -34t-25 -33l-49 2q-35 0 -42 -33q-7 -27 -7 -159q-1 -132 25 -523t26 -588l-2 -106l74 6q53 0 53 -51l-35 -25l-65 10q-23 0 -47 -24q-46 0 -58 16h-5z" />
    <glyph glyph-name="uni01D0" unicode="&#x1d0;" horiz-adv-x="550" 
d="M370 1837q0 -7 -8 -23l2 -10l-15 -31l2 -12q-7 -26 -34 -101q-27 -74 -27 -128t-30 -54t-100 150t-71 196l37 27l35 -47q3 -34 43 -148t43 -118q49 183 59 307l27 16q37 -6 37 -24zM266 0q-30 0 -39 20l-34 -2q-44 0 -56 21q-1 13 11 21t16 14h59l8 8l7 43l-15 448
l10 478q0 139 -10 237q-20 6 -61 6l-49 -4q-39 0 -39 35q0 9 18 17t31 8q285 0 285 -62q0 -6 -5 -16l-47 -4q-16 12 -59 12l-10 -6q6 -18 6 -109l-6 -487l14 -449l-2 -63q0 -48 6 -57l-2 -5q0 -20 45 -20l60 2q61 0 61 -29q0 -17 -13 -29t-32 -12l-68 7q-16 1 -38 -11
t-52 -12z" />
    <glyph glyph-name="uni01D1" unicode="&#x1d1;" 
d="M431 2032q0 -7 -8 -23l2 -10l-15 -31l2 -12q-7 -26 -34 -101t-27 -129t-30 -53q-29 1 -99 151t-72 195l37 27l35 -47q4 -33 44 -147t42 -119q49 183 59 307l27 16q37 -6 37 -24zM303 1518q-151 0 -151 -607v-80q0 -141 22 -305t44 -266q24 -102 66 -174t95 -72
q70 0 102 142q45 200 45 452v49v65t-2 86q-1 60 -4 108q-3 47 -8 114q-6 86 -30 210q-54 278 -179 278zM555 222q0 -56 -22 -114q-21 -58 -65 -104t-94 -47q-50 0 -93 38q-134 118 -172 537q-15 164 -15 266t9 234q9 131 10 169t2 67q7 189 70 260q39 43 115 43t124 -41
q6 -11 36 -49q30 -39 44 -73t33 -169q49 -350 49 -621l-19 -264l4 -8q-16 -69 -16 -124z" />
    <glyph glyph-name="uni01D2" unicode="&#x1d2;" horiz-adv-x="673" 
d="M429 1837q0 -7 -8 -23l2 -10l-15 -31l2 -12q-7 -26 -34 -101q-27 -74 -27 -128t-30 -54q-29 0 -99 150t-72 196l37 27l35 -47q4 -34 44 -148t42 -118q49 183 59 307l27 16q37 -6 37 -24zM326 20q81 0 119 114q55 163 55 429l-23 484l-8 16l4 10q0 89 -50 155t-122 66h-86
q-17 0 -30 -182t-17 -203l-10 -192l4 -162q0 -195 44 -371q16 -66 48 -115t72 -49zM334 -39q-240 0 -240 754q0 291 40 505q30 156 91 156q15 0 27 -11t34 -19t58 -14q38 -7 54 -10q41 -7 79 -79q86 -146 86 -442l-4 -10l4 -244q0 -461 -148 -561q-36 -25 -81 -25z" />
    <glyph glyph-name="uni01D3" unicode="&#x1d3;" horiz-adv-x="743" 
d="M463 2032q0 -7 -8 -23l2 -10l-15 -31l2 -12q-7 -26 -34 -101t-27 -129t-30 -53q-29 1 -99 151t-72 195l37 27l35 -47q4 -33 44 -147t42 -119q49 183 59 307l27 16q37 -6 37 -24zM119 1532q51 0 51 -150l18 -692q8 -10 14 -100t15 -131q-4 -24 -4 -52q-1 -28 19 -94
t52 -130t78 -110q47 -46 84 -46t55 8q18 7 28 17q11 10 17 32t8 34t4 40q2 30 2 36t-1 19l6 68v233l-14 123l-12 367v26l-9 12q9 58 9 117l-19 348q0 17 14 25t31 8l35 -33l-6 -16l6 -16l-14 -123l20 -369l10 -356l7 -2q-2 -14 -2 -43l6 -144l6 -6l-6 -6l2 -129
q0 -173 -45 -255q-45 -81 -148 -81q-57 1 -105 31q-113 72 -149 306q-21 134 -43 175q-1 163 -21 487t-20 488l-14 43q0 13 10 27t25 14z" />
    <glyph glyph-name="uni01D4" unicode="&#x1d4;" horiz-adv-x="651" 
d="M439 1850q0 -7 -8 -23l2 -10l-15 -31l2 -12q-7 -26 -34 -101t-27 -129t-30 -53q-29 1 -99 151t-72 195l37 27l35 -47q4 -33 44 -147t42 -119q49 183 59 307l27 16q37 -6 37 -24zM338 25q95 0 120 429q2 29 10 277t7 598l-4 37q-1 23 29 23q30 1 36 -13t5 -122
q0 -108 -13 -158q2 -4 2 -13l-10 -163l2 -41q-4 -52 -6 -140t-4 -244q-8 -396 -114 -494q-66 -61 -156 -10q-40 22 -66 55q-26 32 -42 212t-22 578t-16 483l13 29q47 -6 47 -113l6 -543l22 -434q0 -233 154 -233z" />
    <glyph glyph-name="uni01F0" unicode="&#x1f0;" horiz-adv-x="573" 
d="M375 1837q0 -7 -8 -23l2 -10l-15 -31l2 -12q-7 -26 -34 -101q-27 -74 -27 -128t-30 -54q-29 0 -99 150t-72 196l37 27l35 -47q4 -34 44 -148t42 -118q49 183 59 307l27 16q37 -6 37 -24zM111 1335q0 9 17 17t50 8q34 0 176 -29t142 -57t-33 -27l-111 21q-18 0 -18 -41
l20 -850v-225q-12 -27 -12 -77q0 -49 -13 -101t-37 -104t-66 -87t-93 -35h-14l-47 47l-2 8q0 9 74 57t81 56q33 37 49 113t17 143l-19 1088l-12 22q-9 4 -50 10q-99 13 -99 43z" />
    <glyph glyph-name="uni01F1" unicode="&#x1f1;" horiz-adv-x="1173" 
d="M1054 -10l-243 -8q-21 0 -31 26q44 77 65 177t34 222t26 181q65 490 92 672t29 239l-138 -10q-92 0 -92 41l15 16q16 -4 49 -4l192 21q33 0 33 -37q-21 -49 -29 -155t-16 -162t-57 -434t-82 -580q-3 -22 -25 -74t-22 -82l133 10q86 0 86 -41zM211 368q0 -92 -4 -202l4 -8
v-58h10q77 42 136 118q100 129 139 316q39 188 39 340q0 599 -330 599q-41 0 -43 -23l18 -340q0 -132 16 -392q16 -258 15 -350zM82 1497q0 49 154 49h10q78 0 168 -86t118 -155t36 -165t12 -177q4 -80 14 -101l-4 -55l6 -10l-6 -17l6 -10q-12 -19 -12 -57t-4 -70t-8 -50
q-4 -17 -14 -53t-28 -114q-56 -220 -186 -325t-154 -105t-48 10t-27 31q29 37 32 82l9 180l2 82q0 120 -14 279t-17 198q-9 18 -10 256t-5 264t-16 62q-14 36 -14 57z" />
    <glyph glyph-name="uni01F2" unicode="&#x1f2;" horiz-adv-x="1241" 
d="M817 -4q-31 0 -31 33t42 183t65 267q24 117 38 173t59 196q99 311 99 455l-192 -13q-13 0 -21 10t-8 23q0 33 227 33q51 0 51 -33q0 -71 -50 -225t-50 -183q-11 -56 -62 -227q-128 -426 -130 -625q20 -4 59 -4l86 7q59 0 59 -27t-47 -27l-121 6q-22 0 -44 -11t-29 -11z
M211 368q0 -92 -4 -202l4 -8v-58h10q77 42 136 118q100 129 139 316q39 188 39 340q0 599 -330 599q-41 0 -43 -23l18 -340q0 -132 16 -392q16 -258 15 -350zM82 1497q0 49 154 49h10q78 0 168 -86t118 -155t36 -165t12 -177q4 -80 14 -101l-4 -55l6 -10l-6 -17l6 -10
q-12 -19 -12 -57t-4 -70t-8 -50q-4 -17 -14 -53t-28 -114q-56 -220 -186 -325t-154 -105t-48 10t-27 31q29 37 32 82l9 180l2 82q0 120 -14 279t-17 198q-9 18 -10 256t-5 264t-16 62q-14 36 -14 57z" />
    <glyph glyph-name="uni01F3" unicode="&#x1f3;" horiz-adv-x="1191" 
d="M768 -4q-31 0 -31 33q-1 33 41 183t66 267t38 173t59 196q99 311 99 455l-192 -13q-12 0 -20 10t-9 23q0 33 227 33q51 0 51 -33q0 -71 -50 -225t-50 -183q-11 -56 -62 -227q-128 -426 -130 -625q20 -4 59 -4l86 7q59 0 59 -27t-47 -27l-121 6q-23 0 -45 -11t-28 -11z
M201 1262q-23 0 -23 -410t23 -733l-2 -39l8 -4l6 -27h63q12 17 30 31t26 20q145 131 145 492l-2 74l-10 206q-4 116 -71 246q-30 62 -82 103t-111 41zM141 -10q-18 0 -18 55q-8 159 -8 356l4 484q0 213 -8 385q-17 14 -17 35t17 36t31 15t32 -16t26 -22q9 -4 43 -10
q35 -6 57 -16q22 -12 73 -60t69 -61l-2 -4q2 -13 30 -53t36 -57q33 -89 33 -244l-2 -96q0 -81 10 -99q-13 -67 -27 -220t-63 -246q-49 -94 -174 -162h-142z" />
    <glyph glyph-name="uni01F4" unicode="&#x1f4;" horiz-adv-x="774" 
d="M302 1704q0 12 122 106t132 103q45 0 45 -32q0 -1 -6 -31q-103 -46 -256 -176q-37 0 -37 30zM571 463q64 0 64 -86q1 -61 21 -183t20 -182q0 -32 -27 -32q-49 0 -49 45q0 1 1 5t1 5q-20 -6 -52 -29t-48 -28t-48 -7t-47 -11q-133 30 -193 87t-82 179q-38 203 -38 651
q0 176 10 250q21 158 57 246q79 198 259 198q61 0 61 -35q0 -25 -30 -25l-58 11q-157 0 -203 -287q-26 -156 -26 -408q-6 -163 -6 -225t1 -96t5 -87q5 -73 29 -169q24 -97 81 -161q58 -64 159 -64t167 102q0 153 -18 209t-35 55l-82 -8q-47 0 -47 35q0 19 60 32t93 13z
M410 -41q-3 1 -4 0h4z" />
    <glyph glyph-name="uni01F5" unicode="&#x1f5;" horiz-adv-x="688" 
d="M269 1509q-1 11 121 105t133 104q45 0 45 -32q0 -1 -6 -31q-103 -46 -256 -176q-37 0 -37 30zM168 610q0 -82 6 -131q16 -25 21 -81t9 -114q4 -57 16 -113t53 -91t112 -35q123 0 123 327v150q-21 21 -72 21l-39 -2q-49 0 -49 24q0 35 49 35q189 0 189 -41l-23 -153
l8 -314q-106 -106 -209 -106q-136 0 -178 56t-68 260q-24 204 -24 290t10 191t16 199t21 158q49 216 232 216q63 0 63 -29q0 -15 -14 -23t-27 -8l-39 4q-186 0 -186 -690z" />
    <glyph glyph-name="Scommaaccent" unicode="&#x218;" horiz-adv-x="569" 
d="M238 -165q0 27 24 45t53 18q46 0 68 -60l-4 -6q4 -8 4 -34t-25 -83q-25 -58 -65 -106t-74 -49l-33 16l4 18q107 86 107 150q-25 14 -42 39t-17 52zM471 338q1 -66 -15 -129t-46 -121t-80 -96q-52 -38 -100 -37q-48 0 -67 2q-59 6 -83 49q0 25 22 25q22 1 58 -15t69 -16
t71 38t67 123q30 85 30 185t-30 202q-29 103 -73 188t-87 170q-103 202 -103 366t90 254q49 47 115 47q21 -1 54 -17t40 -34l-12 -23q-46 0 -67 21q-49 0 -84 -37q-66 -67 -66 -163t13 -150t20 -81q7 -28 25 -71t26 -64t34 -69q24 -48 32 -62q8 -13 36 -67q30 -54 35 -64
l-2 -8q0 -1 47 -158q31 -122 31 -188z" />
    <glyph glyph-name="scommaaccent" unicode="&#x219;" horiz-adv-x="489" 
d="M197 -165q1 27 25 45t52 18q46 0 68 -60l-4 -6q4 -8 4 -34t-25 -83q-25 -58 -65 -106t-74 -49l-33 16l5 18q4 4 28 25q78 69 78 125q-25 14 -42 39t-17 52zM317 1313v-2h2q0 2 -2 2zM143 1112q0 -42 2 -60q1 -18 7 -42t8 -34t12 -42t10 -35l15 -37q20 -36 52 -90t65 -113
q33 -58 54 -140q21 -81 21 -157t-6 -120q-14 -103 -66 -183q-52 -79 -151 -79l-10 -5q-60 11 -66 50l10 16l74 -14q94 0 138 153q24 80 24 168t-26 168q-26 78 -61 143l-72 130q-87 157 -87 309q0 78 28 149q51 131 134 131q22 0 50 -18t28 -39q0 -16 -27 -16l-43 12
q-62 0 -98 -107q-18 -56 -19 -98z" />
    <glyph glyph-name="uni021A" unicode="&#x21a;" horiz-adv-x="542" 
d="M223 -166q1 28 25 46t53 18q46 0 68 -60l-4 -6q4 -8 4 -34t-25 -83q-25 -58 -65 -106t-74 -49l-33 16l4 18q107 86 107 150q-60 36 -60 90zM317 -12q-21 0 -32 28t-11 54l17 336q-1 108 -15 326t-14 329l2 192q0 211 -35 211l-116 -12q-15 0 -29 10t-14 25q0 21 136 40
t216 19q15 0 29 -10t14 -25q0 -30 -39 -30l-76 6q-35 0 -43 -21q15 -129 15 -266l-3 -248q0 -242 29 -348q-6 -30 -6 -59l10 -477q0 -80 -35 -80z" />
    <glyph glyph-name="uni021B" unicode="&#x21b;" horiz-adv-x="544" 
d="M225 -166q1 28 25 46t53 18q46 0 68 -60l-4 -6q4 -8 4 -34t-25 -83q-25 -58 -65 -106t-74 -49l-33 16l4 18q107 86 107 150q-60 36 -60 90zM297 1161q0 -109 34 -509t34 -601q0 -15 -12 -27t-27 -12l-23 17l-4 149l4 72q0 28 -8 49q-1 174 -25 507t-26 492
q-161 0 -172 39q9 23 39 23l278 -19l37 2q37 0 37 -26q0 -13 -15 -23t-30 -10l-111 14l-10 -12l4 -8q-4 -8 -4 -117z" />
    <glyph glyph-name="uni0237" unicode="&#x237;" horiz-adv-x="573" 
d="M111 1335q0 9 17 17t50 8q34 0 176 -29t142 -57t-33 -27l-111 21q-18 0 -18 -41l20 -850v-225q-12 -27 -12 -77q0 -49 -13 -101t-37 -104t-66 -87t-93 -35h-14l-47 47l-2 8q0 9 74 57t81 56q33 37 49 113t17 143l-19 1088l-12 22q-9 4 -50 10q-99 13 -99 43z" />
    <glyph glyph-name="circumflex" unicode="&#x2c6;" horiz-adv-x="479" 
d="M269 1333q30 1 30 -41q-1 -42 9 -80t28 -87q18 -48 24 -74l-2 -13l15 -30l-2 -11q8 -16 8 -22q0 -19 -37 -25l-27 17q-10 124 -59 307q-26 -66 -55 -156t-31 -110l-35 -47l-37 26q2 45 72 195t99 151z" />
    <glyph glyph-name="caron" unicode="&#x2c7;" horiz-adv-x="473" 
d="M373 1309q0 -7 -8 -23l2 -10l-15 -31l2 -12q-7 -26 -34 -101q-27 -74 -27 -128t-30 -54q-29 0 -99 150t-72 196l37 27l35 -47q4 -34 44 -148t42 -118q49 183 59 307l27 16q37 -6 37 -24z" />
    <glyph glyph-name="breve" unicode="&#x2d8;" horiz-adv-x="518" 
d="M412 1082q0 -11 -11 -33l5 -15q-5 -10 -16 -36t-16 -35q-36 -72 -118 -72t-114 66q-33 66 -33 143l22 18q14 -1 19 -32q20 -108 53 -132l22 -16h51q26 0 48 38t22 66l-2 29q0 39 37 39q11 0 21 -8t10 -20z" />
    <glyph glyph-name="dotaccent" unicode="&#x2d9;" horiz-adv-x="1705" 
d="M113 1203q1 19 17 37t35 17q19 1 35 -17t15 -36q0 -51 -57 -51q-18 -1 -32 15t-13 35z" />
    <glyph glyph-name="ring" unicode="&#x2da;" horiz-adv-x="395" 
d="M127 1181q1 -85 49 -85q22 0 52 17t30 47t-14 62t-42 31q-28 0 -52 -25t-23 -47zM80 1168q0 44 37 84t79 40t78 -40t37 -88q-1 -48 -37 -78t-85 -29q-49 -1 -79 33t-30 78z" />
    <glyph glyph-name="ogonek" unicode="&#x2db;" horiz-adv-x="468" 
d="M356 -426q0 -24 -30 -38t-58 -15q-62 0 -108 57q-46 58 -47 106q0 96 47 178t80 115l14 15l59 -8q4 2 2 -2t-14 -21q-96 -131 -96 -211q0 -19 -4 -47l-2 -43q0 -26 22 -55t47 -29l66 21q22 1 22 -23z" />
    <glyph glyph-name="tilde" unicode="&#x2dc;" horiz-adv-x="653" 
d="M500 1200q20 0 32 -22t11 -56q0 -34 -33 -68q-33 -32 -73 -32t-77 22t-56 40q-19 20 -52 59l-14 6h-37q-3 -12 -21 -25q-18 -14 -18 -26t10 -47l-22 -31q-13 0 -26 11t-13 24q0 63 32 104t93 41q66 -34 81 -45q15 -30 40 -55t44 -25t25 2l14 -4q5 15 26 27t21 49l-12 39
q5 12 25 12z" />
    <glyph glyph-name="hungarumlaut" unicode="&#x2dd;" horiz-adv-x="1222" 
d="M460 45q-10 -1 -10 15t103 92t179 120t86 45q10 0 24 -17t17 -33l-106 -60q-69 -27 -139 -71t-107 -68q-37 -23 -47 -23zM500 332q4 0 14 -10t9 -22q1 -12 -7 -16t-57 -41t-94 -71t-61 -42t-68 -46q-50 -37 -84 -45l-10 11q5 22 172 152t186 130z" />
    <glyph glyph-name="uni0307" unicode="&#x307;" horiz-adv-x="1705" 
d="M113 1203q1 19 17 37t35 17q19 1 35 -17t15 -36q0 -51 -57 -51q-18 -1 -32 15t-13 35z" />
    <glyph glyph-name="uni030F" unicode="&#x30f;" horiz-adv-x="1222" 
d="M302 311q10 0 115 -60q45 -27 141 -101t96 -90t-9 -15q-9 -1 -44 21t-94 62t-140 73l-107 60q3 16 17 33q15 17 25 17zM597 294q0 12 9 22t13 10q17 0 177 -127t165 -149l-9 -11q-34 8 -85 45t-71 46q-22 15 -104 80t-88 69q-7 4 -7 15z" />
    <glyph glyph-name="uni0311" unicode="&#x311;" horiz-adv-x="1705" 
 />
    <glyph glyph-name="uni0326" unicode="&#x326;" horiz-adv-x="290" 
d="M98 -166q0 28 24 46t54 18q46 0 68 -60l-4 -6q4 -8 4 -34t-25 -83q-25 -58 -65 -106t-74 -49l-33 16l4 18q107 86 107 150q-60 36 -60 90z" />
    <glyph glyph-name="endash" unicode="&#x2013;" horiz-adv-x="620" 
d="M631 727h-62q0 -6 -215 -6h-301q-17 -1 -30 9t-13 26q0 6 283 6h293q15 0 30 -10t15 -25z" />
    <glyph glyph-name="emdash" unicode="&#x2014;" horiz-adv-x="620" 
d="M918 727h-62q0 -6 -215 -6h-588q-17 -1 -30 9t-13 26q0 6 570 6h292q14 0 30 -10t16 -25z" />
    <glyph glyph-name="quoteleft" unicode="&#x2018;" horiz-adv-x="395" 
d="M246 1280q0 -28 -24 -46t-54 -17q-47 0 -68 59l4 6q-4 8 -4 34t25 83q25 58 65 106t74 49l33 -16l-4 -18q-107 -86 -107 -150q60 -36 60 -90z" />
    <glyph glyph-name="quoteright" unicode="&#x2019;" horiz-adv-x="397" 
d="M147 1491q1 27 25 45t53 18q47 0 68 -59l-4 -6q4 -7 4 -33t-25 -84t-65 -106t-74 -49l-33 16l4 18q107 86 107 150q-60 36 -60 90z" />
    <glyph glyph-name="quotesinglbase" unicode="&#x201a;" horiz-adv-x="407" 
d="M152 97q0 27 24 45t53 18q46 0 68 -60l-4 -6q4 -8 4 -33t-25 -83t-65 -106t-74 -50l-33 16l4 19q107 89 107 149q-25 14 -42 39t-17 52z" />
    <glyph glyph-name="quotedblleft" unicode="&#x201c;" horiz-adv-x="608" 
d="M459 1280q-1 -28 -25 -46t-53 -17q-47 0 -68 59l4 6q-4 8 -4 34t25 83q25 58 65 106t74 49l33 -16l-4 -18q-107 -86 -107 -150q60 -36 60 -90zM246 1280q0 -28 -24 -46t-54 -17q-47 0 -68 59l4 6q-4 8 -4 34t25 83q25 58 65 106t74 49l33 -16l-4 -18q-107 -86 -107 -150
q60 -36 60 -90z" />
    <glyph glyph-name="quotedblright" unicode="&#x201d;" horiz-adv-x="643" 
d="M393 1491q1 27 25 45t53 18q47 0 68 -59l-4 -6q4 -7 4 -33t-25 -84t-65 -106t-74 -49l-33 16l4 18q107 86 107 150q-60 36 -60 90zM147 1491q1 27 25 45t53 18q47 0 68 -59l-4 -6q4 -7 4 -33t-25 -84t-65 -106t-74 -49l-33 16l4 18q107 86 107 150q-60 36 -60 90z" />
    <glyph glyph-name="quotedblbase" unicode="&#x201e;" horiz-adv-x="636" 
d="M381 97q1 27 25 45t53 18t48 -24t19 -58t-23 -94t-63 -110t-78 -52l-32 16l4 19q5 5 27 24q79 70 79 125q-25 14 -42 39t-17 52zM156 97q0 27 24 45t54 18q29 0 48 -24t19 -59q-1 -35 -25 -95t-66 -108t-85 -48l-25 16q10 24 40 50t52 53t23 61q-25 14 -42 39t-17 52z
" />
    <glyph glyph-name="bullet" unicode="&#x2022;" horiz-adv-x="868" 
d="M301 701q-1 49 31 103t95 54t105 -34t41 -71q0 -67 -27 -117q-32 -65 -120 -65q-53 0 -89 41t-36 89z" />
    <glyph glyph-name="ellipsis" unicode="&#x2026;" horiz-adv-x="983" 
d="M768 42q0 18 16 36t36 18q18 0 34 -18t16 -35q0 -51 -57 -51q-17 0 -31 16t-14 34zM440 42q0 18 17 36t36 18t35 -18t15 -35q0 -51 -58 -51q-17 0 -31 16t-14 34zM113 42q1 18 17 36t35 18t35 -18t15 -35q0 -51 -57 -51q-18 0 -32 16t-13 34z" />
    <glyph glyph-name="guilsinglleft" unicode="&#x2039;" horiz-adv-x="569" 
d="M84 696q0 28 48 141t106 243q63 142 89 239q27 97 58 102l27 -20q-18 -119 -137 -357t-119 -344q0 -16 141 -304t174 -343l18 -14q-3 -11 -11 -25t-17 -14l-27 4h-4q-32 47 -69 131t-48 107l-102 213q-5 11 -21 43t-24 51q-6 19 -44 69t-38 78z" />
    <glyph glyph-name="guilsinglright" unicode="&#x203a;" horiz-adv-x="569" 
d="M414 700q0 106 -119 344t-137 357l26 20q28 -6 50 -75q6 -24 16 -58t17 -56t113 -258t105 -271q1 -34 -37 -85q-38 -52 -45 -70t-24 -50t-21 -43l-176 -365q-37 -77 -43 -86l-30 -4q-9 0 -18 14t-11 25l18 14q36 65 176 347t140 300z" />
    <glyph glyph-name="fraction" unicode="&#x2044;" horiz-adv-x="559" 
d="M479 1505q0 -17 -20 -99t-33 -142t-219 -965l-41 -178q-2 -7 -7 -35q-17 -89 -53 -92q-20 13 -20 47t10 90t34 142q22 86 93 401q71 316 131 546t64 241q16 71 31 71q30 0 30 -27z" />
    <glyph glyph-name="uni2074" unicode="&#x2074;" horiz-adv-x="526" 
d="M455 567q0 -30 -57 -25q-22 2 -40 -8t-18 -51t6 -178t12 -153q-2 -8 -2 -38t9 -46l-7 -25l7 -14v-29l-33 -25l-31 13v73l-2 5q8 33 8 73l-14 209l4 92q0 80 -21 90l-120 -12q-27 0 -39 10t-17 13v6q0 10 11 65l-19 41l19 101l20 401v326l-8 51q1 27 31 27t30 -29l-8 -164
q0 -36 6 -70l-4 -6q4 -36 4 -57l-24 -516l14 -60l-14 -55q0 -39 20 -39t54 6q36 6 49 13q0 74 -8 270q-7 196 -15 252q-8 55 -8 76q0 32 39 32l18 -22l12 -289q0 -60 6 -185t15 -134l76 8q39 0 39 -23z" />
    <glyph glyph-name="Euro" unicode="&#x20ac;" horiz-adv-x="606" 
d="M340 33q58 -1 87 107t35 220t7 203q0 91 -16 261t-47 247v88q-22 56 -25 138t-32 135t-132 65q-48 -39 -59 -69t-11 -99l9 -383l20 -180q0 -733 164 -733zM518 524q0 -538 -196 -538q-19 0 -66 26q-97 60 -150 762l9 8l-2 146q-13 17 -13 108l2 328q12 20 22 68t22 69
q23 41 102 41q20 0 56 -20t56 -40q20 -18 32 -44q14 -26 23 -43q9 -19 15 -53t12 -65q4 -31 8 -65t12 -95q8 -60 10 -72q2 -13 8 -67q8 -54 10 -72t6 -66q22 -190 22 -316z" />
    <glyph glyph-name="trademark" unicode="&#x2122;" horiz-adv-x="1075" 
d="M730 864q-32 0 -44 38t-14 92q-4 53 -13 69q-8 65 -38 183t-39 169q-15 -199 -15 -431t11 -251v-8q0 -69 -22 -79q-11 -5 -30 -5q-24 0 -24 49l12 217q0 426 18 639q4 4 18 24t29 19q15 0 37 -22q-2 -6 -2 -43q0 -38 44 -174t48 -158t10 -78t17 -61q57 137 85 247t43 168
q13 58 17 76t6 26q2 10 9 22q6 12 16 18t23 6t23 -8t10 -21l-23 -434l14 -367q0 -145 -53 -145q-15 1 -23 5t-8 20l13 235l-11 291l7 127q0 14 -4 20q-2 -9 -22 -111t-44 -120q-12 -24 -12 -68l-6 -6l2 -4q-1 -3 -11 -52q-22 -114 -54 -114zM338 679q0 -6 -15 -17t-28 -15
l-29 15q2 8 2 26l-2 51v11q6 6 6 62t-6 67q4 54 4 82l-8 229l6 213q0 88 -10 98l-113 -8q-57 0 -57 20v7l14 24q24 2 124 12t177 9l56 -4l24 -25q0 -35 -75 -35l-74 2l-6 -8q-6 -67 -6 -133l14 -492q0 -82 -6 -161q8 -24 8 -30z" />
    <glyph glyph-name="minus" unicode="&#x2212;" horiz-adv-x="620" 
d="M610 739q0 -7 -170 -13t-284 -5q-15 -1 -29 9t-14 26q1 6 175 12t277 6q15 0 30 -10t15 -25z" />
    <glyph glyph-name="glyph336" horiz-adv-x="1251" 
d="M975 106q0 -34 -33 -34q-26 0 -144 152q-44 56 -99 104t-95 47h-12q-62 -51 -132 -105t-122 -104t-79 -51q-28 0 -28 26q1 11 7 25t16 56t56 168q46 128 46 130l-52 62q-43 44 -98 92t-67 59t-45 29q-76 43 -76 78q0 30 39 30q2 0 80 -11t142 -11l190 -8l94 235
q10 15 26 59t34 73q17 28 37 28t38 -17t17 -30q0 -69 53 -293l10 -47q85 -6 203 -6l190 6q54 0 54 -41q0 -11 -46 -39t-59 -41q-13 -12 -87 -89t-152 -116v-12q0 -40 19 -97t22 -69q6 0 30 -108t23 -130z" />
  </font>
</defs>
</svg>
